<?xml version="1.0" standalone="no"?>
<!DOCTYPE svg PUBLIC "-//W3C//DTD SVG 1.1//EN" "http://www.w3.org/Graphics/SVG/1.1/DTD/svg11.dtd" >
<svg>
<metadata>
Created by FontForge 20090914 at Mon Feb  8 10:44:31 2016
 By www-data
 ITC Franklin Gothic is a trademark of The International Typeface Corporation which may be registered in certain jurisdictions. Portions copyright Microsoft Corporation.  All rights reserved.
</metadata>
<defs>
<font id="FranklinGothic-Book" horiz-adv-x="1451" >
  <font-face 
    font-family="Franklin Gothic Book"
    font-weight="400"
    font-stretch="normal"
    units-per-em="2048"
    panose-1="2 11 5 3 2 1 2 2 2 4"
    ascent="1638"
    descent="-410"
    x-height="1010"
    cap-height="1365"
    bbox="-393 -676.996 2097 1954"
    underline-thickness="102"
    underline-position="-103"
    unicode-range="U+0020-U+FB02"
  />
<missing-glyph horiz-adv-x="2048" 
d="M256 0v1536h1536v-1536h-1536zM384 128h1280v1280h-1280v-1280z" />
    <glyph glyph-name=".notdef" horiz-adv-x="2048" 
d="M256 0v1536h1536v-1536h-1536zM384 128h1280v1280h-1280v-1280z" />
    <glyph glyph-name="space" unicode=" " horiz-adv-x="512" 
 />
    <glyph glyph-name="exclam" unicode="!" horiz-adv-x="550" 
d="M315 340h-84l-74 1025h236zM380 0h-209v212h209v-212z" />
    <glyph glyph-name="quotedbl" unicode="&#x22;" horiz-adv-x="647" 
d="M236 837h-100l-30 528h160zM511 837h-100l-29 528h159z" />
    <glyph glyph-name="numbersign" unicode="#" horiz-adv-x="1201" 
d="M1136 965l-21 -123h-210l-50 -286h209l-21 -123h-211l-77 -433h-130l77 433h-290l-77 -433h-130l77 433h-218l22 123h218l51 286h-219l22 123h219l71 400h130l-71 -400h287l72 400h130l-71 -400h211zM773 842h-288l-50 -286h288z" />
    <glyph glyph-name="dollar" unicode="$" horiz-adv-x="1201" 
d="M646 -150h-121.999v193c-222.667 24 -365.334 128.333 -428.001 313l135 53c52 -140.667 149.667 -217 293 -229v464c-155.333 37.333 -256.166 86 -302.499 146s-69.5 126.667 -69.5 200c0 193.333 124 310.666 372 351.999v165h122v-165
c196.667 -17.333 325.667 -105.333 387 -264l-136 -44c-36.667 108.667 -120.334 167.334 -251.001 176.001v-428c275.333 -49.333 413 -173.333 413 -372c0 -85.333 -31.333 -164.5 -94 -237.5s-169 -116.167 -319 -129.5v-193zM524.001 1210
c-68.667 -5.33301 -123.5 -26.333 -164.5 -63s-61.5 -83 -61.5 -139c0 -110 75.333 -179.333 226 -208v410zM646.001 180c81.333 3.33301 144.833 25.667 190.5 67s68.5 91 68.5 149c0 123.333 -86.333 197 -259 221v-437z" />
    <glyph glyph-name="percent" unicode="%" horiz-adv-x="1475" 
d="M357 669c-87.333 0 -156.168 34.668 -206.501 104.001s-75.5 153.333 -75.5 252c0 99.333 24.333 183.166 73 251.499s117.334 102.5 206.001 102.5c94 0 164.833 -36 212.5 -108s71.5 -155.333 71.5 -250c0 -94 -24.667 -176.167 -74 -246.5
s-118.333 -105.5 -207 -105.5zM358.998 748.001c57.333 0 100.167 25 128.5 75s42.5 113 42.5 189c0 84.667 -14.5 154 -43.5 208s-73.5 81 -133.5 81c-114 0 -171 -90.667 -171 -272c0 -187.333 59 -281 177 -281zM387.999 0.000976562h-126l827 1365h124zM1120 -13.999
c-88.667 0 -157.831 35 -207.498 105s-74.5 154 -74.5 252c0 98.667 24.167 182.167 72.5 250.5s117.166 102.5 206.499 102.5c93.333 0 163.666 -36 210.999 -108s71 -155.333 71 -250c0 -93.333 -24.5 -175.333 -73.5 -246s-117.5 -106 -205.5 -106zM1122 66.001
c57.333 0 100.168 24.667 128.501 74s42.5 112.333 42.5 189c0 82 -14.333 150.833 -43 206.5s-73.334 83.5 -134.001 83.5c-115.333 0 -173 -91 -173 -273c0 -186.667 59.667 -280 179 -280z" />
    <glyph glyph-name="ampersand" unicode="&#x26;" horiz-adv-x="1365" 
d="M1291 144l0.000976562 -144c-60.667 -10 -110 -15 -148 -15c-28 0 -57.833 5 -89.5 15s-77.834 46.333 -138.501 109c-108 -90.667 -230 -136 -366 -136c-138 0 -249.167 39.5 -333.5 118.5s-126.5 174.5 -126.5 286.5c0 89.333 29.833 171.833 89.5 247.5
s147.834 132.5 264.501 170.5c-88 126 -132 229.667 -132 311c0 77.333 27.667 144.333 83 201s129 85 221 85c93.333 0 169.833 -26.333 229.5 -79s89.5 -123.667 89.5 -213c0 -145.333 -95.667 -263.333 -287 -354l288 -436c93.333 118 155 263.333 185 436l146 -31
c-40.667 -196.667 -124.334 -367 -251.001 -511c43.333 -47.333 92 -71 146 -71c24.667 0 68 3.33301 130 10zM578.001 845c107.333 59.333 172 107.001 194 143.001s33 70.667 33 104c0 47.333 -17 88.166 -51 122.499s-77.333 51.5 -130 51.5
c-48 0 -87.667 -15.167 -119 -45.5s-47 -64.5 -47 -102.5c0 -58.667 40 -149.667 120 -273zM509.001 693.001c-94.667 -40.667 -159.833 -84.5 -195.5 -131.5s-53.5 -105.833 -53.5 -176.5c0 -96.667 30.833 -168 92.5 -214s133.5 -69 215.5 -69
c104 0 193.667 36.333 269 109z" />
    <glyph glyph-name="quotesingle" unicode="'" horiz-adv-x="371" 
d="M236 837h-100l-30 528h160z" />
    <glyph glyph-name="parenleft" unicode="(" horiz-adv-x="601" 
d="M506 -341l-105 -0.00195312c-196 257.333 -294 542.333 -294 855c0 298.667 98 582.334 294 851.001h105c-168.667 -251.333 -253 -535.666 -253 -852.999c0 -302.667 84.333 -587 253 -853z" />
    <glyph glyph-name="parenright" unicode=")" horiz-adv-x="601" 
d="M95 1365l104 0.00195312c196.667 -257.333 295 -542.333 295 -855c0 -298.667 -98.333 -582.334 -295 -851.001h-104c168.667 251.333 253 535.666 253 852.999c0 302.667 -84.333 587 -253 853z" />
    <glyph glyph-name="asterisk" unicode="*" horiz-adv-x="1201" 
d="M561 989l-38 376h154l-37 -376l354 155l47 -144l-388 -76l257 -282l-126 -88l-184 324l-183 -324l-126 88l256 282l-387 76l46 144z" />
    <glyph glyph-name="plus" unicode="+" horiz-adv-x="1201" 
d="M123 753h403v421h150v-421h403v-138h-403v-421h-150v421h-403v138z" />
    <glyph glyph-name="comma" unicode="," horiz-adv-x="512" 
d="M365 228v-205l-149 -280h-85l118 257h-102v228h218z" />
    <glyph glyph-name="hyphen" unicode="-" horiz-adv-x="512" 
d="M482 573v-122h-452v122h452z" />
    <glyph glyph-name="period" unicode="." horiz-adv-x="512" 
d="M368 224v-224h-223v224h223z" />
    <glyph glyph-name="slash" unicode="/" horiz-adv-x="930" 
d="M38 -341h-134l824 1706h134z" />
    <glyph glyph-name="zero" unicode="0" horiz-adv-x="1201" 
d="M602 -27c-157.333 0 -282.998 68.166 -376.998 204.499s-141 305.5 -141 507.5c0 198.667 44.667 366.334 134 503.001s215.666 205 378.999 205c170.667 0 300.167 -71.333 388.5 -214s132.5 -310 132.5 -502c0 -188 -45.333 -352.333 -136 -493
s-217.334 -211 -380.001 -211zM603.002 106.999c115.333 0 200.667 52.167 256 156.5s83 235.5 83 393.5c0 172.667 -28.333 316.334 -85 431.001s-144 172 -262 172c-114 0 -198.833 -52.333 -254.5 -157s-83.5 -242.334 -83.5 -413.001
c0 -177.333 29.333 -318.833 88 -424.5s144.667 -158.5 258 -158.5z" />
    <glyph glyph-name="one" unicode="1" horiz-adv-x="1201" 
d="M1144 127v-127h-956v127h410v1054c-120.667 -126 -246 -224.333 -376 -295v172c179.333 94 318.333 205.667 417 335h122v-1266h383z" />
    <glyph glyph-name="two" unicode="2" horiz-adv-x="1201" 
d="M1075 142l-0.000976562 -142h-969v142c382.667 286.667 610.834 475.5 684.501 566.5s110.5 181.167 110.5 270.5c0 83.333 -31 150.666 -93 201.999s-133.333 77 -214 77c-83.333 0 -157 -28.167 -221 -84.5s-100 -132.833 -108 -229.5l-159 48
c66.667 267.333 230 401 490 401c140.667 0 255 -40 343 -120s132 -177.667 132 -293c0 -79.333 -20.833 -155.666 -62.5 -228.999s-120.5 -161 -236.5 -263s-266 -217.333 -450 -346h753z" />
    <glyph glyph-name="three" unicode="3" horiz-adv-x="1201" 
d="M396 642l-0.000976562 135.998h156c114 0 195.5 23.333 244.5 70s73.5 103.334 73.5 170.001c0 73.333 -27.333 131.5 -82 174.5s-123.334 64.5 -206.001 64.5c-153.333 0 -259.333 -74 -318 -222l-154 44c88 209.333 250.667 314 488 314
c133.333 0 241 -35.5 323 -106.5s123 -156.5 123 -256.5c0 -77.333 -24.667 -144.833 -74 -202.5s-112.666 -93.834 -189.999 -108.501c86.667 -12.667 161.167 -49 223.5 -109s93.5 -137.667 93.5 -233c0 -114 -46.333 -209.833 -139 -287.5s-219.667 -116.5 -381 -116.5
c-128 0 -237.5 30.333 -328.5 91s-153.833 141.334 -188.5 242.001l159 53c48 -164.667 166.333 -247 355 -247c122.667 0 210.834 26.167 264.501 78.5s80.5 114.833 80.5 187.5c0 78.667 -32.167 142.334 -96.5 191.001s-154.5 73 -270.5 73h-156z" />
    <glyph glyph-name="four" unicode="4" horiz-adv-x="1201" 
d="M903 0h-165v325h-675v115l626 954h214v-934h221v-135h-221v-325zM738 460l0.000976562 646.001c0 46.667 1 97 3 151c-28.667 -52.667 -53.334 -95.334 -74.001 -128.001l-426 -669h497z" />
    <glyph glyph-name="five" unicode="5" horiz-adv-x="1201" 
d="M1001 1365l-13.999 -147.001h-671l-29 -443c101.333 99.333 212.666 149 333.999 149c128 0 238.5 -44.333 331.5 -133s139.5 -202 139.5 -340c0 -140 -50.5 -254.667 -151.5 -344s-224.5 -134 -370.5 -134c-114.667 0 -216.667 30 -306 90s-148 137.667 -176 233l146 50
c60 -158.667 172.667 -238 338 -238c108.667 0 195 32.167 259 96.5s96 146.5 96 246.5c0 104.667 -31.667 186.334 -95 245.001s-139.333 88 -228 88c-129.333 0 -236.333 -62 -321 -186l-135 29l44 738h809z" />
    <glyph glyph-name="six" unicode="6" horiz-adv-x="1201" 
d="M1097 1086l-154.001 -42.002c-52.667 138.667 -148.667 208 -288 208c-256 0 -387 -211.667 -393 -635c40.667 94 98.334 163.667 173.001 209s153.667 68 237 68c126.667 0 232.834 -44.167 318.501 -132.5s128.5 -194.166 128.5 -317.499
c0 -128 -45.5 -238.5 -136.5 -331.5s-207.5 -139.5 -349.5 -139.5c-161.333 0 -289.833 60.833 -385.5 182.5s-143.5 287.167 -143.5 496.5c0 204.667 45.167 379.334 135.5 524.001s230.166 217 419.499 217c218 0 364 -102.333 438 -307zM629.999 109.998
c96.667 0 175.832 31.833 237.499 95.5s92.5 140.167 92.5 229.5c0 88 -30.167 163.5 -90.5 226.5s-135.166 94.5 -224.499 94.5c-92 0 -172.333 -33 -241 -99s-103 -143.333 -103 -232c0 -82 30.667 -155 92 -219s140.333 -96 237 -96z" />
    <glyph glyph-name="seven" unicode="7" horiz-adv-x="1201" 
d="M575 0l-175.998 0.000976562c0 228.667 46.667 451.167 140 667.5s207.666 398.833 342.999 547.5h-741l17 150h902v-102c-162.667 -196 -284.334 -400 -365.001 -612s-121 -413.333 -121 -604c0 -10.667 0.333008 -26.334 1 -47.001z" />
    <glyph glyph-name="eight" unicode="8" horiz-adv-x="1201" 
d="M399 708c-172.667 75.333 -259 184.667 -259 328c0 104 43 189.5 129 256.5s200 100.5 342 100.5c140 0 251.333 -32.167 334 -96.5s124 -148.5 124 -252.5c0 -144.667 -88.333 -248.334 -265 -311.001c142.667 -66 232.167 -129.667 268.5 -191
s54.5 -122.666 54.5 -183.999c0 -109.333 -46.5 -200.833 -139.5 -274.5s-219.167 -110.5 -378.5 -110.5c-170 0 -301.667 37.5 -395 112.5s-140 164.167 -140 267.5c0 154 108.333 272.333 325 355zM606 793.001c114.667 30.667 195.667 66.001 243 106.001s71 90 71 150
c0 70 -28.167 123.167 -84.5 159.5s-130.5 54.5 -222.5 54.5c-88 0 -160 -19.167 -216 -57.5s-84 -89.833 -84 -154.5c0 -64 31.167 -119.333 93.5 -166s128.833 -77.334 199.5 -92.001zM587 636.002c-230.667 -54.667 -346 -151.001 -346 -289.001
c0 -72 31.5 -130.833 94.5 -176.5s155.833 -68.5 278.5 -68.5c104 0 187.667 22.333 251 67s95 101.667 95 171c0 132.667 -124.333 231.334 -373 296.001z" />
    <glyph glyph-name="nine" unicode="9" horiz-adv-x="1201" 
d="M117 249l137.001 50.002c56.667 -126 152 -189 286 -189c130 0 227.833 54.667 293.5 164s99.5 257.666 101.5 444.999c-89.333 -164 -223.666 -246 -402.999 -246c-126.667 0 -233 43.167 -319 129.5s-129 193.166 -129 320.499c0 129.333 45.167 240 135.5 332
s205.5 138 345.5 138c171.333 0 302.666 -60.167 393.999 -180.5s137 -285.833 137 -496.5c0 -221.333 -48.333 -400.5 -145 -537.5s-234.334 -205.5 -413.001 -205.5c-208.667 0 -349 92 -421 276zM570.001 610.002c94 0 172.834 32.834 236.501 98.501
s95.5 142.5 95.5 230.5c0 85.333 -30.167 158.666 -90.5 219.999s-139.833 92 -238.5 92c-100 0 -179 -31.5 -237 -94.5s-87 -139.833 -87 -230.5c0 -97.333 32.167 -174.333 96.5 -231s139.166 -85 224.499 -85z" />
    <glyph glyph-name="colon" unicode=":" horiz-adv-x="512" 
d="M368 1010v-224h-223v224h223zM368 225v-225h-223v225h223z" />
    <glyph glyph-name="semicolon" unicode=";" horiz-adv-x="512" 
d="M365 1010v-221h-219v221h219zM365 228v-205l-151 -278h-83l117 255h-102v228h219z" />
    <glyph glyph-name="semicolon" unicode="&#x37e;" horiz-adv-x="512" 
d="M365 1010v-221h-219v221h219zM365 228v-205l-151 -278h-83l117 255h-102v228h219z" />
    <glyph glyph-name="less" unicode="&#x3c;" horiz-adv-x="1201" 
d="M1024 1159v-152l-723 -331l723 -331v-151l-887 416v133z" />
    <glyph glyph-name="equal" unicode="=" horiz-adv-x="1201" 
d="M123 931h956v-138h-956v138zM123 606h956v-138h-956v138z" />
    <glyph glyph-name="greater" unicode="&#x3e;" horiz-adv-x="1201" 
d="M177 194v152l724 331l-724 331v151l887 -417v-132z" />
    <glyph glyph-name="question" unicode="?" horiz-adv-x="1035" 
d="M537 340l-144 -0.000976562c0.666992 104 2.16699 168.833 4.5 194.5s9.5 51.334 21.5 77.001s25.5 45.667 40.5 60s50.5 37.166 106.5 68.499c60.667 34 102.5 60.5 125.5 79.5s43 45.333 60 79s25.5 70.5 25.5 110.5c0 76 -27.5 135.667 -82.5 179
s-119.833 65 -194.5 65c-169.333 0 -272.666 -98.333 -309.999 -295l-149 32c50 268.667 205.667 403 467 403c133.333 0 241 -36.5 323 -109.5s123 -166.5 123 -280.5c0 -148.667 -85.333 -267.334 -256 -356.001c-74.667 -39.333 -120.334 -70.166 -137.001 -92.499
s-25 -57.166 -25 -104.499zM571 196.999v-197h-202v197h202z" />
    <glyph glyph-name="at" unicode="@" horiz-adv-x="1526" 
d="M1113 1042l-55.999 -467.002c-4 -34.667 -6 -64.667 -6 -90c0 -46 22.333 -69 67 -69c50 0 96.333 35.333 139 106s64 153.667 64 249c0 150.667 -51.167 271.334 -153.5 362.001s-228.833 136 -379.5 136c-156.667 0 -291.334 -56.167 -404.001 -168.5
s-169 -252.166 -169 -419.499c0 -156.667 53.333 -292.834 160 -408.501s255.667 -173.5 447 -173.5c151.333 0 300.666 37.667 447.999 113l44 -121c-156 -78.667 -320 -118 -492 -118c-227.333 0 -407.5 69.833 -540.5 209.5s-199.5 306.167 -199.5 499.5
c0 202.667 69.333 371.834 208 507.501s306.334 203.5 503.001 203.5c185.333 0 340.166 -58.833 464.499 -176.5s186.5 -261.834 186.5 -432.501c0 -131.333 -33.5 -247.166 -100.5 -347.499s-148.5 -150.5 -244.5 -150.5c-78.667 0 -132 40.667 -160 122
c-62.667 -84 -137.667 -126 -225 -126c-89.333 0 -164.166 35.333 -224.499 106s-90.5 159.667 -90.5 267c0 117.333 34.333 214 103 290s152 114 250 114c93.333 0 165 -38.667 215 -116l12 99h134zM723.001 414.998c58 0 108.5 29.8311 151.5 89.498
s64.5 128.834 64.5 207.501c0 64 -17 115.667 -51 155s-75 59 -123 59c-57.333 0 -106.833 -25.667 -148.5 -77s-62.5 -117.666 -62.5 -198.999c0 -71.333 16.5 -128.333 49.5 -171s72.833 -64 119.5 -64z" />
    <glyph glyph-name="A" unicode="A" horiz-adv-x="1097" 
d="M1090 0h-175l-138 399h-505l-122 -399h-143l443 1365h195zM741 527l-210 656l-212 -656h422z" />
    <glyph glyph-name="B" unicode="B" horiz-adv-x="1238" 
d="M171 0v1365h540c136 0 236.833 -33.333 302.5 -100s98.5 -144 98.5 -232c0 -154.667 -80.667 -257.334 -242 -308.001c96 -24.667 167.333 -68.667 214 -132s70 -135 70 -215c0 -107.333 -36.167 -197.166 -108.5 -269.499s-183.833 -108.5 -334.5 -108.5h-540zM336 780
l297.001 -0.000976562c123.333 0 205.666 23.5 246.999 70.5s62 102.167 62 165.5c0 62.667 -22.167 113.334 -66.5 152.001s-110.5 58 -198.5 58h-341v-446zM336.001 149.999l366 -0.000976562c89.333 0 158.333 21.667 207 65s73 99.666 73 168.999
c0 48.667 -11 93.834 -33 135.501s-53 73.834 -93 96.501s-99.667 34 -179 34h-341v-500z" />
    <glyph glyph-name="C" unicode="C" horiz-adv-x="1186" 
d="M989 459l156 -34.999c-74.667 -300.667 -243.334 -451 -506.001 -451c-172.667 0 -308.167 69.667 -406.5 209s-147.5 310.666 -147.5 513.999c0 210 51.333 378.667 154 506s240.334 191 413.001 191c256 0 420.333 -146.333 493 -439l-161 -32
c-58.667 217.333 -169.667 326 -333 326c-120.667 0 -214.167 -50.5 -280.5 -151.5s-99.5 -242.833 -99.5 -425.5c0 -167.333 34 -301.5 102 -402.5s158 -151.5 270 -151.5c174 0 289.333 114 346 342z" />
    <glyph glyph-name="D" unicode="D" horiz-adv-x="1325" 
d="M171 0l0.000976562 1365h458c192.667 0 342.667 -65.667 450 -197s161 -292 161 -482c0 -192.667 -52.333 -355.167 -157 -487.5s-237.334 -198.5 -398.001 -198.5h-514zM342.001 145h277c146.667 0 258 50.667 334 152s114 235 114 401
c0 134.667 -36.167 255.667 -108.5 363s-185.5 161 -339.5 161h-277v-1077z" />
    <glyph glyph-name="E" unicode="E" horiz-adv-x="1122" 
d="M1054 150v-150h-883v1365h864v-150h-693v-434h550v-139h-550v-492h712z" />
    <glyph glyph-name="F" unicode="F" horiz-adv-x="1040" 
d="M342 0h-171v1365h836v-150h-665v-431h551v-138h-551v-646z" />
    <glyph glyph-name="G" unicode="G" horiz-adv-x="1325" 
d="M1182 688v-705.999h-105l-47 171c-84 -120 -209 -180 -375 -180c-180 0 -320 67.667 -420 203s-150 299.666 -150 492.999c0 206.667 53 379 159 517s250 207 432 207c251.333 0 415.333 -132 492 -396l-162 -39c-23.333 101.333 -67 175 -131 221s-134 69 -210 69
c-134.667 0 -234 -54.333 -298 -163s-96 -245 -96 -409c0 -176.667 35.833 -314.834 107.5 -414.501s169.167 -149.5 292.5 -149.5c96 0 176.167 31.833 240.5 95.5s96.5 151.5 96.5 263.5c0 20.667 -0.666992 45.334 -2 74.001h-338v143h514z" />
    <glyph glyph-name="H" unicode="H" horiz-adv-x="1316" 
d="M1146 0h-171v650h-633v-650h-171v1365h171v-565h633v565h171v-1365z" />
    <glyph glyph-name="I" unicode="I" horiz-adv-x="512" 
d="M342 0h-171v1365h171v-1365z" />
    <glyph glyph-name="J" unicode="J" horiz-adv-x="765" 
d="M608 1365l0.000976562 -948.001c0 -165.333 -37.333 -280.666 -112 -345.999s-173.667 -98 -297 -98c-66 0 -132.333 9 -199 27v140c65.333 -13.333 124.666 -20 177.999 -20c76 0 132 11.333 168 34s60.167 52 72.5 88s18.5 94.333 18.5 175v948h171z" />
    <glyph glyph-name="K" unicode="K" horiz-adv-x="1287" 
d="M1250 0h-187l-408 753l-313 -389v-364h-171v1365h171v-792l617 792h185l-370 -478z" />
    <glyph glyph-name="L" unicode="L" horiz-adv-x="1003" 
d="M977 150v-150h-806v1365h175v-1215h631z" />
    <glyph glyph-name="M" unicode="M" horiz-adv-x="1659" 
d="M1489 0h-166v1192l-444 -1192h-116l-447 1192v-1192h-145v1365h254l411 -1092l403 1092h250v-1365z" />
    <glyph glyph-name="N" unicode="N" horiz-adv-x="1346" 
d="M1176 0h-166l-706 1190l2 -90c2 -34 3 -62.667 3 -86v-1014h-138v1365h214l660 -1113l-2 95c-1.33301 37.333 -2 70.333 -2 99v919h135v-1365z" />
    <glyph glyph-name="O" unicode="O" horiz-adv-x="1292" 
d="M642 -27c-175.333 0 -312 68.165 -410 204.498s-147 303.5 -147 501.5c0 206.667 51.333 377.334 154 512.001s238.667 202 408 202c168.667 0 304 -66.167 406 -198.5s153 -299.166 153 -500.499c0 -193.333 -49.5 -361.833 -148.5 -505.5s-237.5 -215.5 -415.5 -215.5z
M646 111.998c119.333 0 212.668 54.333 280.001 163s101 248.667 101 420c0 176 -34.833 313 -104.5 411s-162.167 147 -277.5 147c-116.667 0 -209.334 -53 -278.001 -159s-103 -244.667 -103 -416c0 -167.333 34.667 -303.5 104 -408.5s162 -157.5 278 -157.5z" />
    <glyph glyph-name="P" unicode="P" horiz-adv-x="1145" 
d="M342 0l-171 -0.000976562v1365h484c151.333 0 263 -41.167 335 -123.5s108 -176.166 108 -281.499c0 -117.333 -39.167 -214.333 -117.5 -291s-180.833 -115 -307.5 -115h-331v-554zM342 695.999l314 0.000976562c80.667 0 145.667 24.167 195 72.5
s74 112.166 74 191.499c0 68 -22 128.667 -66 182s-107.667 80 -191 80h-326v-526z" />
    <glyph glyph-name="Q" unicode="Q" horiz-adv-x="1292" 
d="M647 -27c-175.333 0 -312.831 66.833 -412.498 200.5s-149.5 300.167 -149.5 499.5c0 212 51.667 385 155 519s238.666 201 405.999 201c163.333 0 297.5 -64 402.5 -192s157.5 -297 157.5 -507c0 -174.667 -39.333 -327.667 -118 -459s-179.334 -213 -302.001 -245
l-1 -19c0 -100.667 60.667 -151 182 -151c58 0 110.333 4.33301 157 13v-137c-45.333 -14 -92.333 -21 -141 -21c-104.667 0 -185.167 22.167 -241.5 66.5s-87.833 121.5 -94.5 231.5zM646.002 112c119.333 0 212.668 54.333 280.001 163s101 248.667 101 420
c0 176 -34.833 313 -104.5 411s-162.167 147 -277.5 147c-116.667 0 -209.334 -53 -278.001 -159s-103 -244.667 -103 -416c0 -167.333 34.667 -303.5 104 -408.5s162 -157.5 278 -157.5z" />
    <glyph glyph-name="R" unicode="R" horiz-adv-x="1255" 
d="M1153 0l-179 0.00292969l-252 591h-391v-591h-160v1365h538c146 0 254.167 -39.833 324.5 -119.5s105.5 -166.834 105.5 -261.501c0 -72.667 -19.667 -142.334 -59 -209.001s-104.333 -114.334 -195 -143.001zM331 730.003h357c94 0 164.167 24.833 210.5 74.5
s69.5 110.5 69.5 182.5s-24.5 128 -73.5 168s-110.833 60 -185.5 60h-378v-485z" />
    <glyph glyph-name="S" unicode="S" horiz-adv-x="1166" 
d="M21 363l154.002 35c62 -186 196.333 -279 403 -279c108 0 189.333 22.833 244 68.5s82 106.834 82 183.501c0 58 -20.833 104.667 -62.5 140s-89.834 59.666 -144.501 72.999l-273 68c-70.667 18 -128.5 39.833 -173.5 65.5s-83.167 65.167 -114.5 118.5
s-47 114.333 -47 183c0 114 43 204.833 129 272.5s196.333 101.5 331 101.5c248 0 411 -112.333 489 -337l-155 -46c-18 80 -60.333 140.5 -127 181.5s-137.667 61.5 -213 61.5c-74.667 0 -141.167 -19.667 -199.5 -59s-87.5 -95 -87.5 -167
c0 -100.667 74 -168.667 222 -204l255 -61c233.333 -56 350 -181.667 350 -377c0 -118 -43.833 -216.167 -131.5 -294.5s-211.167 -117.5 -370.5 -117.5c-282.667 0 -469.334 130 -560.001 390z" />
    <glyph glyph-name="T" unicode="T" horiz-adv-x="994" 
d="M582 0h-170v1215h-391v150h953v-150h-392v-1215z" />
    <glyph glyph-name="U" unicode="U" horiz-adv-x="1241" 
d="M949 1365l142 0.00195312v-891c0 -178.667 -43.833 -306.834 -131.5 -384.501s-202.5 -116.5 -344.5 -116.5c-158 0 -275 40 -351 120s-114 207 -114 381v891h171v-891c0 -106 12.333 -180.667 37 -224s62 -75.333 112 -96s102.333 -31 157 -31
c105.333 0 185.333 27.667 240 83s82 144.666 82 267.999v891z" />
    <glyph glyph-name="V" unicode="V" horiz-adv-x="1099" 
d="M1092 1365l-460 -1365h-165l-460 1365h178l381 -1126l377 1126h149z" />
    <glyph glyph-name="W" unicode="W" horiz-adv-x="1674" 
d="M1635 1365l-329 -1365h-171l-298 1059l-277 -1059h-175l-346 1365h177l273 -1106l290 1106h138l313 -1106l255 1106h150z" />
    <glyph glyph-name="X" unicode="X" horiz-adv-x="1065" 
d="M1005 1365l-383 -625l438 -740h-193l-345 582l-358 -582h-159l437 706l-389 659h191l299 -504l306 504h156z" />
    <glyph glyph-name="Y" unicode="Y" horiz-adv-x="1045" 
d="M1065 1365l-457 -791v-574h-171v574l-457 791h201l363 -628l365 628h156z" />
    <glyph glyph-name="Z" unicode="Z" horiz-adv-x="1066" 
d="M1019 146v-146h-963v146l741 1071h-707v139h907v-114l-750 -1096h772z" />
    <glyph glyph-name="bracketleft" unicode="[" horiz-adv-x="601" 
d="M516 -341h-354v1706h354v-105h-217v-1496h217v-105z" />
    <glyph glyph-name="backslash" unicode="\" horiz-adv-x="930" 
d="M892 -341l-824 1706h134l824 -1706h-134z" />
    <glyph glyph-name="bracketright" unicode="]" horiz-adv-x="601" 
d="M85 1365h354v-1706h-354v105h217v1496h-217v105z" />
    <glyph glyph-name="asciicircum" unicode="^" horiz-adv-x="1024" 
d="M974 745h-167l-297 503l-295 -503h-165l361 624h201z" />
    <glyph glyph-name="underscore" unicode="_" horiz-adv-x="1024" 
d="M0 -136h1024v-137h-1024v137z" />
    <glyph glyph-name="grave" unicode="`" horiz-adv-x="1024" 
d="M188 1356l62 120l395 -228l-42 -81z" />
    <glyph glyph-name="a" unicode="a" horiz-adv-x="1083" 
d="M948 0l-155.999 -0.000976562c-6 32 -12 92.667 -18 182c-69.333 -139.333 -187.333 -209 -354 -209c-113.333 0 -200.333 30 -261 90s-91 132 -91 216c0 102 43.333 185.833 130 251.5s234 98.5 442 98.5c28 0 72.667 -1.33301 134 -4
c0 80 -6.16699 137.833 -18.5 173.5s-38.5 64.167 -78.5 85.5s-92.667 32 -158 32c-159.333 0 -252 -60.667 -278 -182l-145 25c35.333 186 184 279 446 279c139.333 0 238.166 -30.833 296.499 -92.5s87.5 -168.5 87.5 -320.5v-429c0 -71.333 7.33301 -136.666 22 -195.999
zM774.001 504.999c-64 4 -112.667 5.99902 -146 5.99902c-124 0 -220.333 -20.333 -289 -61s-103 -100 -103 -178c0 -49.333 18.5 -91.333 55.5 -126s90.5 -52 160.5 -52c94.667 0 172.5 34.333 233.5 103s91.5 149.334 91.5 242.001c0 18.667 -1 40.667 -3 66z" />
    <glyph glyph-name="b" unicode="b" horiz-adv-x="1100" 
d="M233 0h-76.001v1365h157v-523c72 130.667 171.333 196 298 196c116 0 213.167 -45.667 291.5 -137s117.5 -224 117.5 -398c0 -150 -38.5 -275.833 -115.5 -377.5s-177.167 -152.5 -300.5 -152.5c-137.333 0 -242.666 64.667 -315.999 194zM313.999 396
c7.33301 -103.333 39.167 -178.333 95.5 -225s115.833 -70 178.5 -70c80 0 144.5 34.667 193.5 104s73.5 164.333 73.5 285c0 130 -23.667 232.167 -71 306.5s-113 111.5 -197 111.5c-66 0 -125.5 -26.5 -178.5 -79.5s-84.5 -121.5 -94.5 -205.5v-227z" />
    <glyph glyph-name="c" unicode="c" horiz-adv-x="954" 
d="M754 354l142.003 -25c-20 -111.333 -64.333 -198.5 -133 -261.5s-154.334 -94.5 -257.001 -94.5c-139.333 0 -245.5 51.333 -318.5 154s-109.5 228 -109.5 376c0 153.333 38.5 280.833 115.5 382.5s181.833 152.5 314.5 152.5c110 0 198.167 -32.833 264.5 -98.5
s107.5 -150.5 123.5 -254.5l-142 -27c-26.667 166.667 -107.334 250 -242.001 250c-86.667 0 -153.334 -36.833 -200.001 -110.5s-70 -169.167 -70 -286.5c0 -129.333 23.167 -229.833 69.5 -301.5s111.5 -107.5 195.5 -107.5c130 0 212.333 84 247 252z" />
    <glyph glyph-name="d" unicode="d" horiz-adv-x="1103" 
d="M946 1365v-1365h-143v173c-70.667 -133.333 -177 -200 -319 -200c-118 0 -215 49.5 -291 148.5s-114 224.167 -114 375.5c0 154.667 37.667 283.5 113 386.5s175.333 154.5 300 154.5c121.333 0 220.333 -55.333 297 -166v493h157zM789 620
c0 88.667 -27 159.666 -81 212.999s-117 80 -189 80c-78 0 -142.167 -34.667 -192.5 -104s-75.5 -166.666 -75.5 -291.999c0 -135.333 23.167 -238.333 69.5 -309s109.833 -106 190.5 -106c73.333 0 138 30.667 194 92s84 133.333 84 216v210z" />
    <glyph glyph-name="e" unicode="e" horiz-adv-x="1066" 
d="M824 301l145.999 -30c-26.667 -86 -78.667 -157.167 -156 -213.5s-168.333 -84.5 -273 -84.5c-138 0 -249.667 48.5 -335 145.5s-128 224.167 -128 381.5c0 160.667 44.333 290.5 133 389.5s200 148.5 334 148.5c132 0 238.167 -45.667 318.5 -137s121.5 -228 123.5 -410
h-734c0 -152.667 32 -255.667 96 -309s131.667 -80 203 -80c128.667 0 219.334 66.333 272.001 199zM814.999 608c-1.33301 56.667 -10.668 107 -28.001 151s-46.666 81.5 -87.999 112.5s-91 46.5 -149 46.5c-78 0 -144.167 -28 -198.5 -84s-84.833 -131.333 -91.5 -226h555
z" />
    <glyph glyph-name="f" unicode="f" horiz-adv-x="614" 
d="M576 1010l-0.000976562 -123.001h-240v-887h-157v887h-172v123h172c2.66699 162 33.834 266.333 93.501 313s132.5 70 218.5 70c42 0 90 -4.66699 144 -14v-125c-34 8.66699 -66.333 13 -97 13c-68.667 0 -119.5 -15.167 -152.5 -45.5s-49.5 -87.166 -49.5 -170.499v-41
h240z" />
    <glyph glyph-name="g" unicode="g" horiz-adv-x="1006" 
d="M982 1168l0.000976562 -125.002c-72 0 -120.167 -8.33301 -144.5 -25s-40.5 -46.667 -48.5 -90c64.667 -74.667 97 -156 97 -244c0 -92 -35.167 -171 -105.5 -237s-164.833 -99 -283.5 -99c-26.667 0 -49.667 2 -69 6c-36.667 7.33301 -59.667 11 -69 11
c-18 0 -39.667 -8.83301 -65 -26.5s-38 -40.5 -38 -68.5c0 -40 18.333 -66 55 -78s123 -19.667 259 -23c115.333 -3.33301 200.5 -11.166 255.5 -23.499s101.5 -39.666 139.5 -81.999s57 -94.166 57 -155.499c0 -192.667 -169.333 -289 -508 -289
c-160.667 0 -277.834 24.167 -351.501 72.5s-110.5 112.833 -110.5 193.5c0 98 51.333 165.333 154 202c-66 43.333 -99 97.666 -99 162.999c0 78 46.667 137.667 140 179c-87.333 70.667 -131 159.667 -131 267c0 100 37.333 182 112 246s165.667 96 273 96
c76 0 145 -14.333 207 -43c10 66 33.167 111.667 69.5 137s91.5 38 165.5 38c7.33301 0 20.333 -0.666992 39 -2zM502.001 467.998c66.667 0 121.001 20.499 163.001 61.499s63 94.167 63 159.5c0 66.667 -21.833 121.167 -65.5 163.5s-96.5 63.5 -158.5 63.5
c-59.333 0 -112 -19.833 -158 -59.5s-69 -96.167 -69 -169.5c0 -65.333 20.667 -118.166 62 -158.499s95.666 -60.5 162.999 -60.5zM314.002 40.9971c-73.333 -32 -109.999 -78.335 -109.999 -139.002c0 -51.333 30.167 -91.166 90.5 -119.499s137.166 -42.5 230.499 -42.5
c86.667 0 166 12.167 238 36.5s108 65.5 108 123.5c0 31.333 -10.667 57 -32 77s-50.5 32.667 -87.5 38s-101.5 9.33301 -193.5 12c-110 2.66699 -191.333 7.33398 -244 14.001z" />
    <glyph glyph-name="h" unicode="h" horiz-adv-x="1106" 
d="M949 0h-156.999v613c0 72 -4.5 126 -13.5 162s-30.333 67.167 -64 93.5s-72.5 39.5 -116.5 39.5c-80.667 0 -148.167 -33 -202.5 -99s-81.5 -154.333 -81.5 -265v-544h-157v1365h157v-541c71.333 142.667 173.333 214 306 214c59.333 0 112.166 -11.667 158.499 -35
s81.833 -54 106.5 -92s41.5 -75.5 50.5 -112.5s13.5 -98.833 13.5 -185.5v-613z" />
    <glyph glyph-name="i" unicode="i" horiz-adv-x="470" 
d="M319 1365v-174h-169v174h169zM314 1010v-1010h-157v1010h157z" />
    <glyph glyph-name="j" unicode="j" horiz-adv-x="469" 
d="M322 1365v-174h-178v174h178zM314 1021v-1052c0 -118.667 -28.167 -201.334 -84.5 -248.001s-125.166 -70 -206.499 -70c-40 0 -89 7 -147 21v124c43.333 -10.667 81.666 -16 114.999 -16c59.333 0 101.833 14.167 127.5 42.5s38.5 77.166 38.5 146.499v1052h157z" />
    <glyph glyph-name="k" unicode="k" horiz-adv-x="1026" 
d="M991 0h-163l-295 564l-219 -252v-312h-157v1365h157v-874l469 519h168l-316 -355z" />
    <glyph glyph-name="l" unicode="l" horiz-adv-x="471" 
d="M314 0h-157v1365h157v-1365z" />
    <glyph glyph-name="m" unicode="m" horiz-adv-x="1667" 
d="M1510 0l-153.003 -0.000976562v628c0 64.667 -4.5 113.167 -13.5 145.5s-30.833 62 -65.5 89s-73.667 40.5 -117 40.5c-60 0 -117.833 -27.5 -173.5 -82.5s-83.5 -138.833 -83.5 -251.5v-569h-152v665c0 88.667 -21.167 151.334 -63.5 188.001s-86.833 55 -133.5 55
c-66.667 0 -124.667 -28.667 -174 -86s-74 -130 -74 -218v-604h-150v1010h135v-194c75.333 148 179 222 311 222c72.667 0 134.334 -23.667 185.001 -71s83.334 -104.333 98.001 -171c69.333 161.333 175.666 242 318.999 242c68.667 0 128.834 -19.667 180.501 -59
s85.334 -84.5 101.001 -135.5s23.5 -122.833 23.5 -215.5v-628z" />
    <glyph glyph-name="n" unicode="n" horiz-adv-x="1110" 
d="M953 0h-147v649c0 93.333 -20.333 159 -61 197s-90 57 -148 57c-80 0 -147.167 -32 -201.5 -96s-81.5 -148.333 -81.5 -253v-554h-157v1010h146v-186c82 142.667 188.333 214 319 214c75.333 0 139.5 -19.5 192.5 -58.5s89.333 -82.833 109 -131.5
s29.5 -136.667 29.5 -264v-584z" />
    <glyph glyph-name="o" unicode="o" horiz-adv-x="1064" 
d="M519 -27c-138.667 0 -246.832 51.333 -324.499 154s-116.5 230 -116.5 382c0 160.667 43.667 289 131 385s196 144 326 144c139.333 0 249.166 -50.5 329.499 -151.5s120.5 -227.167 120.5 -378.5c0 -157.333 -43.333 -285.833 -130 -385.5s-198.667 -149.5 -336 -149.5z
M531.002 102c80 0 147 33 201 99s81 168.667 81 308c0 140 -28.333 241.5 -85 304.5s-123 94.5 -199 94.5c-78 0 -144 -31.833 -198 -95.5s-81 -164.5 -81 -302.5c0 -146 27 -250.5 81 -313.5s120.667 -94.5 200 -94.5z" />
    <glyph glyph-name="p" unicode="p" horiz-adv-x="1094" 
d="M314 -341l-156.997 0.00195312v1351h141v-196c71.333 149.333 177.666 224 318.999 224c119.333 0 215.666 -49.833 288.999 -149.5s110 -225.834 110 -378.501c0 -164.667 -37.667 -295.334 -113 -392.001s-172 -145 -290 -145c-126.667 0 -226.334 60.333 -299.001 181
v-495zM314.003 651.002l0.000976562 -284c10 -76.667 42.333 -140 97 -190s111.667 -75 171 -75c68.667 0 129.5 30 182.5 90s79.5 163.667 79.5 311c0 127.333 -24 225.5 -72 294.5s-111.667 103.5 -191 103.5c-62.667 0 -118.834 -24.333 -168.501 -73
s-82.5 -107.667 -98.5 -177z" />
    <glyph glyph-name="q" unicode="q" horiz-adv-x="1097" 
d="M940 1024l0.000976562 -1365h-157v525c-66 -140.667 -167.667 -211 -305 -211c-114.667 0 -210 46.167 -286 138.5s-114 220.833 -114 385.5c0 156.667 38 286 114 388s176 153 300 153c58.667 0 112.167 -11.667 160.5 -35s97.166 -76 146.499 -158l62 179h79z
M783.001 584c-8.66699 118.667 -40.499 202.333 -95.499 251s-113.167 73 -174.5 73c-78 0 -141.333 -37 -190 -111s-73 -171.667 -73 -293c0 -118.667 23.167 -214.5 69.5 -287.5s109.833 -109.5 190.5 -109.5c81.333 0 147.166 34.833 197.499 104.5
s75.5 149.167 75.5 238.5v134z" />
    <glyph glyph-name="r" unicode="r" horiz-adv-x="675" 
d="M314 0h-157v1010h138v-236c48.667 111.333 97.5 183.5 146.5 216.5s99.167 49.5 150.5 49.5c16 0 36.667 -1.33301 62 -4v-150h-32c-86.667 0 -158.667 -32.333 -216 -97s-88 -149.667 -92 -255v-534z" />
    <glyph glyph-name="s" unicode="s" horiz-adv-x="950" 
d="M21 262l150.002 31c33.333 -127.333 138.666 -191 315.999 -191c65.333 0 120.666 14.667 165.999 44s68 70.666 68 123.999c0 79.333 -57.667 129.666 -173 150.999l-213 40c-83.333 16 -149.666 47.333 -198.999 94s-74 108.334 -74 185.001
c0 84.667 33.667 155.5 101 212.5s158 85.5 272 85.5c219.333 0 354.666 -85.667 405.999 -257l-144 -31c-41.333 105.333 -126.333 158 -255 158c-64 0 -116.5 -13.167 -157.5 -39.5s-61.5 -63.166 -61.5 -110.499c0 -74.667 52.333 -121.667 157 -141l197 -35
c206 -37.333 309 -137 309 -299c0 -92.667 -38.333 -167.5 -115 -224.5s-178.667 -85.5 -306 -85.5c-239.333 0 -387.333 96.333 -444 289z" />
    <glyph glyph-name="t" unicode="t" horiz-adv-x="630" 
d="M615 108v-124c-55.333 -7.33301 -103.333 -11 -144 -11c-195.333 0 -293 102 -293 306v608h-179v123h179l7 254l146 14v-268h226v-123h-226v-634c0 -104 54 -156 162 -156c36 0 76.667 3.66699 122 11z" />
    <glyph glyph-name="u" unicode="u" horiz-adv-x="1109" 
d="M952 0h-141v193c-72 -146.667 -179.333 -220 -322 -220c-103.333 0 -184.5 34 -243.5 102s-88.5 164.667 -88.5 290v645h157v-645c0 -100 20.833 -168.833 62.5 -206.5s87.5 -56.5 137.5 -56.5c50.667 0 96.5 14.333 137.5 43s75.167 69.5 102.5 122.5
s41 110.833 41 173.5v569h157v-1010z" />
    <glyph glyph-name="v" unicode="v" horiz-adv-x="922" 
d="M897 1010l-349 -1010h-163l-361 1010h174l281 -821l278 821h140z" />
    <glyph glyph-name="w" unicode="w" horiz-adv-x="1360" 
d="M1321 1010l-291 -1010h-127l-226 750l-207 -750h-129l-303 1010h158l219 -753l210 753h115l227 -756l227 756h127z" />
    <glyph glyph-name="x" unicode="x" horiz-adv-x="868" 
d="M861 0h-181l-257 410l-263 -410h-153l340 524l-307 486h181l216 -345l220 345h151l-294 -452z" />
    <glyph glyph-name="y" unicode="y" horiz-adv-x="850" 
d="M850 1010l-404.999 -1128c-58.667 -162.667 -152.334 -244 -281.001 -244c-40.667 0 -85.667 7 -135 21v123c40.667 -9.33301 75.667 -14 105 -14c50 0 91.833 14.333 125.5 43s67.167 98 100.5 208l-349 991h160l270 -759l277 759h132z" />
    <glyph glyph-name="z" unicode="z" horiz-adv-x="867" 
d="M812 121v-121h-744v121l537 766h-496v123h703v-85l-556 -804h556z" />
    <glyph glyph-name="braceleft" unicode="{" horiz-adv-x="601" 
d="M246 511c84 -36.667 126.004 -113.666 126.004 -230.999v-330c0 -71.333 12.5 -119.833 37.5 -145.5s75.167 -38.834 150.5 -39.501v-106l-35 -1c-106.667 0 -181.667 22.167 -225 66.5s-65 119.5 -65 225.5v330c0 62 -9.83301 105.833 -29.5 131.5
s-48.834 43.5 -87.501 53.5v99c38 9.33301 67 26.833 87 52.5s30 67.5 30 125.5v355c0 98 23.167 167.333 69.5 208s117.166 61 212.499 61c9.33301 0 23.666 -0.333008 42.999 -1v-106c-75.333 -2 -125.5 -15.5 -150.5 -40.5s-37.5 -70.5 -37.5 -136.5v-346
c0 -44.667 -6.83301 -87.167 -20.5 -127.5s-48.834 -72.833 -105.501 -97.5z" />
    <glyph glyph-name="bar" unicode="|" horiz-adv-x="1024" 
d="M436 1365h153v-1706h-153v1706z" />
    <glyph glyph-name="braceright" unicode="}" horiz-adv-x="601" 
d="M355 513c-84 36.667 -126.001 113.668 -126.001 231.001v330c0 71.333 -12.5 119.833 -37.5 145.5s-75.167 38.834 -150.5 39.501v106l34 1c112 0 188.333 -22.833 229 -68.5s61 -120.167 61 -223.5v-330c0 -58.667 9 -101.334 27 -128.001s48.333 -45.667 91 -57v-99
c-37.333 -9.33301 -66.333 -26.833 -87 -52.5s-31 -67.5 -31 -125.5v-355c0 -86.667 -20.167 -153.167 -60.5 -199.5s-113.833 -69.5 -220.5 -69.5c-9.33301 0 -23.666 0.333008 -42.999 1v106c74.667 2 124.667 15.5 150 40.5s38 70.5 38 136.5v346
c0 47.333 7 90.666 21 129.999s49 71 105 95z" />
    <glyph glyph-name="asciitilde" unicode="~" horiz-adv-x="1201" 
d="M108 585c71.333 158.667 165.001 238 281.001 238c56 0 132.333 -23.333 229 -70c89.333 -42.667 155.666 -64 198.999 -64c70.667 0 132 45.667 184 137l92 -54c-76 -154 -169.333 -231 -280 -231c-56 0 -141.333 27 -256 81c-74.667 34.667 -136 52 -184 52
c-64 0 -122.333 -49 -175 -147z" />
    <glyph glyph-name="uni00A0" unicode="&#xa0;" horiz-adv-x="512" 
 />
    <glyph glyph-name="exclamdown" unicode="&#xa1;" horiz-adv-x="550" 
d="M171 1010h208v-211h-208v211zM236 684h83l74 -1025h-236z" />
    <glyph glyph-name="cent" unicode="&#xa2;" horiz-adv-x="1201" 
d="M667 -57l-112 0.000976562v283c-92 13.333 -164.833 47 -218.5 101s-90.334 113.833 -110.001 179.5s-29.5 131.167 -29.5 196.5c0 113.333 29 215.5 87 306.5s148.333 145.167 271 162.5v251h112v-251c66.667 -4.66699 132.167 -32.334 196.5 -83.001
s106.5 -126.334 126.5 -227.001l-136 -26c-12.667 60.667 -36.667 111.5 -72 152.5s-73.666 63.167 -114.999 66.5v-706c100 23.333 162.333 95 187 215l136 -22c-41.333 -185.333 -149 -290.666 -323 -315.999v-283zM555 1051c-133.333 -29.333 -200 -149 -200 -359
c0 -190.667 66.667 -305 200 -343v702z" />
    <glyph glyph-name="sterling" unicode="&#xa3;" horiz-adv-x="1201" 
d="M1049 306l130.002 -85c-32.667 -70.667 -82.167 -125.167 -148.5 -163.5s-134.833 -57.5 -205.5 -57.5h-830v150c103.333 2 176.5 9.5 219.5 22.5s83.333 43.833 121 92.5s56.5 108 56.5 178c0 48.667 -6.33301 117.334 -19 206.001h-218v117h207
c-12.667 71.333 -19 134.666 -19 189.999c0 132.667 35.667 238.667 107 318s159.666 119 264.999 119c132 0 241.333 -62.333 328 -187l-111 -86c-68.667 90.667 -138.334 136 -209.001 136c-54.667 0 -102 -21.833 -142 -65.5s-60 -101.834 -60 -174.501
c0 -52 7 -135.333 21 -250h293v-117h-279c4 -56.667 6 -103.667 6 -141c0 -159.333 -53 -278.666 -159 -357.999h318c99.333 0 171.5 13 216.5 39s82.167 65 111.5 117z" />
    <glyph glyph-name="currency" unicode="&#xa4;" horiz-adv-x="1365" 
d="M104 256l194 196c-68 92.667 -102 189 -102 289c0 97.333 34 194 102 290l-198 196l92 91l198 -195c99.333 68.667 198.333 103 297 103c94 0 190 -34.333 288 -103l196 195l91 -91l-194 -196c68 -100.667 102 -197.667 102 -291c0 -95.333 -34 -191.333 -102 -288
l198 -196l-91 -92l-197 197c-94 -68.667 -192.333 -103 -295 -103c-92 0 -189.667 33.667 -293 101l-195 -195zM1029 741c0 95.333 -33.835 177 -101.502 245s-149.167 102 -244.5 102s-176.666 -34.167 -243.999 -102.5s-101 -149.5 -101 -243.5
c0 -96 33.833 -177.833 101.5 -245.5s148.834 -101.5 243.501 -101.5s176 33.833 244 101.5s102 149.167 102 244.5z" />
    <glyph glyph-name="yen" unicode="&#xa5;" horiz-adv-x="1202" 
d="M843 847h253v-118h-321l-91 -157h412v-117h-412v-455h-166v455h-412v117h412l-90 157h-322v118h254l-301 518h201l362 -627l365 627h157z" />
    <glyph glyph-name="brokenbar" unicode="&#xa6;" horiz-adv-x="1024" 
d="M436 1365h153v-682h-153v682zM436 314h153v-655h-153v655z" />
    <glyph glyph-name="section" unicode="&#xa7;" horiz-adv-x="1201" 
d="M134 -72l176 25.999c60.667 -128 162.334 -192 305.001 -192c77.333 0 144.666 20 201.999 60s86 92.333 86 157c0 92 -69.667 156.667 -209 194l-207 55c-116.667 31.333 -197.667 70.666 -243 117.999s-68 106.333 -68 177c0 115.333 64.333 213.666 193 294.999
c-109.333 60 -164 148.667 -164 266c0 92 35 166.5 105 223.5s163.333 85.5 280 85.5c105.333 0 194.833 -23.833 268.5 -71.5s122.5 -112.167 146.5 -193.5l-153 -18c-44.667 112 -133.667 168 -267 168c-70.667 0 -126.167 -16.833 -166.5 -50.5
s-60.5 -75.167 -60.5 -124.5c0 -54 21.667 -97.667 65 -131s103 -61 179 -83l186 -52c81.333 -22.667 143.166 -59.167 185.499 -109.5s63.5 -106.166 63.5 -167.499c0 -97.333 -54.333 -189.666 -163 -276.999c128.667 -61.333 193 -154.666 193 -279.999
c0 -102.667 -43 -190 -129 -262s-196.667 -108 -332 -108c-235.333 0 -392.666 98.333 -471.999 295zM490 768.999c-104 -53.333 -156 -119.667 -156 -199c0 -87.333 72.333 -151.333 217 -192l197 -56c49.333 24 85.333 54.667 108 92s34 70.666 34 99.999
c0 34.667 -15.167 69.834 -45.5 105.501s-74.5 62.167 -132.5 79.5z" />
    <glyph glyph-name="dieresis" unicode="&#xa8;" horiz-adv-x="1024" 
d="M777 1304c0 -28.667 -10.5 -53.001 -31.5 -73.001s-45.833 -30 -74.5 -30s-53.5 10 -74.5 30s-31.5 44 -31.5 72c0 28.667 10.5 52.834 31.5 72.501s45.5 29.5 73.5 29.5c29.333 0 54.5 -9.83301 75.5 -29.5s31.5 -43.5 31.5 -71.5zM455 1303
c0 -28 -10.5 -52.001 -31.5 -72.001s-45.5 -30 -73.5 -30s-52.167 10 -72.5 30s-30.5 43.667 -30.5 71c0 28.667 10.167 52.834 30.5 72.501s43.5 29.5 69.5 29.5c32 0 58 -10 78 -30s30 -43.667 30 -71z" />
    <glyph glyph-name="copyright" unicode="&#xa9;" horiz-adv-x="1584" 
d="M1498 687c0 -194 -69.167 -360.167 -207.5 -498.5s-304.5 -207.5 -498.5 -207.5s-360.167 69.167 -498.5 207.5s-207.5 304.5 -207.5 498.5c0 193.333 69.167 359.333 207.5 498s304.5 208 498.5 208s360.167 -69.333 498.5 -208s207.5 -304.667 207.5 -498zM1397 687
c0 166.667 -59.167 309.167 -177.5 427.5s-260.833 177.5 -427.5 177.5c-166 0 -308.333 -59.333 -427 -178s-178 -261 -178 -427c0 -166.667 59 -309.167 177 -427.5s260.667 -177.5 428 -177.5c166 0 308.333 59.333 427 178s178 261 178 427zM989 564l117.001 -25.001
c-47.333 -185.333 -156.333 -278 -327 -278c-114.667 0 -202.667 42.667 -264 128s-92 187.333 -92 306c0 126.667 33.167 227.834 99.5 303.501s154.5 113.5 264.5 113.5c170 0 276.333 -90 319 -270l-121 -22c-34.667 129.333 -102 194 -202 194
c-68.667 0 -123 -29.167 -163 -87.5s-60 -140.5 -60 -246.5c0 -96 20.167 -173.333 60.5 -232s94.166 -88 161.499 -88c108 0 177 68 207 204z" />
    <glyph glyph-name="ordfeminine" unicode="&#xaa;" horiz-adv-x="715" 
d="M624 767l-119.999 0.00195312c-5.33301 25.333 -9 52.666 -11 81.999c-44 -65.333 -114.333 -98 -211 -98c-74.667 0 -131.667 18.5 -171 55.5s-59 80.833 -59 131.5c0 62 28.333 113.167 85 153.5s151.667 60.5 285 60.5c14 0 37.667 -0.666992 71 -2
c0 56 -9.66699 96.167 -29 120.5s-59.333 36.5 -120 36.5c-95.333 0 -150 -36.333 -164 -109l-112 18c19.333 118 115.666 177 288.999 177c91.333 0 156 -19 194 -57s57 -102.333 57 -193v-254c0 -44.667 5.33301 -85.334 16 -122.001zM493.001 1065
c-36 2 -62.999 2.99902 -80.999 2.99902c-156 0 -234 -44 -234 -132c0 -66.667 41.667 -100 125 -100c55.333 0 101.166 19.667 137.499 59s54.5 85.333 54.5 138c0 8.66699 -0.666992 19.334 -2 32.001z" />
    <glyph glyph-name="guillemotleft" unicode="&#xab;" horiz-adv-x="704" 
d="M254 240l-172 293l172 282h90l-106 -282l106 -293h-90zM517 240l-173 293l173 282h92l-107 -282l107 -293h-92z" />
    <glyph glyph-name="logicalnot" unicode="&#xac;" horiz-adv-x="1201" 
d="M1044 0h-152v408h-735v138h887v-546z" />
    <glyph glyph-name="uni00AD" unicode="&#xad;" horiz-adv-x="512" 
d="M482 573v-122h-452v122h452z" />
    <glyph glyph-name="registered" unicode="&#xae;" horiz-adv-x="1584" 
d="M1498 687c0 -194 -69.167 -360.167 -207.5 -498.5s-304.5 -207.5 -498.5 -207.5s-360.167 69.167 -498.5 207.5s-207.5 304.5 -207.5 498.5c0 193.333 69.167 359.333 207.5 498s304.5 208 498.5 208s360.167 -69.333 498.5 -208s207.5 -304.667 207.5 -498zM1397 687
c0 166.667 -59.167 309.167 -177.5 427.5s-260.833 177.5 -427.5 177.5c-166 0 -308.333 -59.333 -427 -178s-178 -261 -178 -427c0 -166.667 59 -309.167 177 -427.5s260.667 -177.5 428 -177.5c166 0 308.333 59.333 427 178s178 261 178 427zM1124 277h-133.999l-157 349
h-225v-349h-121v819h346c93.333 0 163.166 -24 209.499 -72s69.5 -101.333 69.5 -160c0 -43.333 -12.667 -85 -38 -125s-65 -68.333 -119 -85zM608.001 722l212 -0.000976562c55.333 0 96.5 13.833 123.5 41.5s40.5 61.834 40.5 102.501c0 42 -14.333 73.833 -43 95.5
s-64.667 32.5 -108 32.5h-225v-272z" />
    <glyph glyph-name="uni00AF" unicode="&#xaf;" horiz-adv-x="1024" 
d="M0 1768h1024v-137h-1024v137z" />
    <glyph glyph-name="degree" unicode="&#xb0;" horiz-adv-x="1201" 
d="M330 1122c0 74 26.5 137.667 79.5 191s116.833 80 191.5 80s138.5 -26.5 191.5 -79.5s79.5 -116.833 79.5 -191.5c0 -74 -26.667 -137.5 -80 -190.5s-118.333 -79.5 -195 -79.5c-72 0 -134.5 26.5 -187.5 79.5s-79.5 116.5 -79.5 190.5zM446 1123
c0 -43.333 15.167 -80 45.5 -110s65.166 -45 104.499 -45c45.333 0 83.333 15.167 114 45.5s46 66.833 46 109.5s-15.167 79.167 -45.5 109.5s-67.166 45.5 -110.499 45.5c-42 0 -78.167 -15.167 -108.5 -45.5s-45.5 -66.833 -45.5 -109.5z" />
    <glyph glyph-name="plusminus" unicode="&#xb1;" horiz-adv-x="1201" 
d="M123 753h403v421h150v-421h403v-138h-403v-421h-150v421h-403v138zM123 98h956v-138h-956v138z" />
    <glyph glyph-name="twosuperior" unicode="&#xb2;" horiz-adv-x="792" 
d="M698 643l0.00292969 -97h-617v94c239.333 170 381.5 281.333 426.5 334s67.5 104.667 67.5 156c0 47.333 -18.5 85.5 -55.5 114.5s-79.5 43.5 -127.5 43.5c-50.667 0 -95.334 -16.333 -134.001 -49s-60.334 -78.667 -65.001 -138l-112 33
c42.667 165.333 146.667 248 312 248c90 0 162.833 -24.5 218.5 -73.5s83.5 -106.5 83.5 -172.5c0 -87.333 -41.333 -168.833 -124 -244.5s-191.334 -158.5 -326.001 -248.5h453z" />
    <glyph glyph-name="threesuperior" unicode="&#xb3;" horiz-adv-x="792" 
d="M263 926v93.002h104c126.667 0 190 44.667 190 134c0 41.333 -16.333 74 -49 98s-73.667 36 -123 36c-98 0 -162.333 -43.667 -193 -131l-109 29c56 131.333 160 197 312 197c82.667 0 150.5 -21.333 203.5 -64s79.5 -95.334 79.5 -158.001c0 -89.333 -46 -150 -138 -182
c49.333 -10.667 90.166 -34 122.499 -70s48.5 -80 48.5 -132c0 -68.667 -29.333 -126.667 -88 -174s-139 -71 -241 -71c-165.333 0 -275.333 69.333 -330 208l112 35c28.667 -98 101 -147 217 -147c72.667 0 125.334 14.667 158.001 44s49 64.666 49 105.999
c0 44.667 -19.5 80.667 -58.5 108s-93.167 41 -162.5 41h-104z" />
    <glyph glyph-name="acute" unicode="&#xb4;" horiz-adv-x="1024" 
d="M836 1356l-414 -189l-43 81l396 228z" />
    <glyph glyph-name="uni00B5" unicode="&#xb5;" horiz-adv-x="1095" 
d="M150 -341v1351h157v-566c0 -74 7 -132 21 -174s39.833 -78.833 77.5 -110.5s83.167 -47.5 136.5 -47.5c164 0 246 114.667 246 344v554h157v-1010h-143v158c-59.333 -123.333 -144.333 -185 -255 -185c-106 0 -186 52.667 -240 158v-472h-157z" />
    <glyph glyph-name="paragraph" unicode="&#xb6;" horiz-adv-x="1201" 
d="M1086 1365v-95h-137v-1611h-100v1611h-98v-1611h-99v1066h-151c-120.667 0 -207.167 10 -259.5 30s-93.333 53.333 -123 100s-44.5 103 -44.5 169c0 72.667 15.167 136 45.5 190s70.333 92.667 120 116s138.167 35 265.5 35h581zM652 821v449h-112
c-76 0 -133.5 -5.33301 -172.5 -16s-70.167 -33.167 -93.5 -67.5s-35 -82.166 -35 -143.499c0 -66.667 18 -120.334 54 -161.001s108.333 -61 217 -61h142z" />
    <glyph glyph-name="uni00B7" unicode="&#xb7;" horiz-adv-x="223" 
d="M223 631v-224h-223v224h223z" />
    <glyph glyph-name="cedilla" unicode="&#xb8;" horiz-adv-x="1024" 
d="M438 0h66l-26 -93c68 0 118 -12.667 150 -38s48 -57 48 -95c0 -37.333 -14.833 -71 -44.5 -101s-79.167 -45 -148.5 -45c-68 0 -126.667 15 -176 45l24 64c48.667 -23.333 96 -35 142 -35c32 0 57 7 75 21s27 31 27 51c0 46 -40.333 69 -121 69
c-19.333 0 -42.333 -1.66699 -69 -5z" />
    <glyph glyph-name="onesuperior" unicode="&#xb9;" horiz-adv-x="792" 
d="M711 635v-89h-550v89h225v599c-73.333 -72 -150.666 -128.667 -231.999 -170v117c111.333 55.333 198.666 122.333 261.999 201h86v-747h209z" />
    <glyph glyph-name="ordmasculine" unicode="&#xba;" horiz-adv-x="704" 
d="M343 751c-83.333 0 -151.666 29.167 -204.999 87.5s-80 136.833 -80 235.5c0 96.667 28.333 174 85 232s127 87 211 87c85.333 0 155.166 -29 209.499 -87s81.5 -135.667 81.5 -233c0 -94.667 -28 -172 -84 -232s-128.667 -90 -218 -90zM351 841
c47.333 0 86.667 19 118 57s47 96.667 47 176s-16.333 137.333 -49 174s-71.667 55 -117 55c-46 0 -84.667 -18.5 -116 -55.5s-47 -94.833 -47 -173.5s15 -137.167 45 -175.5s69.667 -57.5 119 -57.5z" />
    <glyph glyph-name="guillemotright" unicode="&#xbb;" horiz-adv-x="704" 
d="M450 815l172 -292l-172 -283h-89l105 283l-105 292h89zM187 815l174 -292l-174 -283h-91l107 283l-107 292h91z" />
    <glyph glyph-name="onequarter" unicode="&#xbc;" horiz-adv-x="1802" 
d="M659 635v-89h-550v89h225v599c-73.333 -72 -150.666 -128.667 -231.999 -170v117c111.333 55.333 198.666 122.333 261.999 201h86v-747h209zM537 0h-126l827 1365h124zM1583 0h-115v191h-418v77l391 568h142v-551h138v-94h-138v-191zM1468 285l0.000976562 435.999
c-10.667 -19.333 -21.334 -36.666 -32.001 -51.999l-256 -384h288z" />
    <glyph glyph-name="onehalf" unicode="&#xbd;" horiz-adv-x="1802" 
d="M645 635v-89h-550v89h225v599c-73.333 -72 -150.666 -128.667 -231.999 -170v117c111.333 55.333 198.666 122.333 261.999 201h86v-747h209zM523 0h-126l827 1365h124zM1718 97l0.000976562 -97.001h-616v94c240 171.333 382.333 283 427 335s67 103.667 67 155
c0 47.333 -18.5 85.333 -55.5 114s-79.5 43 -127.5 43c-50.667 0 -95.334 -16 -134.001 -48s-60.334 -78 -65.001 -138l-112 32c42 166 146 249 312 249c90 0 162.833 -24.5 218.5 -73.5s83.5 -106.833 83.5 -173.5c0 -64 -27.167 -130.167 -81.5 -198.5
s-177.166 -166.166 -368.499 -293.499h452z" />
    <glyph glyph-name="threequarters" unicode="&#xbe;" horiz-adv-x="1802" 
d="M252 926v93.002h104c126.667 0 190 44.667 190 134c0 41.333 -16.333 74 -49 98s-73.667 36 -123 36c-98 0 -162.333 -43.667 -193 -131l-109 29c56 131.333 160 197 312 197c82.667 0 150.5 -21.333 203.5 -64s79.5 -95.334 79.5 -158.001c0 -89.333 -46 -150 -138 -182
c49.333 -10.667 90.166 -34 122.499 -70s48.5 -80 48.5 -132c0 -68.667 -29.333 -126.667 -88 -174s-139 -71 -241 -71c-165.333 0 -275.333 69.333 -330 208l112 35c28.667 -98 101 -147 217 -147c72.667 0 125.334 14.667 158.001 44s49 64.666 49 105.999
c0 44.667 -19.5 80.667 -58.5 108s-93.167 41 -162.5 41h-104zM606 0.00195312h-126l827 1365h125zM1612 0.00195312h-116v191h-418v77l391 568h143v-551h138v-94h-138v-191zM1496 285.002l0.000976562 435.999c-10.667 -19.333 -21.334 -36.666 -32.001 -51.999l-256 -384
h288z" />
    <glyph glyph-name="questiondown" unicode="&#xbf;" horiz-adv-x="1035" 
d="M465 814v196h202v-196h-202zM499 684l143 -0.00195312c0 -104 -1.16699 -168.667 -3.5 -194s-9.66602 -51.166 -21.999 -77.499s-25.833 -46.5 -40.5 -60.5s-50 -36.667 -106 -68c-60.667 -34 -102.5 -60.5 -125.5 -79.5s-42.833 -45.167 -59.5 -78.5
s-25 -70.333 -25 -111c0 -76 27.5 -135.667 82.5 -179s119.5 -65 193.5 -65c169.333 0 272.666 98.667 309.999 296l149 -33c-50 -268.667 -206 -403 -468 -403c-136 0 -244.167 36.833 -324.5 110.5s-120.5 166.834 -120.5 279.501c0 148.667 85 267.334 255 356.001
c74.667 39.333 120.5 70.166 137.5 92.499s25.5 56.833 25.5 103.5z" />
    <glyph glyph-name="Agrave" unicode="&#xc0;" horiz-adv-x="1097" 
d="M1090 0h-175l-138 399h-505l-122 -399h-143l443 1365h195zM741 527l-210 656l-212 -656h422zM221 1677l62 120l395 -228l-42 -81z" />
    <glyph glyph-name="Aacute" unicode="&#xc1;" horiz-adv-x="1097" 
d="M1090 0h-175l-138 399h-505l-122 -399h-143l443 1365h195zM741 527l-210 656l-212 -656h422zM873 1677l-414 -189l-43 81l396 228z" />
    <glyph glyph-name="Acircumflex" unicode="&#xc2;" horiz-adv-x="1097" 
d="M1090 0h-175l-138 399h-505l-122 -399h-143l443 1365h195zM741 527l-210 656l-212 -656h422zM880 1515l-141 -20l-191 134l-184 -134l-147 20l334 260z" />
    <glyph glyph-name="Atilde" unicode="&#xc3;" horiz-adv-x="1097" 
d="M1090 0h-175l-138 399h-505l-122 -399h-143l443 1365h195zM741 527l-210 656l-212 -656h422zM814 1701l76.999 -72c-70.667 -67.333 -138 -101 -202 -101c-32.667 0 -75.667 11.667 -129 35c-58 25.333 -102.667 38 -134 38c-54 0 -99 -22 -135 -66l-84 58
c58.667 85.333 133.334 128 224.001 128c30.667 0 73.334 -11.333 128.001 -34c59.333 -24.667 102 -37 128 -37c43.333 0 85.666 17 126.999 51z" />
    <glyph glyph-name="Adieresis" unicode="&#xc4;" horiz-adv-x="1097" 
d="M1090 0h-175l-138 399h-505l-122 -399h-143l443 1365h195zM741 527l-210 656l-212 -656h422zM814 1625c0 -28.667 -10.5 -53.001 -31.5 -73.001s-45.833 -30 -74.5 -30s-53.5 10 -74.5 30s-31.5 44 -31.5 72c0 28.667 10.5 52.834 31.5 72.501s45.5 29.5 73.5 29.5
c29.333 0 54.5 -9.83301 75.5 -29.5s31.5 -43.5 31.5 -71.5zM492 1624c0 -28 -10.5 -52.001 -31.5 -72.001s-45.5 -30 -73.5 -30s-52.167 10 -72.5 30s-30.5 43.667 -30.5 71c0 28.667 10.167 52.834 30.5 72.501s43.5 29.5 69.5 29.5c32 0 58 -10 78 -30s30 -43.667 30 -71
z" />
    <glyph glyph-name="Aring" unicode="&#xc5;" horiz-adv-x="1097" 
d="M729 1635c0 -49.333 -17.5 -91.668 -52.5 -127.001s-76.833 -53 -125.5 -53c-50 0 -92.833 17.667 -128.5 53s-53.5 78 -53.5 128c0 48.667 17.667 90.834 53 126.501s79.333 53.5 132 53.5c46.667 0 87.5 -17.833 122.5 -53.5s52.5 -78.167 52.5 -127.5zM640 1634
c0 24.667 -8.66895 46.001 -26.002 64.001s-38.333 27 -63 27c-25.333 0 -47.166 -8.83301 -65.499 -26.5s-27.5 -38.834 -27.5 -63.501c0 -25.333 9.16699 -47 27.5 -65s39.833 -27 64.5 -27s45.834 8.83301 63.501 26.5s26.5 39.167 26.5 64.5zM1090 -0.000976562h-175
l-138 399h-505l-122 -399h-143l443 1365h195zM740.998 526.999l-210 656l-212 -656h422z" />
    <glyph glyph-name="AE" unicode="&#xc6;" horiz-adv-x="1856" 
d="M1788 150v-150h-939v422h-459l-252 -422h-165l813 1365h976v-150h-742v-434h600v-139h-600v-492h768zM849 554v662l-385 -662h385z" />
    <glyph glyph-name="Ccedilla" unicode="&#xc7;" horiz-adv-x="1186" 
d="M648 -27l-25.001 -79.998c16 1.33301 28.333 2 37 2c45.333 0 86.833 -13.167 124.5 -39.5s56.5 -63.5 56.5 -111.5c0 -45.333 -19 -82.5 -57 -111.5s-91.333 -43.5 -160 -43.5c-70 0 -134.333 16.667 -193 50l26 72c55.333 -26.667 106.666 -40 153.999 -40
c76.667 0 115 25 115 75c0 53.333 -43 80 -129 80c-18.667 0 -45.667 -1.66699 -81 -5l52 156c-149.333 17.333 -267.166 94.666 -353.499 231.999s-129.5 299.666 -129.5 486.999c0 210 51.333 378.667 154 506s240.334 191 413.001 191c256 0 420.333 -146.333 493 -439
l-161 -32c-58.667 217.333 -169.667 326 -333 326c-120.667 0 -214.167 -50.5 -280.5 -151.5s-99.5 -242.833 -99.5 -425.5c0 -167.333 34 -301.5 102 -402.5s158 -151.5 270 -151.5c174 0 289.333 114 346 342l156 -35c-74 -300.667 -239.667 -451 -497 -451z" />
    <glyph glyph-name="Egrave" unicode="&#xc8;" horiz-adv-x="1122" 
d="M1054 150v-150h-883v1365h864v-150h-693v-434h550v-139h-550v-492h712zM323 1677l62 120l395 -228l-42 -81z" />
    <glyph glyph-name="Eacute" unicode="&#xc9;" horiz-adv-x="1122" 
d="M1054 150v-150h-883v1365h864v-150h-693v-434h550v-139h-550v-492h712zM909 1677l-414 -189l-43 81l396 228z" />
    <glyph glyph-name="Ecircumflex" unicode="&#xca;" horiz-adv-x="1122" 
d="M1054 150v-150h-883v1365h864v-150h-693v-434h550v-139h-550v-492h712zM937 1515l-141 -20l-191 134l-184 -134l-147 20l334 260z" />
    <glyph glyph-name="Edieresis" unicode="&#xcb;" horiz-adv-x="1122" 
d="M1054 150v-150h-883v1365h864v-150h-693v-434h550v-139h-550v-492h712zM871 1625c0 -28.667 -10.5 -53.001 -31.5 -73.001s-45.833 -30 -74.5 -30s-53.5 10 -74.5 30s-31.5 44 -31.5 72c0 28.667 10.5 52.834 31.5 72.501s45.5 29.5 73.5 29.5
c29.333 0 54.5 -9.83301 75.5 -29.5s31.5 -43.5 31.5 -71.5zM549 1624c0 -28 -10.5 -52.001 -31.5 -72.001s-45.5 -30 -73.5 -30s-52.167 10 -72.5 30s-30.5 43.667 -30.5 71c0 28.667 10.167 52.834 30.5 72.501s43.5 29.5 69.5 29.5c32 0 58 -10 78 -30s30 -43.667 30 -71
z" />
    <glyph glyph-name="Igrave" unicode="&#xcc;" horiz-adv-x="512" 
d="M362 0h-171v1365h171v-1365zM-27 1677l62 120l395 -228l-42 -81z" />
    <glyph glyph-name="Iacute" unicode="&#xcd;" horiz-adv-x="512" 
d="M362 0h-171v1365h171v-1365zM580 1677l-414 -189l-43 81l396 228z" />
    <glyph glyph-name="Icircumflex" unicode="&#xce;" horiz-adv-x="512" 
d="M342 0h-171v1365h171v-1365zM588 1515l-141 -20l-191 134l-184 -134l-147 20l334 260z" />
    <glyph glyph-name="Idieresis" unicode="&#xcf;" horiz-adv-x="512" 
d="M342 0h-171v1365h171v-1365zM543 1625c0 -28.667 -10.5 -53.001 -31.5 -73.001s-45.833 -30 -74.5 -30s-53.5 10 -74.5 30s-31.5 44 -31.5 72c0 28.667 10.5 52.834 31.5 72.501s45.5 29.5 73.5 29.5c29.333 0 54.5 -9.83301 75.5 -29.5s31.5 -43.5 31.5 -71.5zM221 1624
c0 -28 -10.5 -52.001 -31.5 -72.001s-45.5 -30 -73.5 -30s-52.167 10 -72.5 30s-30.5 43.667 -30.5 71c0 28.667 10.167 52.834 30.5 72.501s43.5 29.5 69.5 29.5c32 0 58 -10 78 -30s30 -43.667 30 -71z" />
    <glyph glyph-name="Eth" unicode="&#xd0;" horiz-adv-x="1325" 
d="M35 655l-0.000976562 137h137v573h456c192.667 0 342.667 -65.667 450 -197s161 -291.666 161 -480.999c0 -192.667 -52.167 -355.334 -156.5 -488.001s-237.166 -199 -398.499 -199h-512v655h-137zM341.999 792h326v-137h-326v-510h276c146.667 0 258 50.833 334 152.5
s114 235.167 114 400.5c0 133.333 -36.333 254 -109 362s-185.667 162 -339 162h-276v-430z" />
    <glyph glyph-name="Ntilde" unicode="&#xd1;" horiz-adv-x="1346" 
d="M1176 0h-166l-706 1190l2 -90c2 -34 3 -62.667 3 -86v-1014h-138v1365h214l660 -1113l-2 95c-1.33301 37.333 -2 70.333 -2 99v919h135v-1365zM945 1701l76.999 -72c-70.667 -67.333 -138 -101 -202 -101c-32.667 0 -75.667 11.667 -129 35
c-58 25.333 -102.667 38 -134 38c-54 0 -99 -22 -135 -66l-84 58c58.667 85.333 133.334 128 224.001 128c30.667 0 73.334 -11.333 128.001 -34c59.333 -24.667 102 -37 128 -37c43.333 0 85.666 17 126.999 51z" />
    <glyph glyph-name="Ograve" unicode="&#xd2;" horiz-adv-x="1292" 
d="M642 -27c-175.333 0 -312 68.165 -410 204.498s-147 303.5 -147 501.5c0 206.667 51.333 377.334 154 512.001s238.667 202 408 202c168.667 0 304 -66.167 406 -198.5s153 -299.166 153 -500.499c0 -193.333 -49.5 -361.833 -148.5 -505.5s-237.5 -215.5 -415.5 -215.5z
M646 111.998c119.333 0 212.668 54.333 280.001 163s101 248.667 101 420c0 176 -34.833 313 -104.5 411s-162.167 147 -277.5 147c-116.667 0 -209.334 -53 -278.001 -159s-103 -244.667 -103 -416c0 -167.333 34.667 -303.5 104 -408.5s162 -157.5 278 -157.5z
M348.002 1677l62 120l395 -228l-42 -81z" />
    <glyph glyph-name="Oacute" unicode="&#xd3;" horiz-adv-x="1292" 
d="M642 -27c-175.333 0 -312 68.165 -410 204.498s-147 303.5 -147 501.5c0 206.667 51.333 377.334 154 512.001s238.667 202 408 202c168.667 0 304 -66.167 406 -198.5s153 -299.166 153 -500.499c0 -193.333 -49.5 -361.833 -148.5 -505.5s-237.5 -215.5 -415.5 -215.5z
M646 111.998c119.333 0 212.668 54.333 280.001 163s101 248.667 101 420c0 176 -34.833 313 -104.5 411s-162.167 147 -277.5 147c-116.667 0 -209.334 -53 -278.001 -159s-103 -244.667 -103 -416c0 -167.333 34.667 -303.5 104 -408.5s162 -157.5 278 -157.5z
M956.002 1677l-414 -189l-43 81l396 228z" />
    <glyph glyph-name="Ocircumflex" unicode="&#xd4;" horiz-adv-x="1292" 
d="M642 -27c-175.333 0 -312 68.165 -410 204.498s-147 303.5 -147 501.5c0 206.667 51.333 377.334 154 512.001s238.667 202 408 202c168.667 0 304 -66.167 406 -198.5s153 -299.166 153 -500.499c0 -193.333 -49.5 -361.833 -148.5 -505.5s-237.5 -215.5 -415.5 -215.5z
M646 111.998c119.333 0 212.668 54.333 280.001 163s101 248.667 101 420c0 176 -34.833 313 -104.5 411s-162.167 147 -277.5 147c-116.667 0 -209.334 -53 -278.001 -159s-103 -244.667 -103 -416c0 -167.333 34.667 -303.5 104 -408.5s162 -157.5 278 -157.5z
M977.002 1515l-141 -20l-191 134l-184 -134l-147 20l334 260z" />
    <glyph glyph-name="Otilde" unicode="&#xd5;" horiz-adv-x="1292" 
d="M642 -27c-175.333 0 -312 68.165 -410 204.498s-147 303.5 -147 501.5c0 206.667 51.333 377.334 154 512.001s238.667 202 408 202c168.667 0 304 -66.167 406 -198.5s153 -299.166 153 -500.499c0 -193.333 -49.5 -361.833 -148.5 -505.5s-237.5 -215.5 -415.5 -215.5z
M646 111.998c119.333 0 212.668 54.333 280.001 163s101 248.667 101 420c0 176 -34.833 313 -104.5 411s-162.167 147 -277.5 147c-116.667 0 -209.334 -53 -278.001 -159s-103 -244.667 -103 -416c0 -167.333 34.667 -303.5 104 -408.5s162 -157.5 278 -157.5z
M924.002 1701l76.999 -72c-70.667 -67.333 -138 -101 -202 -101c-32.667 0 -75.667 11.667 -129 35c-58 25.333 -102.667 38 -134 38c-54 0 -99 -22 -135 -66l-84 58c58.667 85.333 133.334 128 224.001 128c30.667 0 73.334 -11.333 128.001 -34
c59.333 -24.667 102 -37 128 -37c43.333 0 85.666 17 126.999 51z" />
    <glyph glyph-name="Odieresis" unicode="&#xd6;" horiz-adv-x="1292" 
d="M642 -27c-175.333 0 -312 68.165 -410 204.498s-147 303.5 -147 501.5c0 206.667 51.333 377.334 154 512.001s238.667 202 408 202c168.667 0 304 -66.167 406 -198.5s153 -299.166 153 -500.499c0 -193.333 -49.5 -361.833 -148.5 -505.5s-237.5 -215.5 -415.5 -215.5z
M646 111.998c119.333 0 212.668 54.333 280.001 163s101 248.667 101 420c0 176 -34.833 313 -104.5 411s-162.167 147 -277.5 147c-116.667 0 -209.334 -53 -278.001 -159s-103 -244.667 -103 -416c0 -167.333 34.667 -303.5 104 -408.5s162 -157.5 278 -157.5z
M911.002 1625c0 -28.667 -10.5 -53.001 -31.5 -73.001s-45.833 -30 -74.5 -30s-53.5 10 -74.5 30s-31.5 44 -31.5 72c0 28.667 10.5 52.834 31.5 72.501s45.5 29.5 73.5 29.5c29.333 0 54.5 -9.83301 75.5 -29.5s31.5 -43.5 31.5 -71.5zM589.002 1624
c0 -28 -10.5 -52.001 -31.5 -72.001s-45.5 -30 -73.5 -30s-52.167 10 -72.5 30s-30.5 43.667 -30.5 71c0 28.667 10.167 52.834 30.5 72.501s43.5 29.5 69.5 29.5c32 0 58 -10 78 -30s30 -43.667 30 -71z" />
    <glyph glyph-name="multiply" unicode="&#xd7;" horiz-adv-x="1201" 
d="M909 277l-308 309l-309 -309l-98 98l309 309l-309 309l98 98l309 -309l308 309l98 -98l-308 -309l308 -309z" />
    <glyph glyph-name="Oslash" unicode="&#xd8;" horiz-adv-x="1292" 
d="M63 -49l157 241.001c-90 133.333 -135 297.666 -135 492.999c0 198 50.5 365.5 151.5 502.5s238.5 205.5 412.5 205.5c121.333 0 230 -38 326 -114l97 140h146l-158 -233c97.333 -131.333 146 -296 146 -494c0 -189.333 -48.833 -356.5 -146.5 -501.5
s-238.167 -217.5 -421.5 -217.5c-130 0 -242 41.667 -336 125l-95 -147h-144zM876 1162c-60.667 60.667 -138.667 91 -234 91c-114 0 -205.5 -52 -274.5 -156s-103.5 -241.333 -103.5 -412c0 -142 22.667 -258.667 68 -350zM404 224.001
c61.333 -74.667 141.667 -112 241 -112c128 0 223.667 57 287 171s95 250.333 95 409c0 148.667 -24.333 269.667 -73 363z" />
    <glyph glyph-name="Ugrave" unicode="&#xd9;" horiz-adv-x="1241" 
d="M949 1365l142 0.00195312v-891c0 -178.667 -43.833 -306.834 -131.5 -384.501s-202.5 -116.5 -344.5 -116.5c-158 0 -275 40 -351 120s-114 207 -114 381v891h171v-891c0 -106 12.333 -180.667 37 -224s62 -75.333 112 -96s102.333 -31 157 -31
c105.333 0 185.333 27.667 240 83s82 144.666 82 267.999v891zM317 1677l62 120l395 -228l-42 -81z" />
    <glyph glyph-name="Uacute" unicode="&#xda;" horiz-adv-x="1241" 
d="M949 1365l142 0.00195312v-891c0 -178.667 -43.833 -306.834 -131.5 -384.501s-202.5 -116.5 -344.5 -116.5c-158 0 -275 40 -351 120s-114 207 -114 381v891h171v-891c0 -106 12.333 -180.667 37 -224s62 -75.333 112 -96s102.333 -31 157 -31
c105.333 0 185.333 27.667 240 83s82 144.666 82 267.999v891zM951 1677l-414 -189l-43 81l396 228z" />
    <glyph glyph-name="Ucircumflex" unicode="&#xdb;" horiz-adv-x="1241" 
d="M949 1365l142 0.00195312v-891c0 -178.667 -43.833 -306.834 -131.5 -384.501s-202.5 -116.5 -344.5 -116.5c-158 0 -275 40 -351 120s-114 207 -114 381v891h171v-891c0 -106 12.333 -180.667 37 -224s62 -75.333 112 -96s102.333 -31 157 -31
c105.333 0 185.333 27.667 240 83s82 144.666 82 267.999v891zM959 1515l-141 -20l-191 134l-184 -134l-147 20l334 260z" />
    <glyph glyph-name="Udieresis" unicode="&#xdc;" horiz-adv-x="1241" 
d="M949 1365l142 0.00195312v-891c0 -178.667 -43.833 -306.834 -131.5 -384.501s-202.5 -116.5 -344.5 -116.5c-158 0 -275 40 -351 120s-114 207 -114 381v891h171v-891c0 -106 12.333 -180.667 37 -224s62 -75.333 112 -96s102.333 -31 157 -31
c105.333 0 185.333 27.667 240 83s82 144.666 82 267.999v891zM892 1625c0 -28.667 -10.5 -53.001 -31.5 -73.001s-45.833 -30 -74.5 -30s-53.5 10 -74.5 30s-31.5 44 -31.5 72c0 28.667 10.5 52.834 31.5 72.501s45.5 29.5 73.5 29.5c29.333 0 54.5 -9.83301 75.5 -29.5
s31.5 -43.5 31.5 -71.5zM570 1624c0 -28 -10.5 -52.001 -31.5 -72.001s-45.5 -30 -73.5 -30s-52.167 10 -72.5 30s-30.5 43.667 -30.5 71c0 28.667 10.167 52.834 30.5 72.501s43.5 29.5 69.5 29.5c32 0 58 -10 78 -30s30 -43.667 30 -71z" />
    <glyph glyph-name="Yacute" unicode="&#xdd;" horiz-adv-x="1045" 
d="M1065 1365l-457 -791v-574h-171v574l-457 791h201l363 -628l365 628h156zM853 1677l-414 -189l-43 81l396 228z" />
    <glyph glyph-name="Thorn" unicode="&#xde;" horiz-adv-x="1159" 
d="M342 0h-171v1365h171v-198h313c151.333 0 263 -41.167 335 -123.5s108 -177.5 108 -285.5c0 -114 -39 -209.5 -117 -286.5s-180.667 -115.5 -308 -115.5h-331v-356zM342 498h314c80.667 0 145.667 24.167 195 72.5s74 111.833 74 190.5
c0 73.333 -23.167 135.5 -69.5 186.5s-108.833 76.5 -187.5 76.5h-326v-526z" />
    <glyph glyph-name="germandbls" unicode="&#xdf;" horiz-adv-x="1162" 
d="M158 -87v877.999h-107v126h107c8.66699 182 54 313.333 136 394s183.667 121 305 121c100 0 187.667 -27.333 263 -82s113 -127.334 113 -218.001c0 -86.667 -38.333 -155.167 -115 -205.5s-167.667 -75.5 -273 -75.5l-24 1c-20 0 -30 -5.66699 -30 -17
c0 -10.667 8.33301 -21.167 25 -31.5s56.334 -27.166 119.001 -50.499c180.667 -66 297.667 -130 351 -192s80 -134.333 80 -217c0 -106.667 -39.667 -197.667 -119 -273s-182.333 -113 -309 -113c-64.667 0 -140 11 -226 33l44 114c68 -14 123.333 -21 166 -21
c86.667 0 153.667 26 201 78s71 102 71 150c0 94.667 -49 164 -147 208l-249 110c-104.667 46 -157 101.667 -157 167c0 20 5.5 44 16.5 72s21.333 45.5 31 52.5s30.167 12.167 61.5 15.5c208 22.667 312 91.667 312 207c0 46.667 -19.333 84.834 -58 114.501
s-88.334 44.5 -149.001 44.5c-90.667 0 -160.5 -31 -209.5 -93s-73.5 -141.667 -73.5 -239v-1058h-156z" />
    <glyph glyph-name="agrave" unicode="&#xe0;" horiz-adv-x="1083" 
d="M948 0l-155.999 -0.000976562c-6 32 -12 92.667 -18 182c-69.333 -139.333 -187.333 -209 -354 -209c-113.333 0 -200.333 30 -261 90s-91 132 -91 216c0 102 43.333 185.833 130 251.5s234 98.5 442 98.5c28 0 72.667 -1.33301 134 -4
c0 80 -6.16699 137.833 -18.5 173.5s-38.5 64.167 -78.5 85.5s-92.667 32 -158 32c-159.333 0 -252 -60.667 -278 -182l-145 25c35.333 186 184 279 446 279c139.333 0 238.166 -30.833 296.499 -92.5s87.5 -168.5 87.5 -320.5v-429c0 -71.333 7.33301 -136.666 22 -195.999
zM774.001 504.999c-64 4 -112.667 5.99902 -146 5.99902c-124 0 -220.333 -20.333 -289 -61s-103 -100 -103 -178c0 -49.333 18.5 -91.333 55.5 -126s90.5 -52 160.5 -52c94.667 0 172.5 34.333 233.5 103s91.5 149.334 91.5 242.001c0 18.667 -1 40.667 -3 66z
M252.001 1356l62 120l395 -228l-42 -81z" />
    <glyph glyph-name="aacute" unicode="&#xe1;" horiz-adv-x="1083" 
d="M948 0l-155.999 -0.000976562c-6 32 -12 92.667 -18 182c-69.333 -139.333 -187.333 -209 -354 -209c-113.333 0 -200.333 30 -261 90s-91 132 -91 216c0 102 43.333 185.833 130 251.5s234 98.5 442 98.5c28 0 72.667 -1.33301 134 -4
c0 80 -6.16699 137.833 -18.5 173.5s-38.5 64.167 -78.5 85.5s-92.667 32 -158 32c-159.333 0 -252 -60.667 -278 -182l-145 25c35.333 186 184 279 446 279c139.333 0 238.166 -30.833 296.499 -92.5s87.5 -168.5 87.5 -320.5v-429c0 -71.333 7.33301 -136.666 22 -195.999
zM774.001 504.999c-64 4 -112.667 5.99902 -146 5.99902c-124 0 -220.333 -20.333 -289 -61s-103 -100 -103 -178c0 -49.333 18.5 -91.333 55.5 -126s90.5 -52 160.5 -52c94.667 0 172.5 34.333 233.5 103s91.5 149.334 91.5 242.001c0 18.667 -1 40.667 -3 66z
M832.001 1356l-414 -189l-43 81l396 228z" />
    <glyph glyph-name="acircumflex" unicode="&#xe2;" horiz-adv-x="1083" 
d="M948 0l-155.999 -0.000976562c-6 32 -12 92.667 -18 182c-69.333 -139.333 -187.333 -209 -354 -209c-113.333 0 -200.333 30 -261 90s-91 132 -91 216c0 102 43.333 185.833 130 251.5s234 98.5 442 98.5c28 0 72.667 -1.33301 134 -4
c0 80 -6.16699 137.833 -18.5 173.5s-38.5 64.167 -78.5 85.5s-92.667 32 -158 32c-159.333 0 -252 -60.667 -278 -182l-145 25c35.333 186 184 279 446 279c139.333 0 238.166 -30.833 296.499 -92.5s87.5 -168.5 87.5 -320.5v-429c0 -71.333 7.33301 -136.666 22 -195.999
zM774.001 504.999c-64 4 -112.667 5.99902 -146 5.99902c-124 0 -220.333 -20.333 -289 -61s-103 -100 -103 -178c0 -49.333 18.5 -91.333 55.5 -126s90.5 -52 160.5 -52c94.667 0 172.5 34.333 233.5 103s91.5 149.334 91.5 242.001c0 18.667 -1 40.667 -3 66z
M867.001 1194l-141 -20l-191 134l-184 -134l-147 20l334 260z" />
    <glyph glyph-name="atilde" unicode="&#xe3;" horiz-adv-x="1083" 
d="M948 0l-155.999 -0.000976562c-6 32 -12 92.667 -18 182c-69.333 -139.333 -187.333 -209 -354 -209c-113.333 0 -200.333 30 -261 90s-91 132 -91 216c0 102 43.333 185.833 130 251.5s234 98.5 442 98.5c28 0 72.667 -1.33301 134 -4
c0 80 -6.16699 137.833 -18.5 173.5s-38.5 64.167 -78.5 85.5s-92.667 32 -158 32c-159.333 0 -252 -60.667 -278 -182l-145 25c35.333 186 184 279 446 279c139.333 0 238.166 -30.833 296.499 -92.5s87.5 -168.5 87.5 -320.5v-429c0 -71.333 7.33301 -136.666 22 -195.999
zM774.001 504.999c-64 4 -112.667 5.99902 -146 5.99902c-124 0 -220.333 -20.333 -289 -61s-103 -100 -103 -178c0 -49.333 18.5 -91.333 55.5 -126s90.5 -52 160.5 -52c94.667 0 172.5 34.333 233.5 103s91.5 149.334 91.5 242.001c0 18.667 -1 40.667 -3 66z
M807.001 1380l76.999 -72c-70.667 -67.333 -138 -101 -202 -101c-32.667 0 -75.667 11.667 -129 35c-58 25.333 -102.667 38 -134 38c-54 0 -99 -22 -135 -66l-84 58c58.667 85.333 133.334 128 224.001 128c30.667 0 73.334 -11.333 128.001 -34
c59.333 -24.667 102 -37 128 -37c43.333 0 85.666 17 126.999 51z" />
    <glyph glyph-name="adieresis" unicode="&#xe4;" horiz-adv-x="1083" 
d="M948 0l-155.999 -0.000976562c-6 32 -12 92.667 -18 182c-69.333 -139.333 -187.333 -209 -354 -209c-113.333 0 -200.333 30 -261 90s-91 132 -91 216c0 102 43.333 185.833 130 251.5s234 98.5 442 98.5c28 0 72.667 -1.33301 134 -4
c0 80 -6.16699 137.833 -18.5 173.5s-38.5 64.167 -78.5 85.5s-92.667 32 -158 32c-159.333 0 -252 -60.667 -278 -182l-145 25c35.333 186 184 279 446 279c139.333 0 238.166 -30.833 296.499 -92.5s87.5 -168.5 87.5 -320.5v-429c0 -71.333 7.33301 -136.666 22 -195.999
zM774.001 504.999c-64 4 -112.667 5.99902 -146 5.99902c-124 0 -220.333 -20.333 -289 -61s-103 -100 -103 -178c0 -49.333 18.5 -91.333 55.5 -126s90.5 -52 160.5 -52c94.667 0 172.5 34.333 233.5 103s91.5 149.334 91.5 242.001c0 18.667 -1 40.667 -3 66z
M801.001 1304c0 -28.667 -10.5 -53.001 -31.5 -73.001s-45.833 -30 -74.5 -30s-53.5 10 -74.5 30s-31.5 44 -31.5 72c0 28.667 10.5 52.834 31.5 72.501s45.5 29.5 73.5 29.5c29.333 0 54.5 -9.83301 75.5 -29.5s31.5 -43.5 31.5 -71.5zM479.001 1303
c0 -28 -10.5 -52.001 -31.5 -72.001s-45.5 -30 -73.5 -30s-52.167 10 -72.5 30s-30.5 43.667 -30.5 71c0 28.667 10.167 52.834 30.5 72.501s43.5 29.5 69.5 29.5c32 0 58 -10 78 -30s30 -43.667 30 -71z" />
    <glyph glyph-name="aring" unicode="&#xe5;" horiz-adv-x="1083" 
d="M948 0l-155.999 -0.000976562c-6 32 -12 92.667 -18 182c-69.333 -139.333 -187.333 -209 -354 -209c-113.333 0 -200.333 30 -261 90s-91 132 -91 216c0 102 43.333 185.833 130 251.5s234 98.5 442 98.5c28 0 72.667 -1.33301 134 -4
c0 80 -6.16699 137.833 -18.5 173.5s-38.5 64.167 -78.5 85.5s-92.667 32 -158 32c-159.333 0 -252 -60.667 -278 -182l-145 25c35.333 186 184 279 446 279c139.333 0 238.166 -30.833 296.499 -92.5s87.5 -168.5 87.5 -320.5v-429c0 -71.333 7.33301 -136.666 22 -195.999
zM774.001 504.999c-64 4 -112.667 5.99902 -146 5.99902c-124 0 -220.333 -20.333 -289 -61s-103 -100 -103 -178c0 -49.333 18.5 -91.333 55.5 -126s90.5 -52 160.5 -52c94.667 0 172.5 34.333 233.5 103s91.5 149.334 91.5 242.001c0 18.667 -1 40.667 -3 66z
M709.001 1326c0 -47.333 -16.834 -87.834 -50.501 -121.501s-74.167 -50.5 -121.5 -50.5s-88.333 17 -123 51s-52 74.667 -52 122c0 46.667 17.167 87.334 51.5 122.001s76.833 52 127.5 52c44.667 0 83.834 -17.167 117.501 -51.5s50.5 -75.5 50.5 -123.5zM626 1326
c0 25.333 -8.66602 46.999 -25.999 64.999s-37 27 -59 27c-28.667 0 -51.834 -9 -69.501 -27s-26.5 -39 -26.5 -63c0 -25.333 9 -47 27 -65s39.667 -27 65 -27c24.667 0 45.667 8.83301 63 26.5s26 38.834 26 63.501z" />
    <glyph glyph-name="ae" unicode="&#xe6;" horiz-adv-x="1722" 
d="M1484 297l142.001 -26.999c-26.667 -88 -78.5 -159.5 -155.5 -214.5s-166.167 -82.5 -267.5 -82.5c-184.667 0 -321 85.333 -409 256c-70.667 -170.667 -192.334 -256 -365.001 -256c-122 0 -213.333 28.5 -274 85.5s-91 128.5 -91 214.5c0 106 44.167 191.333 132.5 256
s230.166 97 425.499 97c42 0 88.333 -2.33301 139 -7c1.33301 29.333 2 52.666 2 69.999c0 150.667 -85.333 226 -256 226c-76 0 -135.5 -17.167 -178.5 -51.5s-68.833 -74.5 -77.5 -120.5l-149 26c20.667 90.667 70.667 158.167 150 202.5s170.666 66.5 273.999 66.5
c162.667 0 279.667 -49 351 -147c84.667 98 194.334 147 329.001 147c121.333 0 223.333 -43.667 306 -131s126.334 -226 131.001 -416h-731c0 -144.667 30.5 -245.667 91.5 -303s130.833 -86 209.5 -86c126 0 216.333 65 271 195zM1472 608.001
c-2.66699 89.333 -27.498 162.833 -74.498 220.5s-111.5 86.5 -193.5 86.5c-80.667 0 -147.334 -29 -200.001 -87s-81.334 -131.333 -86.001 -220h554zM756.003 503.001c-37.333 6 -79.999 9 -127.999 9c-130.667 0 -228.834 -21.333 -294.501 -64s-98.5 -97.667 -98.5 -165
c0 -50.667 18 -93.5 54 -128.5s83.333 -52.5 142 -52.5c84.667 0 160.167 30.833 226.5 92.5s99.5 146.167 99.5 253.5c0 12 -0.333008 30.333 -1 55z" />
    <glyph glyph-name="ccedilla" unicode="&#xe7;" horiz-adv-x="954" 
d="M506 -27l-18.998 -65.999c68.667 0 118.834 -12.667 150.501 -38s47.5 -57 47.5 -95s-15 -71.833 -45 -101.5s-78.333 -44.5 -145 -44.5c-69.333 0 -129 15 -179 45l24 64c48.667 -23.333 96.667 -35 144 -35c29.333 0 53.333 6.5 72 19.5s28 29.833 28 50.5
c0 47.333 -38.667 71 -116 71c-16.667 0 -41.334 -1.66699 -74.001 -5l46 139c-118 16.667 -207.833 75.167 -269.5 175.5s-92.5 217.166 -92.5 350.499c0 153.333 38.5 280.833 115.5 382.5s181.833 152.5 314.5 152.5c110 0 198.167 -32.833 264.5 -98.5
s107.5 -150.5 123.5 -254.5l-142 -27c-26.667 166.667 -107.334 250 -242.001 250c-86.667 0 -153.334 -36.833 -200.001 -110.5s-70 -169.167 -70 -286.5c0 -129.333 23.167 -229.833 69.5 -301.5s111.5 -107.5 195.5 -107.5c130 0 212.333 84 247 252l142 -25
c-19.333 -109.333 -63 -196 -131 -260s-154.333 -96 -259 -96z" />
    <glyph glyph-name="egrave" unicode="&#xe8;" horiz-adv-x="1066" 
d="M824 301l145.999 -30c-26.667 -86 -78.667 -157.167 -156 -213.5s-168.333 -84.5 -273 -84.5c-138 0 -249.667 48.5 -335 145.5s-128 224.167 -128 381.5c0 160.667 44.333 290.5 133 389.5s200 148.5 334 148.5c132 0 238.167 -45.667 318.5 -137s121.5 -228 123.5 -410
h-734c0 -152.667 32 -255.667 96 -309s131.667 -80 203 -80c128.667 0 219.334 66.333 272.001 199zM814.999 608c-1.33301 56.667 -10.668 107 -28.001 151s-46.666 81.5 -87.999 112.5s-91 46.5 -149 46.5c-78 0 -144.167 -28 -198.5 -84s-84.833 -131.333 -91.5 -226h555
zM269.997 1356l62 120l395 -228l-42 -81z" />
    <glyph glyph-name="eacute" unicode="&#xe9;" horiz-adv-x="1066" 
d="M824 301l145.999 -30c-26.667 -86 -78.667 -157.167 -156 -213.5s-168.333 -84.5 -273 -84.5c-138 0 -249.667 48.5 -335 145.5s-128 224.167 -128 381.5c0 160.667 44.333 290.5 133 389.5s200 148.5 334 148.5c132 0 238.167 -45.667 318.5 -137s121.5 -228 123.5 -410
h-734c0 -152.667 32 -255.667 96 -309s131.667 -80 203 -80c128.667 0 219.334 66.333 272.001 199zM814.999 608c-1.33301 56.667 -10.668 107 -28.001 151s-46.666 81.5 -87.999 112.5s-91 46.5 -149 46.5c-78 0 -144.167 -28 -198.5 -84s-84.833 -131.333 -91.5 -226h555
zM849.997 1356l-414 -189l-43 81l396 228z" />
    <glyph glyph-name="ecircumflex" unicode="&#xea;" horiz-adv-x="1066" 
d="M824 301l145.999 -30c-26.667 -86 -78.667 -157.167 -156 -213.5s-168.333 -84.5 -273 -84.5c-138 0 -249.667 48.5 -335 145.5s-128 224.167 -128 381.5c0 160.667 44.333 290.5 133 389.5s200 148.5 334 148.5c132 0 238.167 -45.667 318.5 -137s121.5 -228 123.5 -410
h-734c0 -152.667 32 -255.667 96 -309s131.667 -80 203 -80c128.667 0 219.334 66.333 272.001 199zM814.999 608c-1.33301 56.667 -10.668 107 -28.001 151s-46.666 81.5 -87.999 112.5s-91 46.5 -149 46.5c-78 0 -144.167 -28 -198.5 -84s-84.833 -131.333 -91.5 -226h555
zM877.997 1194l-141 -20l-191 134l-184 -134l-147 20l334 260z" />
    <glyph glyph-name="edieresis" unicode="&#xeb;" horiz-adv-x="1066" 
d="M824 301l145.999 -30c-26.667 -86 -78.667 -157.167 -156 -213.5s-168.333 -84.5 -273 -84.5c-138 0 -249.667 48.5 -335 145.5s-128 224.167 -128 381.5c0 160.667 44.333 290.5 133 389.5s200 148.5 334 148.5c132 0 238.167 -45.667 318.5 -137s121.5 -228 123.5 -410
h-734c0 -152.667 32 -255.667 96 -309s131.667 -80 203 -80c128.667 0 219.334 66.333 272.001 199zM814.999 608c-1.33301 56.667 -10.668 107 -28.001 151s-46.666 81.5 -87.999 112.5s-91 46.5 -149 46.5c-78 0 -144.167 -28 -198.5 -84s-84.833 -131.333 -91.5 -226h555
zM820.997 1304c0 -28.667 -10.5 -53.001 -31.5 -73.001s-45.833 -30 -74.5 -30s-53.5 10 -74.5 30s-31.5 44 -31.5 72c0 28.667 10.5 52.834 31.5 72.501s45.5 29.5 73.5 29.5c29.333 0 54.5 -9.83301 75.5 -29.5s31.5 -43.5 31.5 -71.5zM498.997 1303
c0 -28 -10.5 -52.001 -31.5 -72.001s-45.5 -30 -73.5 -30s-52.167 10 -72.5 30s-30.5 43.667 -30.5 71c0 28.667 10.167 52.834 30.5 72.501s43.5 29.5 69.5 29.5c32 0 58 -10 78 -30s30 -43.667 30 -71z" />
    <glyph glyph-name="igrave" unicode="&#xec;" horiz-adv-x="470" 
d="M313 1010v-1010h-157v1010h157zM-112 1356l62 120l395 -228l-42 -81z" />
    <glyph glyph-name="iacute" unicode="&#xed;" horiz-adv-x="470" 
d="M313 1010v-1010h-157v1010h157zM586 1356l-414 -189l-43 81l396 228z" />
    <glyph glyph-name="icircumflex" unicode="&#xee;" horiz-adv-x="470" 
d="M313 1010v-1010h-157v1010h157zM566 1194l-141 -20l-191 134l-184 -134l-147 20l334 260z" />
    <glyph glyph-name="idieresis" unicode="&#xef;" horiz-adv-x="470" 
d="M314 1010v-1010h-157v1010h157zM522 1304c0 -28.667 -10.5 -53.001 -31.5 -73.001s-45.833 -30 -74.5 -30s-53.5 10 -74.5 30s-31.5 44 -31.5 72c0 28.667 10.5 52.834 31.5 72.501s45.5 29.5 73.5 29.5c29.333 0 54.5 -9.83301 75.5 -29.5s31.5 -43.5 31.5 -71.5z
M200 1303c0 -28 -10.5 -52.001 -31.5 -72.001s-45.5 -30 -73.5 -30s-52.167 10 -72.5 30s-30.5 43.667 -30.5 71c0 28.667 10.167 52.834 30.5 72.501s43.5 29.5 69.5 29.5c32 0 58 -10 78 -30s30 -43.667 30 -71z" />
    <glyph glyph-name="eth" unicode="&#xf0;" horiz-adv-x="1061" 
d="M345 1164l146 88c-38 29.333 -92.667 60.666 -164 93.999l77 82c73.333 -23.333 142.333 -58.666 207 -105.999l176 99l70 -87l-153 -86c185.333 -188 278 -423.667 278 -707c0 -187.333 -43.5 -328.833 -130.5 -424.5s-195.5 -143.5 -325.5 -143.5
c-147.333 0 -258.833 52.5 -334.5 157.5s-113.5 225.833 -113.5 362.5c0 142 41.167 263.667 123.5 365s182.833 152 301.5 152c96 0 177.667 -38 245 -114c-32 106 -88.333 199.667 -169 281l-175 -101zM528 881c-88 0 -156.333 -36.333 -205 -109
s-73 -163.334 -73 -272.001c0 -132.667 26.333 -232.5 79 -299.5s120.667 -100.5 204 -100.5c80.667 0 147 33.833 199 101.5s78 163.167 78 286.5c0 116.667 -26 211.334 -78 284.001s-120 109 -204 109z" />
    <glyph glyph-name="ntilde" unicode="&#xf1;" horiz-adv-x="1110" 
d="M953 0h-147v649c0 93.333 -20.333 159 -61 197s-90 57 -148 57c-80 0 -147.167 -32 -201.5 -96s-81.5 -148.333 -81.5 -253v-554h-157v1010h146v-186c82 142.667 188.333 214 319 214c75.333 0 139.5 -19.5 192.5 -58.5s89.333 -82.833 109 -131.5
s29.5 -136.667 29.5 -264v-584zM827 1380l76.999 -72c-70.667 -67.333 -138 -101 -202 -101c-32.667 0 -75.667 11.667 -129 35c-58 25.333 -102.667 38 -134 38c-54 0 -99 -22 -135 -66l-84 58c58.667 85.333 133.334 128 224.001 128c30.667 0 73.334 -11.333 128.001 -34
c59.333 -24.667 102 -37 128 -37c43.333 0 85.666 17 126.999 51z" />
    <glyph glyph-name="ograve" unicode="&#xf2;" horiz-adv-x="1064" 
d="M519 -27c-138.667 0 -246.832 51.333 -324.499 154s-116.5 230 -116.5 382c0 160.667 43.667 289 131 385s196 144 326 144c139.333 0 249.166 -50.5 329.499 -151.5s120.5 -227.167 120.5 -378.5c0 -157.333 -43.333 -285.833 -130 -385.5s-198.667 -149.5 -336 -149.5z
M531.002 102c80 0 147 33 201 99s81 168.667 81 308c0 140 -28.333 241.5 -85 304.5s-123 94.5 -199 94.5c-78 0 -144 -31.833 -198 -95.5s-81 -164.5 -81 -302.5c0 -146 27 -250.5 81 -313.5s120.667 -94.5 200 -94.5zM248.002 1356l62 120l395 -228l-42 -81z" />
    <glyph glyph-name="oacute" unicode="&#xf3;" horiz-adv-x="1064" 
d="M519 -27c-138.667 0 -246.832 51.333 -324.499 154s-116.5 230 -116.5 382c0 160.667 43.667 289 131 385s196 144 326 144c139.333 0 249.166 -50.5 329.499 -151.5s120.5 -227.167 120.5 -378.5c0 -157.333 -43.333 -285.833 -130 -385.5s-198.667 -149.5 -336 -149.5z
M531.002 102c80 0 147 33 201 99s81 168.667 81 308c0 140 -28.333 241.5 -85 304.5s-123 94.5 -199 94.5c-78 0 -144 -31.833 -198 -95.5s-81 -164.5 -81 -302.5c0 -146 27 -250.5 81 -313.5s120.667 -94.5 200 -94.5zM828.002 1356l-414 -189l-43 81l396 228z" />
    <glyph glyph-name="ocircumflex" unicode="&#xf4;" horiz-adv-x="1064" 
d="M519 -27c-138.667 0 -246.832 51.333 -324.499 154s-116.5 230 -116.5 382c0 160.667 43.667 289 131 385s196 144 326 144c139.333 0 249.166 -50.5 329.499 -151.5s120.5 -227.167 120.5 -378.5c0 -157.333 -43.333 -285.833 -130 -385.5s-198.667 -149.5 -336 -149.5z
M531.002 102c80 0 147 33 201 99s81 168.667 81 308c0 140 -28.333 241.5 -85 304.5s-123 94.5 -199 94.5c-78 0 -144 -31.833 -198 -95.5s-81 -164.5 -81 -302.5c0 -146 27 -250.5 81 -313.5s120.667 -94.5 200 -94.5zM863.002 1194l-141 -20l-191 134l-184 -134l-147 20
l334 260z" />
    <glyph glyph-name="otilde" unicode="&#xf5;" horiz-adv-x="1064" 
d="M519 -27c-138.667 0 -246.832 51.333 -324.499 154s-116.5 230 -116.5 382c0 160.667 43.667 289 131 385s196 144 326 144c139.333 0 249.166 -50.5 329.499 -151.5s120.5 -227.167 120.5 -378.5c0 -157.333 -43.333 -285.833 -130 -385.5s-198.667 -149.5 -336 -149.5z
M531.002 102c80 0 147 33 201 99s81 168.667 81 308c0 140 -28.333 241.5 -85 304.5s-123 94.5 -199 94.5c-78 0 -144 -31.833 -198 -95.5s-81 -164.5 -81 -302.5c0 -146 27 -250.5 81 -313.5s120.667 -94.5 200 -94.5zM810.002 1380l76.999 -72
c-70.667 -67.333 -138 -101 -202 -101c-32.667 0 -75.667 11.667 -129 35c-58 25.333 -102.667 38 -134 38c-54 0 -99 -22 -135 -66l-84 58c58.667 85.333 133.334 128 224.001 128c30.667 0 73.334 -11.333 128.001 -34c59.333 -24.667 102 -37 128 -37
c43.333 0 85.666 17 126.999 51z" />
    <glyph glyph-name="odieresis" unicode="&#xf6;" horiz-adv-x="1064" 
d="M519 -27c-138.667 0 -246.832 51.333 -324.499 154s-116.5 230 -116.5 382c0 160.667 43.667 289 131 385s196 144 326 144c139.333 0 249.166 -50.5 329.499 -151.5s120.5 -227.167 120.5 -378.5c0 -157.333 -43.333 -285.833 -130 -385.5s-198.667 -149.5 -336 -149.5z
M531.002 102c80 0 147 33 201 99s81 168.667 81 308c0 140 -28.333 241.5 -85 304.5s-123 94.5 -199 94.5c-78 0 -144 -31.833 -198 -95.5s-81 -164.5 -81 -302.5c0 -146 27 -250.5 81 -313.5s120.667 -94.5 200 -94.5zM796.002 1304c0 -28.667 -10.5 -53.001 -31.5 -73.001
s-45.833 -30 -74.5 -30s-53.5 10 -74.5 30s-31.5 44 -31.5 72c0 28.667 10.5 52.834 31.5 72.501s45.5 29.5 73.5 29.5c29.333 0 54.5 -9.83301 75.5 -29.5s31.5 -43.5 31.5 -71.5zM474.002 1303c0 -28 -10.5 -52.001 -31.5 -72.001s-45.5 -30 -73.5 -30
s-52.167 10 -72.5 30s-30.5 43.667 -30.5 71c0 28.667 10.167 52.834 30.5 72.501s43.5 29.5 69.5 29.5c32 0 58 -10 78 -30s30 -43.667 30 -71z" />
    <glyph glyph-name="divide" unicode="&#xf7;" horiz-adv-x="1201" 
d="M696 992c0 -26.667 -9.50098 -49.334 -28.501 -68.001s-41.5 -28 -67.5 -28s-48.5 9.33301 -67.5 28s-28.5 41.334 -28.5 68.001s9.5 49.334 28.5 68.001s41.5 28 67.5 28c26.667 0 49.334 -9.33301 68.001 -28s28 -41.334 28 -68.001zM122.999 753h956v-138h-956v138z
M695.999 388c0 -26.667 -9.50098 -49.334 -28.501 -68.001s-41.5 -28 -67.5 -28c-26.667 0 -49.334 9.33301 -68.001 28s-28 41.334 -28 68.001s9.33301 49.5 28 68.5s41.334 28.5 68.001 28.5s49.334 -9.5 68.001 -28.5s28 -41.833 28 -68.5z" />
    <glyph glyph-name="oslash" unicode="&#xf8;" horiz-adv-x="1064" 
d="M184 142c-70.667 98.667 -105.998 221.334 -105.998 368.001c0 159.333 43.667 287.166 131 383.499s195.666 144.5 324.999 144.5c99.333 0 185.666 -27.333 258.999 -82l90 120h140l-150 -200c74.667 -99.333 112 -222 112 -368
c0 -157.333 -43.167 -285.833 -129.5 -385.5s-198.5 -149.5 -336.5 -149.5c-105.333 0 -192 29 -260 87l-87 -115h-136zM286.002 279l418.999 559c-52 46.667 -110.667 70 -176 70c-77.333 0 -143.166 -31.667 -197.499 -95s-81.5 -165 -81.5 -305
c0 -90 12 -166.333 36 -229zM773.001 743l-425 -565c52.667 -50.667 114 -76 184 -76c79.333 0 146 33 200 99s81 168.667 81 308c0 97.333 -13.333 175.333 -40 234z" />
    <glyph glyph-name="ugrave" unicode="&#xf9;" horiz-adv-x="1109" 
d="M952 0h-141v193c-72 -146.667 -179.333 -220 -322 -220c-103.333 0 -184.5 34 -243.5 102s-88.5 164.667 -88.5 290v645h157v-645c0 -100 20.833 -168.833 62.5 -206.5s87.5 -56.5 137.5 -56.5c50.667 0 96.5 14.333 137.5 43s75.167 69.5 102.5 122.5
s41 110.833 41 173.5v569h157v-1010zM244 1356l62 120l395 -228l-42 -81z" />
    <glyph glyph-name="uacute" unicode="&#xfa;" horiz-adv-x="1109" 
d="M952 0h-141v193c-72 -146.667 -179.333 -220 -322 -220c-103.333 0 -184.5 34 -243.5 102s-88.5 164.667 -88.5 290v645h157v-645c0 -100 20.833 -168.833 62.5 -206.5s87.5 -56.5 137.5 -56.5c50.667 0 96.5 14.333 137.5 43s75.167 69.5 102.5 122.5
s41 110.833 41 173.5v569h157v-1010zM871 1356l-414 -189l-43 81l396 228z" />
    <glyph glyph-name="ucircumflex" unicode="&#xfb;" horiz-adv-x="1109" 
d="M952 0h-141v193c-72 -146.667 -179.333 -220 -322 -220c-103.333 0 -184.5 34 -243.5 102s-88.5 164.667 -88.5 290v645h157v-645c0 -100 20.833 -168.833 62.5 -206.5s87.5 -56.5 137.5 -56.5c50.667 0 96.5 14.333 137.5 43s75.167 69.5 102.5 122.5
s41 110.833 41 173.5v569h157v-1010zM886 1194l-141 -20l-191 134l-184 -134l-147 20l334 260z" />
    <glyph glyph-name="udieresis" unicode="&#xfc;" horiz-adv-x="1109" 
d="M952 0h-141v193c-72 -146.667 -179.333 -220 -322 -220c-103.333 0 -184.5 34 -243.5 102s-88.5 164.667 -88.5 290v645h157v-645c0 -100 20.833 -168.833 62.5 -206.5s87.5 -56.5 137.5 -56.5c50.667 0 96.5 14.333 137.5 43s75.167 69.5 102.5 122.5
s41 110.833 41 173.5v569h157v-1010zM819 1304c0 -28.667 -10.5 -53.001 -31.5 -73.001s-45.833 -30 -74.5 -30s-53.5 10 -74.5 30s-31.5 44 -31.5 72c0 28.667 10.5 52.834 31.5 72.501s45.5 29.5 73.5 29.5c29.333 0 54.5 -9.83301 75.5 -29.5s31.5 -43.5 31.5 -71.5z
M497 1303c0 -28 -10.5 -52.001 -31.5 -72.001s-45.5 -30 -73.5 -30s-52.167 10 -72.5 30s-30.5 43.667 -30.5 71c0 28.667 10.167 52.834 30.5 72.501s43.5 29.5 69.5 29.5c32 0 58 -10 78 -30s30 -43.667 30 -71z" />
    <glyph glyph-name="yacute" unicode="&#xfd;" horiz-adv-x="850" 
d="M850 1011l-404.999 -1128c-58.667 -162.667 -152.334 -244 -281.001 -244c-40.667 0 -85.667 7 -135 21v123c40.667 -9.33301 75.667 -14 105 -14c50 0 91.833 14.333 125.5 43s67.167 98 100.5 208l-349 991h160l270 -759l277 759h132zM768.001 1356l-414 -189l-43 81
l396 228z" />
    <glyph glyph-name="thorn" unicode="&#xfe;" horiz-adv-x="1094" 
d="M314 -341l-156.999 0.00195312v1706h157v-531c70 136 172 204 306 204c116 0 211 -49.333 285 -148s111 -225.334 111 -380.001c0 -164.667 -37.667 -295.334 -113 -392.001s-172 -145 -290 -145c-126.667 0 -226.334 60.333 -299.001 181v-495zM314.001 651.002
l0.000976562 -284c10 -76.667 42.333 -140 97 -190s111.667 -75 171 -75c68.667 0 129.5 30 182.5 90s79.5 163.667 79.5 311c0 127.333 -24 225.5 -72 294.5s-111.667 103.5 -191 103.5c-62.667 0 -118.834 -24.333 -168.501 -73s-82.5 -107.667 -98.5 -177z" />
    <glyph glyph-name="ydieresis" unicode="&#xff;" horiz-adv-x="850" 
d="M850 1011l-404.999 -1128c-58.667 -162.667 -152.334 -244 -281.001 -244c-40.667 0 -85.667 7 -135 21v123c40.667 -9.33301 75.667 -14 105 -14c50 0 91.833 14.333 125.5 43s67.167 98 100.5 208l-349 991h160l270 -759l277 759h132zM703.001 1304
c0 -28.667 -10.5 -53.001 -31.5 -73.001s-45.833 -30 -74.5 -30s-53.5 10 -74.5 30s-31.5 44 -31.5 72c0 28.667 10.5 52.834 31.5 72.501s45.5 29.5 73.5 29.5c29.333 0 54.5 -9.83301 75.5 -29.5s31.5 -43.5 31.5 -71.5zM381.001 1303c0 -28 -10.5 -52.001 -31.5 -72.001
s-45.5 -30 -73.5 -30s-52.167 10 -72.5 30s-30.5 43.667 -30.5 71c0 28.667 10.167 52.834 30.5 72.501s43.5 29.5 69.5 29.5c32 0 58 -10 78 -30s30 -43.667 30 -71z" />
    <glyph glyph-name="Amacron" unicode="&#x100;" horiz-adv-x="1128" 
d="M1090 0h-175l-138 399h-505l-122 -399h-143l443 1365h195zM741 527l-210 656l-212 -656h422zM859 1659v-109h-621v109h621z" />
    <glyph glyph-name="amacron" unicode="&#x101;" horiz-adv-x="1083" 
d="M948 0l-155.999 -0.000976562c-6 32 -12 92.667 -18 182c-69.333 -139.333 -187.333 -209 -354 -209c-113.333 0 -200.333 30 -261 90s-91 132 -91 216c0 102 43.333 185.833 130 251.5s234 98.5 442 98.5c28 0 72.667 -1.33301 134 -4
c0 80 -6.16699 137.833 -18.5 173.5s-38.5 64.167 -78.5 85.5s-92.667 32 -158 32c-159.333 0 -252 -60.667 -278 -182l-145 25c35.333 186 184 279 446 279c139.333 0 238.166 -30.833 296.499 -92.5s87.5 -168.5 87.5 -320.5v-429c0 -71.333 7.33301 -136.666 22 -195.999
zM774.001 504.999c-64 4 -112.667 5.99902 -146 5.99902c-124 0 -220.333 -20.333 -289 -61s-103 -100 -103 -178c0 -49.333 18.5 -91.333 55.5 -126s90.5 -52 160.5 -52c94.667 0 172.5 34.333 233.5 103s91.5 149.334 91.5 242.001c0 18.667 -1 40.667 -3 66z
M846.001 1345v-109h-621v109h621z" />
    <glyph glyph-name="Abreve" unicode="&#x102;" horiz-adv-x="1097" 
d="M1090 0h-175l-138 399h-505l-122 -399h-143l443 1365h195zM741 527l-210 656l-212 -656h422zM250 1759h114c16.667 -90.667 77 -136 181 -136c108.667 0 171.667 45.333 189 136h114c-28.667 -170.667 -124 -256 -286 -256c-183.333 0 -287.333 85.333 -312 256z" />
    <glyph glyph-name="abreve" unicode="&#x103;" horiz-adv-x="1083" 
d="M948 0l-155.999 -0.000976562c-6 32 -12 92.667 -18 182c-69.333 -139.333 -187.333 -209 -354 -209c-113.333 0 -200.333 30 -261 90s-91 132 -91 216c0 102 43.333 185.833 130 251.5s234 98.5 442 98.5c28 0 72.667 -1.33301 134 -4
c0 80 -6.16699 137.833 -18.5 173.5s-38.5 64.167 -78.5 85.5s-92.667 32 -158 32c-159.333 0 -252 -60.667 -278 -182l-145 25c35.333 186 184 279 446 279c139.333 0 238.166 -30.833 296.499 -92.5s87.5 -168.5 87.5 -320.5v-429c0 -71.333 7.33301 -136.666 22 -195.999
zM774.001 504.999c-64 4 -112.667 5.99902 -146 5.99902c-124 0 -220.333 -20.333 -289 -61s-103 -100 -103 -178c0 -49.333 18.5 -91.333 55.5 -126s90.5 -52 160.5 -52c94.667 0 172.5 34.333 233.5 103s91.5 149.334 91.5 242.001c0 18.667 -1 40.667 -3 66z
M237.001 1438h114c16.667 -90.667 77 -136 181 -136c108.667 0 171.667 45.333 189 136h114c-28.667 -170.667 -124 -256 -286 -256c-183.333 0 -287.333 85.333 -312 256z" />
    <glyph glyph-name="Aogonek" unicode="&#x104;" horiz-adv-x="1097" 
d="M991 0l-76 -0.000976562l-138 399h-505l-122 -399h-143l443 1365h195l445 -1365c-89.333 -51.333 -134 -104 -134 -158c0 -64 38 -96 114 -96c30 0 59.333 4.66699 88 14l18 -69c-44 -22.667 -94 -34 -150 -34c-62 0 -109.667 13.833 -143 41.5s-50 64.834 -50 111.501
c0 84.667 52.667 148 158 190zM741 526.999l-210 656l-212 -656h422z" />
    <glyph glyph-name="aogonek" unicode="&#x105;" horiz-adv-x="1083" 
d="M853 0h-61c-6 32 -12 92.667 -18 182c-69.333 -139.333 -187.333 -209 -354 -209c-113.333 0 -200.333 30 -261 90s-91 132 -91 216c0 100.667 43 184.167 129 250.5s234.667 99.5 446 99.5c26 0 69.667 -1.33301 131 -4c0 80 -6.16699 137.833 -18.5 173.5
s-38.5 64.167 -78.5 85.5s-92.667 32 -158 32c-159.333 0 -252 -60.667 -278 -182l-145 25c35.333 186 184.666 279 447.999 279c137.333 0 235.333 -31 294 -93s88 -168.667 88 -320v-429c0 -88 7.33301 -153.333 22 -196c-60.667 -40 -96.667 -69.667 -108 -89
s-17 -38 -17 -56c0 -57.333 37 -86 111 -86c25.333 0 54.333 4.33301 87 13l18 -63c-43.333 -21.333 -92.666 -32 -147.999 -32c-60 0 -106.333 12.667 -139 38s-49 59.333 -49 102c0 73.333 50 131 150 173zM774 505c-64 4 -112.667 5.99902 -146 5.99902
c-124 0 -220.333 -20.333 -289 -61s-103 -100 -103 -178c0 -49.333 18.5 -91.333 55.5 -126s90.5 -52 160.5 -52c94.667 0 172.5 34.333 233.5 103s91.5 149.334 91.5 242.001c0 18.667 -1 40.667 -3 66z" />
    <glyph glyph-name="Cacute" unicode="&#x106;" horiz-adv-x="1186" 
d="M989 459l156 -34.999c-74.667 -300.667 -243.334 -451 -506.001 -451c-172.667 0 -308.167 69.667 -406.5 209s-147.5 310.666 -147.5 513.999c0 210 51.333 378.667 154 506s240.334 191 413.001 191c256 0 420.333 -146.333 493 -439l-161 -32
c-58.667 217.333 -169.667 326 -333 326c-120.667 0 -214.167 -50.5 -280.5 -151.5s-99.5 -242.833 -99.5 -425.5c0 -167.333 34 -301.5 102 -402.5s158 -151.5 270 -151.5c174 0 289.333 114 346 342zM966 1677l-414 -189l-43 81l396 228z" />
    <glyph glyph-name="cacute" unicode="&#x107;" horiz-adv-x="954" 
d="M754 354l142.003 -25c-20 -111.333 -64.333 -198.5 -133 -261.5s-154.334 -94.5 -257.001 -94.5c-139.333 0 -245.5 51.333 -318.5 154s-109.5 228 -109.5 376c0 153.333 38.5 280.833 115.5 382.5s181.833 152.5 314.5 152.5c110 0 198.167 -32.833 264.5 -98.5
s107.5 -150.5 123.5 -254.5l-142 -27c-26.667 166.667 -107.334 250 -242.001 250c-86.667 0 -153.334 -36.833 -200.001 -110.5s-70 -169.167 -70 -286.5c0 -129.333 23.167 -229.833 69.5 -301.5s111.5 -107.5 195.5 -107.5c130 0 212.333 84 247 252zM811.003 1356
l-414 -189l-43 81l396 228z" />
    <glyph glyph-name="Ccircumflex" unicode="&#x108;" horiz-adv-x="1186" 
d="M989 459l156 -34.999c-74.667 -300.667 -243.334 -451 -506.001 -451c-172.667 0 -308.167 69.667 -406.5 209s-147.5 310.666 -147.5 513.999c0 210 51.333 378.667 154 506s240.334 191 413.001 191c256 0 420.333 -146.333 493 -439l-161 -32
c-58.667 217.333 -169.667 326 -333 326c-120.667 0 -214.167 -50.5 -280.5 -151.5s-99.5 -242.833 -99.5 -425.5c0 -167.333 34 -301.5 102 -402.5s158 -151.5 270 -151.5c174 0 289.333 114 346 342zM981 1515l-141 -20l-191 134l-184 -134l-147 20l334 260z" />
    <glyph glyph-name="ccircumflex" unicode="&#x109;" horiz-adv-x="954" 
d="M754 354l142.003 -25c-20 -111.333 -64.333 -198.5 -133 -261.5s-154.334 -94.5 -257.001 -94.5c-139.333 0 -245.5 51.333 -318.5 154s-109.5 228 -109.5 376c0 153.333 38.5 280.833 115.5 382.5s181.833 152.5 314.5 152.5c110 0 198.167 -32.833 264.5 -98.5
s107.5 -150.5 123.5 -254.5l-142 -27c-26.667 166.667 -107.334 250 -242.001 250c-86.667 0 -153.334 -36.833 -200.001 -110.5s-70 -169.167 -70 -286.5c0 -129.333 23.167 -229.833 69.5 -301.5s111.5 -107.5 195.5 -107.5c130 0 212.333 84 247 252zM846.003 1194
l-141 -20l-191 134l-184 -134l-147 20l334 260z" />
    <glyph glyph-name="Cdotaccent" unicode="&#x10a;" horiz-adv-x="1186" 
d="M989 459l156 -34.999c-74.667 -300.667 -243.334 -451 -506.001 -451c-172.667 0 -308.167 69.667 -406.5 209s-147.5 310.666 -147.5 513.999c0 210 51.333 378.667 154 506s240.334 191 413.001 191c256 0 420.333 -146.333 493 -439l-161 -32
c-58.667 217.333 -169.667 326 -333 326c-120.667 0 -214.167 -50.5 -280.5 -151.5s-99.5 -242.833 -99.5 -425.5c0 -167.333 34 -301.5 102 -402.5s158 -151.5 270 -151.5c174 0 289.333 114 346 342zM753 1628c0 -28.667 -10.5 -53.001 -31.5 -73.001
s-45.833 -30 -74.5 -30s-53.5 10 -74.5 30s-31.5 44 -31.5 72c0 28.667 10.5 52.834 31.5 72.501s45.167 29.5 72.5 29.5c30 0 55.5 -9.83301 76.5 -29.5s31.5 -43.5 31.5 -71.5z" />
    <glyph glyph-name="cdotaccent" unicode="&#x10b;" horiz-adv-x="954" 
d="M754 354l142.003 -25c-20 -111.333 -64.333 -198.5 -133 -261.5s-154.334 -94.5 -257.001 -94.5c-139.333 0 -245.5 51.333 -318.5 154s-109.5 228 -109.5 376c0 153.333 38.5 280.833 115.5 382.5s181.833 152.5 314.5 152.5c110 0 198.167 -32.833 264.5 -98.5
s107.5 -150.5 123.5 -254.5l-142 -27c-26.667 166.667 -107.334 250 -242.001 250c-86.667 0 -153.334 -36.833 -200.001 -110.5s-70 -169.167 -70 -286.5c0 -129.333 23.167 -229.833 69.5 -301.5s111.5 -107.5 195.5 -107.5c130 0 212.333 84 247 252zM610.003 1304
c0 -28.667 -10.5 -53.001 -31.5 -73.001s-45.833 -30 -74.5 -30s-53.5 10 -74.5 30s-31.5 44 -31.5 72c0 28.667 10.5 52.834 31.5 72.501s45.167 29.5 72.5 29.5c30 0 55.5 -9.83301 76.5 -29.5s31.5 -43.5 31.5 -71.5z" />
    <glyph glyph-name="Ccaron" unicode="&#x10c;" horiz-adv-x="1186" 
d="M989 459l156 -34.999c-74.667 -300.667 -243.334 -451 -506.001 -451c-172.667 0 -308.167 69.667 -406.5 209s-147.5 310.666 -147.5 513.999c0 210 51.333 378.667 154 506s240.334 191 413.001 191c256 0 420.333 -146.333 493 -439l-161 -32
c-58.667 217.333 -169.667 326 -333 326c-120.667 0 -214.167 -50.5 -280.5 -151.5s-99.5 -242.833 -99.5 -425.5c0 -167.333 34 -301.5 102 -402.5s158 -151.5 270 -151.5c174 0 289.333 114 346 342zM318 1741l141 20l191 -133l184 133l147 -20l-334 -259z" />
    <glyph glyph-name="ccaron" unicode="&#x10d;" horiz-adv-x="954" 
d="M754 354l142.003 -25c-20 -111.333 -64.333 -198.5 -133 -261.5s-154.334 -94.5 -257.001 -94.5c-139.333 0 -245.5 51.333 -318.5 154s-109.5 228 -109.5 376c0 153.333 38.5 280.833 115.5 382.5s181.833 152.5 314.5 152.5c110 0 198.167 -32.833 264.5 -98.5
s107.5 -150.5 123.5 -254.5l-142 -27c-26.667 166.667 -107.334 250 -242.001 250c-86.667 0 -153.334 -36.833 -200.001 -110.5s-70 -169.167 -70 -286.5c0 -129.333 23.167 -229.833 69.5 -301.5s111.5 -107.5 195.5 -107.5c130 0 212.333 84 247 252zM176.003 1420
l141 20l191 -133l184 133l147 -20l-334 -259z" />
    <glyph glyph-name="Dcaron" unicode="&#x10e;" horiz-adv-x="1325" 
d="M171 0l0.000976562 1365h458c192.667 0 342.667 -65.667 450 -197s161 -292 161 -482c0 -192.667 -52.333 -355.167 -157 -487.5s-237.334 -198.5 -398.001 -198.5h-514zM342.001 145h277c146.667 0 258 50.667 334 152s114 235 114 401
c0 134.667 -36.167 255.667 -108.5 363s-185.5 161 -339.5 161h-277v-1077zM290.001 1741l141 20l191 -133l184 133l147 -20l-334 -259z" />
    <glyph glyph-name="dcaron" unicode="&#x10f;" horiz-adv-x="1288" 
d="M946 1365v-1365h-143v173c-70.667 -133.333 -177 -200 -319 -200c-118 0 -215 49.5 -291 148.5s-114 224.167 -114 375.5c0 154.667 37.667 283.5 113 386.5s175.333 154.5 300 154.5c121.333 0 220.333 -55.333 297 -166v493h157zM789 620
c0 88.667 -27 159.666 -81 212.999s-117 80 -189 80c-78 0 -142.167 -34.667 -192.5 -104s-75.5 -166.666 -75.5 -291.999c0 -135.333 23.167 -238.333 69.5 -309s109.833 -106 190.5 -106c73.333 0 138 30.667 194 92s84 133.333 84 216v210zM1110 1365h165l-155 -379h-77z
" />
    <glyph glyph-name="Dcroat" unicode="&#x110;" horiz-adv-x="1325" 
d="M35 655l-0.000976562 137h137v573h456c192.667 0 342.667 -65.667 450 -197s161 -291.666 161 -480.999c0 -192.667 -52.167 -355.334 -156.5 -488.001s-237.166 -199 -398.499 -199h-512v655h-137zM341.999 792h326v-137h-326v-510h276c146.667 0 258 50.833 334 152.5
s114 235.167 114 400.5c0 133.333 -36.333 254 -109 362s-185.667 162 -339 162h-276v-430z" />
    <glyph glyph-name="dcroat" unicode="&#x111;" horiz-adv-x="1103" 
d="M790 1365h157.002v-118h137v-116h-137v-1131h-143v173c-70.667 -133.333 -177.334 -200 -320.001 -200c-118 0 -215 49.5 -291 148.5s-114 224.167 -114 375.5c0 154.667 37.667 283.5 113 386.5s175.666 154.5 300.999 154.5c121.333 0 220.333 -55.333 297 -166v259
h-290v116h290v118zM790.002 620c0 88.667 -26.999 159.666 -80.999 212.999s-117.333 80 -190 80c-78 0 -142.167 -34.667 -192.5 -104s-75.5 -166.666 -75.5 -291.999c0 -140 23.667 -244.167 71 -312.5s110.666 -102.5 189.999 -102.5c73.333 0 138 30.667 194 92
s84 133.333 84 216v210z" />
    <glyph glyph-name="Emacron" unicode="&#x112;" horiz-adv-x="1122" 
d="M1054 150v-150h-883v1365h864v-150h-693v-434h550v-139h-550v-492h712zM916 1659v-109h-621v109h621z" />
    <glyph glyph-name="emacron" unicode="&#x113;" horiz-adv-x="1066" 
d="M824 301l145.999 -30c-26.667 -86 -78.667 -157.167 -156 -213.5s-168.333 -84.5 -273 -84.5c-138 0 -249.667 48.5 -335 145.5s-128 224.167 -128 381.5c0 160.667 44.333 290.5 133 389.5s200 148.5 334 148.5c132 0 238.167 -45.667 318.5 -137s121.5 -228 123.5 -410
h-734c0 -152.667 32 -255.667 96 -309s131.667 -80 203 -80c128.667 0 219.334 66.333 272.001 199zM814.999 608c-1.33301 56.667 -10.668 107 -28.001 151s-46.666 81.5 -87.999 112.5s-91 46.5 -149 46.5c-78 0 -144.167 -28 -198.5 -84s-84.833 -131.333 -91.5 -226h555
zM856.997 1345v-109h-621v109h621z" />
    <glyph glyph-name="Ebreve" unicode="&#x114;" horiz-adv-x="1122" 
d="M1054 150v-150h-883v1365h864v-150h-693v-434h550v-139h-550v-492h712zM304 1759h114c16.667 -90.667 77 -136 181 -136c108.667 0 171.667 45.333 189 136h114c-28.667 -170.667 -124 -256 -286 -256c-183.333 0 -287.333 85.333 -312 256z" />
    <glyph glyph-name="ebreve" unicode="&#x115;" horiz-adv-x="1066" 
d="M824 301l145.999 -30c-26.667 -86 -78.667 -157.167 -156 -213.5s-168.333 -84.5 -273 -84.5c-138 0 -249.667 48.5 -335 145.5s-128 224.167 -128 381.5c0 160.667 44.333 290.5 133 389.5s200 148.5 334 148.5c132 0 238.167 -45.667 318.5 -137s121.5 -228 123.5 -410
h-734c0 -152.667 32 -255.667 96 -309s131.667 -80 203 -80c128.667 0 219.334 66.333 272.001 199zM814.999 608c-1.33301 56.667 -10.668 107 -28.001 151s-46.666 81.5 -87.999 112.5s-91 46.5 -149 46.5c-78 0 -144.167 -28 -198.5 -84s-84.833 -131.333 -91.5 -226h555
zM244.997 1438h114c16.667 -90.667 77 -136 181 -136c108.667 0 171.667 45.333 189 136h114c-28.667 -170.667 -124 -256 -286 -256c-183.333 0 -287.333 85.333 -312 256z" />
    <glyph glyph-name="Edotaccent" unicode="&#x116;" horiz-adv-x="1122" 
d="M1054 150v-150h-883v1365h864v-150h-693v-434h550v-139h-550v-492h712zM715 1628c0 -28.667 -10.5 -53.001 -31.5 -73.001s-45.833 -30 -74.5 -30s-53.5 10 -74.5 30s-31.5 44 -31.5 72c0 28.667 10.5 52.834 31.5 72.501s45.167 29.5 72.5 29.5
c30 0 55.5 -9.83301 76.5 -29.5s31.5 -43.5 31.5 -71.5z" />
    <glyph glyph-name="edotaccent" unicode="&#x117;" horiz-adv-x="1066" 
d="M824 301l145.999 -30c-26.667 -86 -78.667 -157.167 -156 -213.5s-168.333 -84.5 -273 -84.5c-138 0 -249.667 48.5 -335 145.5s-128 224.167 -128 381.5c0 160.667 44.333 290.5 133 389.5s200 148.5 334 148.5c132 0 238.167 -45.667 318.5 -137s121.5 -228 123.5 -410
h-734c0 -152.667 32 -255.667 96 -309s131.667 -80 203 -80c128.667 0 219.334 66.333 272.001 199zM814.999 608c-1.33301 56.667 -10.668 107 -28.001 151s-46.666 81.5 -87.999 112.5s-91 46.5 -149 46.5c-78 0 -144.167 -28 -198.5 -84s-84.833 -131.333 -91.5 -226h555
zM652.997 1304c0 -28.667 -10.5 -53.001 -31.5 -73.001s-45.833 -30 -74.5 -30s-53.5 10 -74.5 30s-31.5 44 -31.5 72c0 28.667 10.5 52.834 31.5 72.501s45.167 29.5 72.5 29.5c30 0 55.5 -9.83301 76.5 -29.5s31.5 -43.5 31.5 -71.5z" />
    <glyph glyph-name="Eogonek" unicode="&#x118;" horiz-adv-x="1122" 
d="M1054 0c-89.333 -51.333 -134 -104.001 -134 -158.001c0 -64 38 -96 114 -96c30 0 59.333 4.66699 88 14l18 -69c-44 -22.667 -94 -34 -150 -34c-62 0 -109.667 13.833 -143 41.5s-50 64.834 -50 111.501c0 84.667 52.667 148 158 190h-784v1365h864v-150h-693v-434h550
v-139h-550v-492h712v-150z" />
    <glyph glyph-name="eogonek" unicode="&#x119;" horiz-adv-x="1066" 
d="M866 -211l18 -62.999c-44 -21.333 -92.333 -32 -145 -32c-127.333 0 -191 46.667 -191 140c0 60 34.333 110 103 150c-36.667 -7.33301 -73.334 -11 -110.001 -11c-134.667 0 -245.5 47.333 -332.5 142s-130.5 223 -130.5 385c0 160.667 44.333 290.5 133 389.5
s200 148.5 334 148.5c132 0 238.167 -45.667 318.5 -137s121.5 -228 123.5 -410h-734c0 -152.667 32 -255.667 96 -309s131.667 -80 203 -80c128.667 0 219.334 66.333 272.001 199l146 -30c-20 -68.667 -70 -139.334 -150 -212.001
c-66.667 -60 -108.667 -101.5 -126 -124.5s-26 -47.5 -26 -73.5c0 -56.667 37.333 -85 112 -85c25.333 0 54 4.33301 86 13zM815 608.001c-1.33301 56.667 -10.668 107 -28.001 151s-46.666 81.5 -87.999 112.5s-91 46.5 -149 46.5c-78 0 -144.167 -28 -198.5 -84
s-84.833 -131.333 -91.5 -226h555z" />
    <glyph glyph-name="Ecaron" unicode="&#x11a;" horiz-adv-x="1122" 
d="M1054 150v-150h-883v1365h864v-150h-693v-434h550v-139h-550v-492h712zM274 1741l141 20l191 -133l184 133l147 -20l-334 -259z" />
    <glyph glyph-name="ecaron" unicode="&#x11b;" horiz-adv-x="1066" 
d="M824 301l145.999 -30c-26.667 -86 -78.667 -157.167 -156 -213.5s-168.333 -84.5 -273 -84.5c-138 0 -249.667 48.5 -335 145.5s-128 224.167 -128 381.5c0 160.667 44.333 290.5 133 389.5s200 148.5 334 148.5c132 0 238.167 -45.667 318.5 -137s121.5 -228 123.5 -410
h-734c0 -152.667 32 -255.667 96 -309s131.667 -80 203 -80c128.667 0 219.334 66.333 272.001 199zM814.999 608c-1.33301 56.667 -10.668 107 -28.001 151s-46.666 81.5 -87.999 112.5s-91 46.5 -149 46.5c-78 0 -144.167 -28 -198.5 -84s-84.833 -131.333 -91.5 -226h555
zM214.997 1420l141 20l191 -133l184 133l147 -20l-334 -259z" />
    <glyph glyph-name="Gcircumflex" unicode="&#x11c;" horiz-adv-x="1325" 
d="M1182 688v-705.999h-105l-47 171c-84 -120 -209 -180 -375 -180c-180 0 -320 67.667 -420 203s-150 299.666 -150 492.999c0 206.667 53 379 159 517s250 207 432 207c251.333 0 415.333 -132 492 -396l-162 -39c-23.333 101.333 -67 175 -131 221s-134 69 -210 69
c-134.667 0 -234 -54.333 -298 -163s-96 -245 -96 -409c0 -176.667 35.833 -314.834 107.5 -414.501s169.167 -149.5 292.5 -149.5c96 0 176.167 31.833 240.5 95.5s96.5 151.5 96.5 263.5c0 20.667 -0.666992 45.334 -2 74.001h-338v143h514zM1003 1515l-141 -20l-191 134
l-184 -134l-147 20l334 260z" />
    <glyph glyph-name="gcircumflex" unicode="&#x11d;" horiz-adv-x="1006" 
d="M982 1168l0.000976562 -125.002c-72 0 -120.167 -8.33301 -144.5 -25s-40.5 -46.667 -48.5 -90c64.667 -74.667 97 -156 97 -244c0 -92 -35.167 -171 -105.5 -237s-164.833 -99 -283.5 -99c-26.667 0 -49.667 2 -69 6c-36.667 7.33301 -59.667 11 -69 11
c-18 0 -39.667 -8.83301 -65 -26.5s-38 -40.5 -38 -68.5c0 -40 18.333 -66 55 -78s123 -19.667 259 -23c115.333 -3.33301 200.5 -11.166 255.5 -23.499s101.5 -39.666 139.5 -81.999s57 -94.166 57 -155.499c0 -192.667 -169.333 -289 -508 -289
c-160.667 0 -277.834 24.167 -351.501 72.5s-110.5 112.833 -110.5 193.5c0 98 51.333 165.333 154 202c-66 43.333 -99 97.666 -99 162.999c0 78 46.667 137.667 140 179c-87.333 70.667 -131 159.667 -131 267c0 100 37.333 182 112 246s165.667 96 273 96
c76 0 145 -14.333 207 -43c10 66 33.167 111.667 69.5 137s91.5 38 165.5 38c7.33301 0 20.333 -0.666992 39 -2zM502.001 467.998c66.667 0 121.001 20.499 163.001 61.499s63 94.167 63 159.5c0 66.667 -21.833 121.167 -65.5 163.5s-96.5 63.5 -158.5 63.5
c-59.333 0 -112 -19.833 -158 -59.5s-69 -96.167 -69 -169.5c0 -65.333 20.667 -118.166 62 -158.499s95.666 -60.5 162.999 -60.5zM314.002 40.9971c-73.333 -32 -109.999 -78.335 -109.999 -139.002c0 -51.333 30.167 -91.166 90.5 -119.499s137.166 -42.5 230.499 -42.5
c86.667 0 166 12.167 238 36.5s108 65.5 108 123.5c0 31.333 -10.667 57 -32 77s-50.5 32.667 -87.5 38s-101.5 9.33301 -193.5 12c-110 2.66699 -191.333 7.33398 -244 14.001zM834.003 1194l-141 -20l-191 134l-184 -134l-147 20l334 260z" />
    <glyph glyph-name="Gbreve" unicode="&#x11e;" horiz-adv-x="1325" 
d="M1182 688v-705.999h-105l-47 171c-84 -120 -209 -180 -375 -180c-180 0 -320 67.667 -420 203s-150 299.666 -150 492.999c0 206.667 53 379 159 517s250 207 432 207c251.333 0 415.333 -132 492 -396l-162 -39c-23.333 101.333 -67 175 -131 221s-134 69 -210 69
c-134.667 0 -234 -54.333 -298 -163s-96 -245 -96 -409c0 -176.667 35.833 -314.834 107.5 -414.501s169.167 -149.5 292.5 -149.5c96 0 176.167 31.833 240.5 95.5s96.5 151.5 96.5 263.5c0 20.667 -0.666992 45.334 -2 74.001h-338v143h514zM375 1759h114
c16.667 -90.667 77 -136 181 -136c108.667 0 171.667 45.333 189 136h114c-28.667 -170.667 -124 -256 -286 -256c-183.333 0 -287.333 85.333 -312 256z" />
    <glyph glyph-name="gbreve" unicode="&#x11f;" horiz-adv-x="1006" 
d="M982 1168l0.000976562 -125.002c-72 0 -120.167 -8.33301 -144.5 -25s-40.5 -46.667 -48.5 -90c64.667 -74.667 97 -156 97 -244c0 -92 -35.167 -171 -105.5 -237s-164.833 -99 -283.5 -99c-26.667 0 -49.667 2 -69 6c-36.667 7.33301 -59.667 11 -69 11
c-18 0 -39.667 -8.83301 -65 -26.5s-38 -40.5 -38 -68.5c0 -40 18.333 -66 55 -78s123 -19.667 259 -23c115.333 -3.33301 200.5 -11.166 255.5 -23.499s101.5 -39.666 139.5 -81.999s57 -94.166 57 -155.499c0 -192.667 -169.333 -289 -508 -289
c-160.667 0 -277.834 24.167 -351.501 72.5s-110.5 112.833 -110.5 193.5c0 98 51.333 165.333 154 202c-66 43.333 -99 97.666 -99 162.999c0 78 46.667 137.667 140 179c-87.333 70.667 -131 159.667 -131 267c0 100 37.333 182 112 246s165.667 96 273 96
c76 0 145 -14.333 207 -43c10 66 33.167 111.667 69.5 137s91.5 38 165.5 38c7.33301 0 20.333 -0.666992 39 -2zM502.001 467.998c66.667 0 121.001 20.499 163.001 61.499s63 94.167 63 159.5c0 66.667 -21.833 121.167 -65.5 163.5s-96.5 63.5 -158.5 63.5
c-59.333 0 -112 -19.833 -158 -59.5s-69 -96.167 -69 -169.5c0 -65.333 20.667 -118.166 62 -158.499s95.666 -60.5 162.999 -60.5zM314.002 40.9971c-73.333 -32 -109.999 -78.335 -109.999 -139.002c0 -51.333 30.167 -91.166 90.5 -119.499s137.166 -42.5 230.499 -42.5
c86.667 0 166 12.167 238 36.5s108 65.5 108 123.5c0 31.333 -10.667 57 -32 77s-50.5 32.667 -87.5 38s-101.5 9.33301 -193.5 12c-110 2.66699 -191.333 7.33398 -244 14.001zM213.003 1438h114c16.667 -90.667 77 -136 181 -136c108.667 0 171.667 45.333 189 136h114
c-28.667 -170.667 -124 -256 -286 -256c-183.333 0 -287.333 85.333 -312 256z" />
    <glyph glyph-name="Gdotaccent" unicode="&#x120;" horiz-adv-x="1325" 
d="M1182 688v-705.999h-105l-47 171c-84 -120 -209 -180 -375 -180c-180 0 -320 67.667 -420 203s-150 299.666 -150 492.999c0 206.667 53 379 159 517s250 207 432 207c251.333 0 415.333 -132 492 -396l-162 -39c-23.333 101.333 -67 175 -131 221s-134 69 -210 69
c-134.667 0 -234 -54.333 -298 -163s-96 -245 -96 -409c0 -176.667 35.833 -314.834 107.5 -414.501s169.167 -149.5 292.5 -149.5c96 0 176.167 31.833 240.5 95.5s96.5 151.5 96.5 263.5c0 20.667 -0.666992 45.334 -2 74.001h-338v143h514zM778 1628
c0 -28.667 -10.5 -53.001 -31.5 -73.001s-45.833 -30 -74.5 -30s-53.5 10 -74.5 30s-31.5 44 -31.5 72c0 28.667 10.5 52.834 31.5 72.501s45.167 29.5 72.5 29.5c30 0 55.5 -9.83301 76.5 -29.5s31.5 -43.5 31.5 -71.5z" />
    <glyph glyph-name="gdotaccent" unicode="&#x121;" horiz-adv-x="1006" 
d="M982 1168l0.000976562 -125.002c-72 0 -120.167 -8.33301 -144.5 -25s-40.5 -46.667 -48.5 -90c64.667 -74.667 97 -156 97 -244c0 -92 -35.167 -171 -105.5 -237s-164.833 -99 -283.5 -99c-26.667 0 -49.667 2 -69 6c-36.667 7.33301 -59.667 11 -69 11
c-18 0 -39.667 -8.83301 -65 -26.5s-38 -40.5 -38 -68.5c0 -40 18.333 -66 55 -78s123 -19.667 259 -23c115.333 -3.33301 200.5 -11.166 255.5 -23.499s101.5 -39.666 139.5 -81.999s57 -94.166 57 -155.499c0 -192.667 -169.333 -289 -508 -289
c-160.667 0 -277.834 24.167 -351.501 72.5s-110.5 112.833 -110.5 193.5c0 98 51.333 165.333 154 202c-66 43.333 -99 97.666 -99 162.999c0 78 46.667 137.667 140 179c-87.333 70.667 -131 159.667 -131 267c0 100 37.333 182 112 246s165.667 96 273 96
c76 0 145 -14.333 207 -43c10 66 33.167 111.667 69.5 137s91.5 38 165.5 38c7.33301 0 20.333 -0.666992 39 -2zM502.001 467.998c66.667 0 121.001 20.499 163.001 61.499s63 94.167 63 159.5c0 66.667 -21.833 121.167 -65.5 163.5s-96.5 63.5 -158.5 63.5
c-59.333 0 -112 -19.833 -158 -59.5s-69 -96.167 -69 -169.5c0 -65.333 20.667 -118.166 62 -158.499s95.666 -60.5 162.999 -60.5zM314.002 40.9971c-73.333 -32 -109.999 -78.335 -109.999 -139.002c0 -51.333 30.167 -91.166 90.5 -119.499s137.166 -42.5 230.499 -42.5
c86.667 0 166 12.167 238 36.5s108 65.5 108 123.5c0 31.333 -10.667 57 -32 77s-50.5 32.667 -87.5 38s-101.5 9.33301 -193.5 12c-110 2.66699 -191.333 7.33398 -244 14.001zM614.003 1304c0 -28.667 -10.5 -53.001 -31.5 -73.001s-45.833 -30 -74.5 -30
s-53.5 10 -74.5 30s-31.5 44 -31.5 72c0 28.667 10.5 52.834 31.5 72.501s45.167 29.5 72.5 29.5c30 0 55.5 -9.83301 76.5 -29.5s31.5 -43.5 31.5 -71.5z" />
    <glyph glyph-name="Gcommaaccent" unicode="&#x122;" horiz-adv-x="1325" 
d="M1182 688v-705.999h-105l-47 171c-84 -120 -209 -180 -375 -180c-180 0 -320 67.667 -420 203s-150 299.666 -150 492.999c0 206.667 53 379 159 517s250 207 432 207c251.333 0 415.333 -132 492 -396l-162 -39c-23.333 101.333 -67 175 -131 221s-134 69 -210 69
c-134.667 0 -234 -54.333 -298 -163s-96 -245 -96 -409c0 -176.667 35.833 -314.834 107.5 -414.501s169.167 -149.5 292.5 -149.5c96 0 176.167 31.833 240.5 95.5s96.5 151.5 96.5 263.5c0 20.667 -0.666992 45.334 -2 74.001h-338v143h514zM576 -118.999h166l-155 -361
h-77z" />
    <glyph glyph-name="gcommaaccent" unicode="&#x123;" horiz-adv-x="1006" 
d="M982 1168l0.000976562 -125.002c-72 0 -120.167 -8.33301 -144.5 -25s-40.5 -46.667 -48.5 -90c64.667 -74.667 97 -156 97 -244c0 -92 -35.167 -171 -105.5 -237s-164.833 -99 -283.5 -99c-26.667 0 -49.667 2 -69 6c-36.667 7.33301 -59.667 11 -69 11
c-18 0 -39.667 -8.83301 -65 -26.5s-38 -40.5 -38 -68.5c0 -40 18.333 -66 55 -78s123 -19.667 259 -23c115.333 -3.33301 200.5 -11.166 255.5 -23.499s101.5 -39.666 139.5 -81.999s57 -94.166 57 -155.499c0 -192.667 -169.333 -289 -508 -289
c-160.667 0 -277.834 24.167 -351.501 72.5s-110.5 112.833 -110.5 193.5c0 98 51.333 165.333 154 202c-66 43.333 -99 97.666 -99 162.999c0 78 46.667 137.667 140 179c-87.333 70.667 -131 159.667 -131 267c0 100 37.333 182 112 246s165.667 96 273 96
c76 0 145 -14.333 207 -43c10 66 33.167 111.667 69.5 137s91.5 38 165.5 38c7.33301 0 20.333 -0.666992 39 -2zM502.001 467.998c66.667 0 121.001 20.499 163.001 61.499s63 94.167 63 159.5c0 66.667 -21.833 121.167 -65.5 163.5s-96.5 63.5 -158.5 63.5
c-59.333 0 -112 -19.833 -158 -59.5s-69 -96.167 -69 -169.5c0 -65.333 20.667 -118.166 62 -158.499s95.666 -60.5 162.999 -60.5zM314.002 40.9971c-73.333 -32 -109.999 -78.335 -109.999 -139.002c0 -51.333 30.167 -91.166 90.5 -119.499s137.166 -42.5 230.499 -42.5
c86.667 0 166 12.167 238 36.5s108 65.5 108 123.5c0 31.333 -10.667 57 -32 77s-50.5 32.667 -87.5 38s-101.5 9.33301 -193.5 12c-110 2.66699 -191.333 7.33398 -244 14.001zM567.003 1205h-165l155 379h77z" />
    <glyph glyph-name="Hcircumflex" unicode="&#x124;" horiz-adv-x="1316" 
d="M1146 0h-171v650h-633v-650h-171v1365h171v-565h633v565h171v-1365zM990 1515l-141 -20l-191 134l-184 -134l-147 20l334 260z" />
    <glyph glyph-name="hcircumflex" unicode="&#x125;" horiz-adv-x="1106" 
d="M949 0h-156.999v613c0 72 -4.5 126 -13.5 162s-30.333 67.167 -64 93.5s-72.5 39.5 -116.5 39.5c-80.667 0 -148.167 -33 -202.5 -99s-81.5 -154.333 -81.5 -265v-544h-157v1365h157v-541c71.333 142.667 173.333 214 306 214c59.333 0 112.166 -11.667 158.499 -35
s81.833 -54 106.5 -92s41.5 -75.5 50.5 -112.5s13.5 -98.833 13.5 -185.5v-613zM591.001 1515l-141 -20l-191 134l-184 -134l-147 20l334 260z" />
    <glyph glyph-name="Hbar" unicode="&#x126;" horiz-adv-x="1316" 
d="M171 1164v201h170v-201h634v201h171v-201h129v-137h-129v-1027h-171v650h-634v-650h-170v1027h-130v137h130zM975 1027h-634v-227h634v227z" />
    <glyph glyph-name="hbar" unicode="&#x127;" horiz-adv-x="1106" 
d="M21 1131v116.001h137v118h157v-118h290v-116h-290v-307c71.333 142.667 174.333 214 309 214c57.333 0 109 -11.833 155 -35.5s81.5 -54.5 106.5 -92.5s41.833 -75.333 50.5 -112s13 -98.334 13 -185.001v-613h-157v613c0 72 -4.33301 126 -13 162s-30 67.167 -64 93.5
s-72.667 39.5 -116 39.5c-80.667 0 -148.167 -33 -202.5 -99s-81.5 -154.333 -81.5 -265v-544h-157v1131h-137z" />
    <glyph glyph-name="Itilde" unicode="&#x128;" horiz-adv-x="512" 
d="M342 0h-171v1365h171v-1365zM521 1701l76.999 -72c-70.667 -67.333 -138 -101 -202 -101c-32.667 0 -75.667 11.667 -129 35c-58 25.333 -102.667 38 -134 38c-54 0 -99 -22 -135 -66l-84 58c58.667 85.333 133.334 128 224.001 128c30.667 0 73.334 -11.333 128.001 -34
c59.333 -24.667 102 -37 128 -37c43.333 0 85.666 17 126.999 51z" />
    <glyph glyph-name="itilde" unicode="&#x129;" horiz-adv-x="470" 
d="M313 1010v-1010h-157v1010h157zM500 1380l76.999 -72c-70.667 -67.333 -138 -101 -202 -101c-32.667 0 -75.667 11.667 -129 35c-58 25.333 -102.667 38 -134 38c-54 0 -99 -22 -135 -66l-84 58c58.667 85.333 133.334 128 224.001 128
c30.667 0 73.334 -11.333 128.001 -34c59.333 -24.667 102 -37 128 -37c43.333 0 85.666 17 126.999 51z" />
    <glyph glyph-name="Imacron" unicode="&#x12a;" horiz-adv-x="512" 
d="M342 0h-171v1365h171v-1365zM567 1659v-109h-621v109h621z" />
    <glyph glyph-name="imacron" unicode="&#x12b;" horiz-adv-x="470" 
d="M313 1010v-1010h-157v1010h157zM545 1345v-109h-621v109h621z" />
    <glyph glyph-name="Ibreve" unicode="&#x12c;" horiz-adv-x="512" 
d="M342 0h-171v1365h171v-1365zM-43 1759h114c16.667 -90.667 77 -136 181 -136c108.667 0 171.667 45.333 189 136h114c-28.667 -170.667 -124 -256 -286 -256c-183.333 0 -287.333 85.333 -312 256z" />
    <glyph glyph-name="ibreve" unicode="&#x12d;" horiz-adv-x="470" 
d="M313 1010v-1010h-157v1010h157zM-64 1438h114c16.667 -90.667 77 -136 181 -136c108.667 0 171.667 45.333 189 136h114c-28.667 -170.667 -124 -256 -286 -256c-183.333 0 -287.333 85.333 -312 256z" />
    <glyph glyph-name="Iogonek" unicode="&#x12e;" horiz-adv-x="512" 
d="M245 0l-74 -0.00195312v1365h171v-1365c-71.333 -47.333 -107 -99.666 -107 -156.999c0 -64.667 33 -97 99 -97c19.333 0 44.333 4.66699 75 14l19 -69c-46 -22.667 -91.667 -34 -137 -34c-58 0 -102.333 14.333 -133 43s-46 65.334 -46 110.001
c0 76.667 44.333 140 133 190z" />
    <glyph glyph-name="iogonek" unicode="&#x12f;" horiz-adv-x="470" 
d="M320 1365v-174h-170v174h170zM314 0c-62 -42.667 -93 -91.667 -93 -147c0 -56.667 30 -85 90 -85c24 0 49.333 4.66699 76 14l18 -63c-44.667 -21.333 -90.667 -32 -138 -32c-59.333 0 -101.833 14 -127.5 42s-38.5 61.333 -38.5 100c0 70 41.667 127 125 171h-69v1010
h157v-1010z" />
    <glyph glyph-name="Idotaccent" unicode="&#x130;" horiz-adv-x="512" 
d="M339 0h-171v1365h171v-1365zM359 1628c0 -28.667 -10.5 -53.001 -31.5 -73.001s-45.833 -30 -74.5 -30s-53.5 10 -74.5 30s-31.5 44 -31.5 72c0 28.667 10.5 52.834 31.5 72.501s45.167 29.5 72.5 29.5c30 0 55.5 -9.83301 76.5 -29.5s31.5 -43.5 31.5 -71.5z" />
    <glyph glyph-name="dotlessi" unicode="&#x131;" horiz-adv-x="470" 
d="M313 1010v-1010h-157v1010h157z" />
    <glyph glyph-name="IJ" unicode="&#x132;" horiz-adv-x="1270" 
d="M342 0h-171v1365h171v-1365zM1113 1365l0.00195312 -948.001c0 -165.333 -37.333 -280.666 -112 -345.999s-173.667 -98 -297 -98c-66 0 -132 9 -198 27v140c65.333 -13.333 124.666 -20 177.999 -20c75.333 0 131.166 11.333 167.499 34s60.5 52 72.5 88
s18 94.333 18 175v948h171z" />
    <glyph glyph-name="ij" unicode="&#x133;" horiz-adv-x="932" 
d="M319 1365v-174h-169v174h169zM785 1365v-174h-179v174h179zM777 1021v-1052c0 -118.667 -28.167 -201.334 -84.5 -248.001s-125.5 -70 -207.5 -70c-39.333 0 -88 7 -146 21v124c42.667 -10.667 81 -16 115 -16c61.333 0 104.333 14.833 129 44.5s37 77.834 37 144.501
v1052h157zM314 1010v-1010h-157v1010h157z" />
    <glyph glyph-name="Jcircumflex" unicode="&#x134;" horiz-adv-x="765" 
d="M608 1365l0.000976562 -948.001c0 -165.333 -37.333 -280.666 -112 -345.999s-173.667 -98 -297 -98c-66 0 -132.333 9 -199 27v140c65.333 -13.333 124.666 -20 177.999 -20c76 0 132 11.333 168 34s60.167 52 72.5 88s18.5 94.333 18.5 175v948h171zM840.001 1515
l-141 -20l-191 134l-184 -134l-147 20l334 260z" />
    <glyph glyph-name="jcircumflex" unicode="&#x135;" horiz-adv-x="469" 
d="M563 1194l-141 -20l-191 134l-184 -134l-147 20l334 260zM314 1021l0.000976562 -1052c0 -123.333 -29.833 -207.166 -89.5 -251.499s-122.167 -66.5 -187.5 -66.5c-39.333 0 -93 7 -161 21v124c43.333 -10.667 82 -16 116 -16c57.333 0 99.166 14 125.499 42
s39.5 77 39.5 147v1052h157z" />
    <glyph glyph-name="Kcommaaccent" unicode="&#x136;" horiz-adv-x="1287" 
d="M1250 0h-187l-408 753l-313 -389v-364h-171v1365h171v-792l617 792h185l-370 -478zM606 -119h166l-155 -361h-77z" />
    <glyph glyph-name="kcommaaccent" unicode="&#x137;" horiz-adv-x="1026" 
d="M991 0h-163l-295 564l-219 -252v-312h-157v1365h157v-874l469 519h168l-316 -355zM479 -109h166l-155 -361h-77z" />
    <glyph glyph-name="kgreenlandic" unicode="&#x138;" horiz-adv-x="1026" 
d="M991 0h-163l-295 564l-219 -251v-313h-157v1010h157v-517l469 517h168l-316 -355z" />
    <glyph glyph-name="Lacute" unicode="&#x139;" horiz-adv-x="1003" 
d="M977 150v-150h-806v1365h175v-1215h631zM597 1677l-414 -189l-43 81l396 228z" />
    <glyph glyph-name="lacute" unicode="&#x13a;" horiz-adv-x="471" 
d="M314 0h-157v1365h157v-1365zM571 1677l-414 -189l-43 81l396 228z" />
    <glyph glyph-name="Lcommaaccent" unicode="&#x13b;" horiz-adv-x="1003" 
d="M977 150v-150h-806v1365h175v-1215h631zM511 -119h166l-155 -361h-77z" />
    <glyph glyph-name="lcommaaccent" unicode="&#x13c;" horiz-adv-x="471" 
d="M314 0h-157v1365h157v-1365zM156 -109h166l-155 -361h-77z" />
    <glyph glyph-name="Lcaron" unicode="&#x13d;" horiz-adv-x="1003" 
d="M977 150v-150h-806v1365h175v-1215h631zM624 1365h165l-155 -379h-77z" />
    <glyph glyph-name="lcaron" unicode="&#x13e;" horiz-adv-x="643" 
d="M314 0h-157v1365h157v-1365zM478 1365h165l-155 -379h-77z" />
    <glyph glyph-name="Ldot" unicode="&#x13f;" horiz-adv-x="1003" 
d="M977 150v-150h-806v1365h175v-1215h631zM870 809v-224h-223v224h223z" />
    <glyph glyph-name="ldot" unicode="&#x140;" horiz-adv-x="694" 
d="M314 0h-157v1365h157v-1365zM664 779v-165h-164v165h164z" />
    <glyph glyph-name="Lslash" unicode="&#x141;" horiz-adv-x="1003" 
d="M977 150v-150h-803v527l-134 -127v164l134 127v674h175v-566l258 233v-164l-258 -233v-485h628z" />
    <glyph glyph-name="lslash" unicode="&#x142;" horiz-adv-x="471" 
d="M157 596l-134 -132v151l134 132v618h157v-531l134 127v-151l-134 -127v-683h-157v596z" />
    <glyph glyph-name="Nacute" unicode="&#x143;" horiz-adv-x="1346" 
d="M1176 0h-166l-706 1190l2 -90c2 -34 3 -62.667 3 -86v-1014h-138v1365h214l660 -1113l-2 95c-1.33301 37.333 -2 70.333 -2 99v919h135v-1365zM993 1677l-414 -189l-43 81l396 228z" />
    <glyph glyph-name="nacute" unicode="&#x144;" horiz-adv-x="1110" 
d="M953 0h-147v649c0 93.333 -20.333 159 -61 197s-90 57 -148 57c-80 0 -147.167 -32 -201.5 -96s-81.5 -148.333 -81.5 -253v-554h-157v1010h146v-186c82 142.667 188.333 214 319 214c75.333 0 139.5 -19.5 192.5 -58.5s89.333 -82.833 109 -131.5
s29.5 -136.667 29.5 -264v-584zM865 1356l-414 -189l-43 81l396 228z" />
    <glyph glyph-name="Ncommaaccent" unicode="&#x145;" horiz-adv-x="1346" 
d="M1176 0h-166l-706 1190l2 -90c2 -34 3 -62.667 3 -86v-1014h-138v1365h214l660 -1113l-2 95c-1.33301 37.333 -2 70.333 -2 99v919h135v-1365zM601 -119h166l-155 -361h-77z" />
    <glyph glyph-name="ncommaaccent" unicode="&#x146;" horiz-adv-x="1110" 
d="M953 0h-147v649c0 93.333 -20.333 159 -61 197s-90 57 -148 57c-80 0 -147.167 -32 -201.5 -96s-81.5 -148.333 -81.5 -253v-554h-157v1010h146v-186c82 142.667 188.333 214 319 214c75.333 0 139.5 -19.5 192.5 -58.5s89.333 -82.833 109 -131.5
s29.5 -136.667 29.5 -264v-584zM485 -109h166l-155 -361h-77z" />
    <glyph glyph-name="Ncaron" unicode="&#x147;" horiz-adv-x="1346" 
d="M1176 0h-166l-706 1190l2 -90c2 -34 3 -62.667 3 -86v-1014h-138v1365h214l660 -1113l-2 95c-1.33301 37.333 -2 70.333 -2 99v919h135v-1365zM342 1741l141 20l191 -133l184 133l147 -20l-334 -259z" />
    <glyph glyph-name="ncaron" unicode="&#x148;" horiz-adv-x="1110" 
d="M953 0h-147v649c0 93.333 -20.333 159 -61 197s-90 57 -148 57c-80 0 -147.167 -32 -201.5 -96s-81.5 -148.333 -81.5 -253v-554h-157v1010h146v-186c82 142.667 188.333 214 319 214c75.333 0 139.5 -19.5 192.5 -58.5s89.333 -82.833 109 -131.5
s29.5 -136.667 29.5 -264v-584zM223 1420l141 20l191 -133l184 133l147 -20l-334 -259z" />
    <glyph glyph-name="napostrophe" unicode="&#x149;" horiz-adv-x="1383" 
d="M1226 0h-147v649c0 93.333 -20.333 159 -61 197s-90 57 -148 57c-80 0 -147.167 -32 -201.5 -96s-81.5 -148.333 -81.5 -253v-554h-157v1010h146v-186c82 142.667 188.333 214 319 214c75.333 0 139.5 -19.5 192.5 -58.5s89.333 -82.833 109 -131.5
s29.5 -136.667 29.5 -264v-584zM348 1365v-203l-135 -239h-70l99 239h-99v203h205z" />
    <glyph glyph-name="Eng" unicode="&#x14a;" horiz-adv-x="1316" 
d="M171 1365l156.003 0.00195312v-251c55.333 97.333 115 168.166 179 212.499s141.333 66.5 232 66.5c93.333 0 172.5 -24.667 237.5 -74s109.667 -107.333 134 -174s36.5 -185 36.5 -355v-712c0 -164 -35 -276.667 -105 -338s-145.667 -92 -227 -92
c-40.667 0 -96.334 7.33301 -167.001 22v139c53.333 -13.333 97.666 -20 132.999 -20c68.667 0 118.334 21.167 149.001 63.5s46 110.166 46 203.499v855c0 124.667 -24.833 213 -74.5 265s-112.167 78 -187.5 78c-50.667 0 -104.834 -15 -162.501 -45
s-106.834 -83 -147.501 -159s-61 -165 -61 -267v-783h-171v1365z" />
    <glyph glyph-name="eng" unicode="&#x14b;" horiz-adv-x="1110" 
d="M157 1010l146 -0.000976562v-186c82 142.667 188.333 214 319 214c75.333 0 139.5 -19.5 192.5 -58.5s89.333 -82.833 109 -131.5s29.5 -136.667 29.5 -264v-615c0 -123.333 -30 -207.166 -90 -251.499s-122.333 -66.5 -187 -66.5c-40 0 -93.667 7 -161 21v124
c42.667 -10.667 81 -16 115 -16c59.333 0 101.666 14.5 126.999 43.5s38 77.5 38 145.5v680c0 92.667 -19 158.167 -57 196.5s-85.333 57.5 -142 57.5c-79.333 0 -146.166 -32 -200.499 -96s-81.5 -148.333 -81.5 -253v-554h-157v1010z" />
    <glyph glyph-name="Omacron" unicode="&#x14c;" horiz-adv-x="1292" 
d="M642 -27c-175.333 0 -312 68.165 -410 204.498s-147 303.5 -147 501.5c0 206.667 51.333 377.334 154 512.001s238.667 202 408 202c168.667 0 304 -66.167 406 -198.5s153 -299.166 153 -500.499c0 -193.333 -49.5 -361.833 -148.5 -505.5s-237.5 -215.5 -415.5 -215.5z
M646 111.998c119.333 0 212.668 54.333 280.001 163s101 248.667 101 420c0 176 -34.833 313 -104.5 411s-162.167 147 -277.5 147c-116.667 0 -209.334 -53 -278.001 -159s-103 -244.667 -103 -416c0 -167.333 34.667 -303.5 104 -408.5s162 -157.5 278 -157.5z
M956.002 1659v-109h-621v109h621z" />
    <glyph glyph-name="omacron" unicode="&#x14d;" horiz-adv-x="1064" 
d="M519 -27c-138.667 0 -246.832 51.333 -324.499 154s-116.5 230 -116.5 382c0 160.667 43.667 289 131 385s196 144 326 144c139.333 0 249.166 -50.5 329.499 -151.5s120.5 -227.167 120.5 -378.5c0 -157.333 -43.333 -285.833 -130 -385.5s-198.667 -149.5 -336 -149.5z
M531.002 102c80 0 147 33 201 99s81 168.667 81 308c0 140 -28.333 241.5 -85 304.5s-123 94.5 -199 94.5c-78 0 -144 -31.833 -198 -95.5s-81 -164.5 -81 -302.5c0 -146 27 -250.5 81 -313.5s120.667 -94.5 200 -94.5zM842.002 1345v-109h-621v109h621z" />
    <glyph glyph-name="Obreve" unicode="&#x14e;" horiz-adv-x="1292" 
d="M642 -27c-175.333 0 -312 68.165 -410 204.498s-147 303.5 -147 501.5c0 206.667 51.333 377.334 154 512.001s238.667 202 408 202c168.667 0 304 -66.167 406 -198.5s153 -299.166 153 -500.499c0 -193.333 -49.5 -361.833 -148.5 -505.5s-237.5 -215.5 -415.5 -215.5z
M646 111.998c119.333 0 212.668 54.333 280.001 163s101 248.667 101 420c0 176 -34.833 313 -104.5 411s-162.167 147 -277.5 147c-116.667 0 -209.334 -53 -278.001 -159s-103 -244.667 -103 -416c0 -167.333 34.667 -303.5 104 -408.5s162 -157.5 278 -157.5z
M347.002 1759h114c16.667 -90.667 77 -136 181 -136c108.667 0 171.667 45.333 189 136h114c-28.667 -170.667 -124 -256 -286 -256c-183.333 0 -287.333 85.333 -312 256z" />
    <glyph glyph-name="obreve" unicode="&#x14f;" horiz-adv-x="1064" 
d="M519 -27c-138.667 0 -246.832 51.333 -324.499 154s-116.5 230 -116.5 382c0 160.667 43.667 289 131 385s196 144 326 144c139.333 0 249.166 -50.5 329.499 -151.5s120.5 -227.167 120.5 -378.5c0 -157.333 -43.333 -285.833 -130 -385.5s-198.667 -149.5 -336 -149.5z
M531.002 102c80 0 147 33 201 99s81 168.667 81 308c0 140 -28.333 241.5 -85 304.5s-123 94.5 -199 94.5c-78 0 -144 -31.833 -198 -95.5s-81 -164.5 -81 -302.5c0 -146 27 -250.5 81 -313.5s120.667 -94.5 200 -94.5zM233.002 1438h114c16.667 -90.667 77 -136 181 -136
c108.667 0 171.667 45.333 189 136h114c-28.667 -170.667 -124 -256 -286 -256c-183.333 0 -287.333 85.333 -312 256z" />
    <glyph glyph-name="Ohungarumlaut" unicode="&#x150;" horiz-adv-x="1292" 
d="M642 -27c-175.333 0 -312 68.165 -410 204.498s-147 303.5 -147 501.5c0 206.667 51.333 377.334 154 512.001s238.667 202 408 202c168.667 0 304 -66.167 406 -198.5s153 -299.166 153 -500.499c0 -193.333 -49.5 -361.833 -148.5 -505.5s-237.5 -215.5 -415.5 -215.5z
M646 111.998c119.333 0 212.668 54.333 280.001 163s101 248.667 101 420c0 176 -34.833 313 -104.5 411s-162.167 147 -277.5 147c-116.667 0 -209.334 -53 -278.001 -159s-103 -244.667 -103 -416c0 -167.333 34.667 -303.5 104 -408.5s162 -157.5 278 -157.5z
M757.002 1686l-322 -198l-51 78l303 231zM1084 1686l-322 -198l-50 78l303 231z" />
    <glyph glyph-name="ohungarumlaut" unicode="&#x151;" horiz-adv-x="1064" 
d="M519 -27c-138.667 0 -246.832 51.333 -324.499 154s-116.5 230 -116.5 382c0 160.667 43.667 289 131 385s196 144 326 144c139.333 0 249.166 -50.5 329.499 -151.5s120.5 -227.167 120.5 -378.5c0 -157.333 -43.333 -285.833 -130 -385.5s-198.667 -149.5 -336 -149.5z
M531.002 102c80 0 147 33 201 99s81 168.667 81 308c0 140 -28.333 241.5 -85 304.5s-123 94.5 -199 94.5c-78 0 -144 -31.833 -198 -95.5s-81 -164.5 -81 -302.5c0 -146 27 -250.5 81 -313.5s120.667 -94.5 200 -94.5zM654.002 1365l-322 -198l-51 78l303 231z
M981.002 1365l-322 -198l-50 78l303 231z" />
    <glyph glyph-name="OE" unicode="&#x152;" horiz-adv-x="1972" 
d="M1904 150l-0.000976562 -149.999h-866v143c-88.667 -113.333 -209.667 -170 -363 -170c-176 0 -318.333 67.167 -427 201.5s-163 302.166 -163 503.499s54 370.833 162 508.5s253 206.5 435 206.5c146.667 0 265.334 -55.667 356.001 -167v139h866v-150h-685v-434h551
v-139h-551v-492h685zM1038 995.001c-16.667 79.333 -58.5 142.167 -125.5 188.5s-143.5 69.5 -229.5 69.5c-131.333 0 -234 -53.167 -308 -159.5s-111 -243.5 -111 -411.5c0 -164.667 36.5 -300.834 109.5 -408.501s174.5 -161.5 304.5 -161.5
c79.333 0 152.833 21.833 220.5 65.5s114.167 116.834 139.5 219.501v598z" />
    <glyph glyph-name="oe" unicode="&#x153;" horiz-adv-x="1747" 
d="M1512 304l140.997 -28c-33.333 -102 -88.333 -178 -165 -228s-158 -75 -244 -75c-144 0 -261.333 58.333 -352 175c-98 -116.667 -217.333 -175 -358 -175c-132 0 -241 48.167 -327 144.5s-129 224.833 -129 385.5c0 162.667 45 292.5 135 389.5s200 145.5 330 145.5
c136.667 0 253 -57.667 349 -173c96.667 115.333 212.334 173 347.001 173c126.667 0 229.334 -46.5 308.001 -139.5s119.334 -228.833 122.001 -407.5h-710c0 -80 8.16699 -146 24.5 -198s49.5 -97.333 99.5 -136s106.333 -58 169 -58c120 0 206.667 68.333 260 205z
M536.997 98c84 0 152.667 33 206 99s80 169.333 80 310c0 133.333 -25.5 232.833 -76.5 298.5s-119.833 98.5 -206.5 98.5c-190.667 0 -286 -141.333 -286 -424c0 -128.667 26.833 -224.5 80.5 -287.5s121.167 -94.5 202.5 -94.5zM1501 608
c-0.666992 81.333 -24.5 151 -71.5 209s-110.833 87 -191.5 87c-69.333 0 -130.333 -24.833 -183 -74.5s-83 -123.5 -91 -221.5h537z" />
    <glyph glyph-name="Racute" unicode="&#x154;" horiz-adv-x="1255" 
d="M1153 0l-179 0.00292969l-252 591h-391v-591h-160v1365h538c146 0 254.167 -39.833 324.5 -119.5s105.5 -166.834 105.5 -261.501c0 -72.667 -19.667 -142.334 -59 -209.001s-104.333 -114.334 -195 -143.001zM331 730.003h357c94 0 164.167 24.833 210.5 74.5
s69.5 110.5 69.5 182.5s-24.5 128 -73.5 168s-110.833 60 -185.5 60h-378v-485zM911 1677l-414 -189l-43 81l396 228z" />
    <glyph glyph-name="racute" unicode="&#x155;" horiz-adv-x="675" 
d="M314 0h-157v1010h138v-236c48.667 111.333 97.5 183.5 146.5 216.5s99.167 49.5 150.5 49.5c16 0 36.667 -1.33301 62 -4v-150h-32c-86.667 0 -158.667 -32.333 -216 -97s-88 -149.667 -92 -255v-534zM703 1356l-414 -189l-43 81l396 228z" />
    <glyph glyph-name="Rcommaaccent" unicode="&#x156;" horiz-adv-x="1255" 
d="M1153 0l-179 0.00292969l-252 591h-391v-591h-160v1365h538c146 0 254.167 -39.833 324.5 -119.5s105.5 -166.834 105.5 -261.501c0 -72.667 -19.667 -142.334 -59 -209.001s-104.333 -114.334 -195 -143.001zM331 730.003h357c94 0 164.167 24.833 210.5 74.5
s69.5 110.5 69.5 182.5s-24.5 128 -73.5 168s-110.833 60 -185.5 60h-378v-485zM559 -118.997h166l-155 -361h-77z" />
    <glyph glyph-name="rcommaaccent" unicode="&#x157;" horiz-adv-x="675" 
d="M314 0h-157v1010h138v-236c48.667 111.333 97.5 183.5 146.5 216.5s99.167 49.5 150.5 49.5c16 0 36.667 -1.33301 62 -4v-150h-32c-86.667 0 -158.667 -32.333 -216 -97s-88 -149.667 -92 -255v-534zM158 -109h166l-155 -361h-77z" />
    <glyph glyph-name="Rcaron" unicode="&#x158;" horiz-adv-x="1255" 
d="M1153 0l-179 0.00292969l-252 591h-391v-591h-160v1365h538c146 0 254.167 -39.833 324.5 -119.5s105.5 -166.834 105.5 -261.501c0 -72.667 -19.667 -142.334 -59 -209.001s-104.333 -114.334 -195 -143.001zM331 730.003h357c94 0 164.167 24.833 210.5 74.5
s69.5 110.5 69.5 182.5s-24.5 128 -73.5 168s-110.833 60 -185.5 60h-378v-485zM263 1741l141 20l191 -133l184 133l147 -20l-334 -259z" />
    <glyph glyph-name="rcaron" unicode="&#x159;" horiz-adv-x="675" 
d="M327 0h-157v1010h138v-236c48.667 111.333 97.5 183.5 146.5 216.5s99.167 49.5 150.5 49.5c16 0 36.667 -1.33301 62 -4v-150h-32c-86.667 0 -158.667 -32.333 -216 -97s-88 -149.667 -92 -255v-534zM67 1420l141 20l191 -133l184 133l147 -20l-334 -259z" />
    <glyph glyph-name="Sacute" unicode="&#x15a;" horiz-adv-x="1166" 
d="M21 363l154.002 35c62 -186 196.333 -279 403 -279c108 0 189.333 22.833 244 68.5s82 106.834 82 183.501c0 58 -20.833 104.667 -62.5 140s-89.834 59.666 -144.501 72.999l-273 68c-70.667 18 -128.5 39.833 -173.5 65.5s-83.167 65.167 -114.5 118.5
s-47 114.333 -47 183c0 114 43 204.833 129 272.5s196.333 101.5 331 101.5c248 0 411 -112.333 489 -337l-155 -46c-18 80 -60.333 140.5 -127 181.5s-137.667 61.5 -213 61.5c-74.667 0 -141.167 -19.667 -199.5 -59s-87.5 -95 -87.5 -167
c0 -100.667 74 -168.667 222 -204l255 -61c233.333 -56 350 -181.667 350 -377c0 -118 -43.833 -216.167 -131.5 -294.5s-211.167 -117.5 -370.5 -117.5c-282.667 0 -469.334 130 -560.001 390zM876.002 1677l-414 -189l-43 81l396 228z" />
    <glyph glyph-name="sacute" unicode="&#x15b;" horiz-adv-x="950" 
d="M21 262l150.002 31c33.333 -127.333 138.666 -191 315.999 -191c65.333 0 120.666 14.667 165.999 44s68 70.666 68 123.999c0 79.333 -57.667 129.666 -173 150.999l-213 40c-83.333 16 -149.666 47.333 -198.999 94s-74 108.334 -74 185.001
c0 84.667 33.667 155.5 101 212.5s158 85.5 272 85.5c219.333 0 354.666 -85.667 405.999 -257l-144 -31c-41.333 105.333 -126.333 158 -255 158c-64 0 -116.5 -13.167 -157.5 -39.5s-61.5 -63.166 -61.5 -110.499c0 -74.667 52.333 -121.667 157 -141l197 -35
c206 -37.333 309 -137 309 -299c0 -92.667 -38.333 -167.5 -115 -224.5s-178.667 -85.5 -306 -85.5c-239.333 0 -387.333 96.333 -444 289zM757.002 1356l-414 -189l-43 81l396 228z" />
    <glyph glyph-name="Scircumflex" unicode="&#x15c;" horiz-adv-x="1166" 
d="M21 363l154.002 35c62 -186 196.333 -279 403 -279c108 0 189.333 22.833 244 68.5s82 106.834 82 183.501c0 58 -20.833 104.667 -62.5 140s-89.834 59.666 -144.501 72.999l-273 68c-70.667 18 -128.5 39.833 -173.5 65.5s-83.167 65.167 -114.5 118.5
s-47 114.333 -47 183c0 114 43 204.833 129 272.5s196.333 101.5 331 101.5c248 0 411 -112.333 489 -337l-155 -46c-18 80 -60.333 140.5 -127 181.5s-137.667 61.5 -213 61.5c-74.667 0 -141.167 -19.667 -199.5 -59s-87.5 -95 -87.5 -167
c0 -100.667 74 -168.667 222 -204l255 -61c233.333 -56 350 -181.667 350 -377c0 -118 -43.833 -216.167 -131.5 -294.5s-211.167 -117.5 -370.5 -117.5c-282.667 0 -469.334 130 -560.001 390zM890.002 1515l-141 -20l-191 134l-184 -134l-147 20l334 260z" />
    <glyph glyph-name="scircumflex" unicode="&#x15d;" horiz-adv-x="950" 
d="M21 262l150.002 31c33.333 -127.333 138.666 -191 315.999 -191c65.333 0 120.666 14.667 165.999 44s68 70.666 68 123.999c0 79.333 -57.667 129.666 -173 150.999l-213 40c-83.333 16 -149.666 47.333 -198.999 94s-74 108.334 -74 185.001
c0 84.667 33.667 155.5 101 212.5s158 85.5 272 85.5c219.333 0 354.666 -85.667 405.999 -257l-144 -31c-41.333 105.333 -126.333 158 -255 158c-64 0 -116.5 -13.167 -157.5 -39.5s-61.5 -63.166 -61.5 -110.499c0 -74.667 52.333 -121.667 157 -141l197 -35
c206 -37.333 309 -137 309 -299c0 -92.667 -38.333 -167.5 -115 -224.5s-178.667 -85.5 -306 -85.5c-239.333 0 -387.333 96.333 -444 289zM782.002 1194l-141 -20l-191 134l-184 -134l-147 20l334 260z" />
    <glyph glyph-name="Scedilla" unicode="&#x15e;" horiz-adv-x="1166" 
d="M551 -27l-24.998 -79.998c16 1.33301 28 2 36 2c45.333 0 87 -13 125 -39s57 -63.333 57 -112c0 -45.333 -19.167 -82.5 -57.5 -111.5s-91.833 -43.5 -160.5 -43.5c-70 0 -134 16.667 -192 50l26 72c55.333 -26.667 106.666 -40 153.999 -40c76.667 0 115 25 115 75
c0 54 -43.333 81 -130 81c-18 0 -44.667 -2 -80 -6l53 158c-220 26.667 -370.333 154.667 -451 384l154 35c62 -186 196.333 -279 403 -279c108 0 189.333 22.833 244 68.5s82 106.834 82 183.501c0 58 -20.833 104.667 -62.5 140s-89.834 59.666 -144.501 72.999l-273 68
c-70.667 18 -128.5 39.833 -173.5 65.5s-83.167 65.167 -114.5 118.5s-47 114.333 -47 183c0 114 43 204.833 129 272.5s196.333 101.5 331 101.5c248 0 411 -112.333 489 -337l-155 -46c-18 80 -60.333 140.5 -127 181.5s-137.667 61.5 -213 61.5
c-74.667 0 -141.167 -19.667 -199.5 -59s-87.5 -95 -87.5 -167c0 -100.667 74 -168.667 222 -204l255 -61c233.333 -56 350 -181.667 350 -377c0 -122.667 -46 -222.834 -138 -300.501s-223.333 -114.834 -394 -111.501z" />
    <glyph glyph-name="scedilla" unicode="&#x15f;" horiz-adv-x="950" 
d="M21 262l149.998 30.999c16 -70.667 55 -120.167 117 -148.5s128 -42.5 198 -42.5c66 0 121.667 14.667 167 44s68 70.666 68 123.999c0 79.333 -57.667 129.666 -173 150.999l-213 40c-83.333 16 -149.666 47.333 -198.999 94s-74 108.334 -74 185.001
c0 84.667 33.667 155.5 101 212.5s158 85.5 272 85.5c219.333 0 354.666 -85.667 405.999 -257l-144 -31c-41.333 105.333 -126.333 158 -255 158c-64 0 -116.5 -13.167 -157.5 -39.5s-61.5 -63.166 -61.5 -110.499c0 -74.667 52.333 -121.667 157 -141l197 -35
c206 -37.333 309 -137 309 -299c0 -93.333 -38.667 -168.333 -116 -225s-176 -85 -296 -85l-18 -66c66 0 115.5 -12.333 148.5 -37s49.5 -56.667 49.5 -96c0 -38 -15.167 -71.833 -45.5 -101.5s-78.833 -44.5 -145.5 -44.5c-69.333 0 -128.666 15 -177.999 45l23 64
c50 -23.333 97.333 -35 142 -35c30.667 0 55.334 6.5 74.001 19.5s28 29.833 28 50.5c0 47.333 -38.333 71 -115 71c-17.333 0 -42.333 -1.66699 -75 -5l46 137c-214 20.667 -343 116.334 -387 287.001z" />
    <glyph glyph-name="Scaron" unicode="&#x160;" horiz-adv-x="1166" 
d="M21 363l154.002 35c62 -186 196.333 -279 403 -279c108 0 189.333 22.833 244 68.5s82 106.834 82 183.501c0 58 -20.833 104.667 -62.5 140s-89.834 59.666 -144.501 72.999l-273 68c-70.667 18 -128.5 39.833 -173.5 65.5s-83.167 65.167 -114.5 118.5
s-47 114.333 -47 183c0 114 43 204.833 129 272.5s196.333 101.5 331 101.5c248 0 411 -112.333 489 -337l-155 -46c-18 80 -60.333 140.5 -127 181.5s-137.667 61.5 -213 61.5c-74.667 0 -141.167 -19.667 -199.5 -59s-87.5 -95 -87.5 -167
c0 -100.667 74 -168.667 222 -204l255 -61c233.333 -56 350 -181.667 350 -377c0 -118 -43.833 -216.167 -131.5 -294.5s-211.167 -117.5 -370.5 -117.5c-282.667 0 -469.334 130 -560.001 390zM227.002 1741l141 20l191 -133l184 133l147 -20l-334 -259z" />
    <glyph glyph-name="scaron" unicode="&#x161;" horiz-adv-x="950" 
d="M21 262l150.002 31c33.333 -127.333 138.666 -191 315.999 -191c65.333 0 120.666 14.667 165.999 44s68 70.666 68 123.999c0 79.333 -57.667 129.666 -173 150.999l-213 40c-83.333 16 -149.666 47.333 -198.999 94s-74 108.334 -74 185.001
c0 84.667 33.667 155.5 101 212.5s158 85.5 272 85.5c219.333 0 354.666 -85.667 405.999 -257l-144 -31c-41.333 105.333 -126.333 158 -255 158c-64 0 -116.5 -13.167 -157.5 -39.5s-61.5 -63.166 -61.5 -110.499c0 -74.667 52.333 -121.667 157 -141l197 -35
c206 -37.333 309 -137 309 -299c0 -92.667 -38.333 -167.5 -115 -224.5s-178.667 -85.5 -306 -85.5c-239.333 0 -387.333 96.333 -444 289zM119.002 1420l141 20l191 -133l184 133l147 -20l-334 -259z" />
    <glyph glyph-name="Tcommaaccent" unicode="&#x162;" horiz-adv-x="994" 
d="M582 0h-170v1215h-391v150h953v-150h-392v-1215zM413 -119h166l-155 -361h-77z" />
    <glyph glyph-name="tcommaaccent" unicode="&#x163;" horiz-adv-x="630" 
d="M615 108v-124c-55.333 -7.33301 -103.333 -11 -144 -11c-195.333 0 -293 102 -293 306v608h-179v123h179l7 254l146 14v-268h226v-123h-226v-634c0 -104 54 -156 162 -156c36 0 76.667 3.66699 122 11zM325 -109h166l-155 -361h-77z" />
    <glyph glyph-name="Tcaron" unicode="&#x164;" horiz-adv-x="994" 
d="M582 0h-170v1215h-391v150h953v-150h-392v-1215zM166 1741l141 20l191 -133l184 133l147 -20l-334 -259z" />
    <glyph glyph-name="tcaron" unicode="&#x165;" horiz-adv-x="671" 
d="M615 108v-124c-55.333 -7.33301 -103.333 -11 -144 -11c-195.333 0 -293 102 -293 306v608h-179v123h179l7 254l146 14v-268h226v-123h-226v-634c0 -104 54 -156 162 -156c36 0 76.667 3.66699 122 11zM506 1499h165l-155 -379h-77z" />
    <glyph glyph-name="Tbar" unicode="&#x166;" horiz-adv-x="994" 
d="M142 802v137h270v276h-391v150h953v-150h-392v-276h270v-137h-270v-802h-170v802h-270z" />
    <glyph glyph-name="tbar" unicode="&#x167;" horiz-adv-x="630" 
d="M549 726v-116h-218v-357c0 -104 54 -156 162 -156c36 0 76.667 3.66699 122 11v-124c-56.667 -7.33301 -106 -11 -148 -11c-192.667 0 -289 102 -289 306v331h-171v116h171v161h-179v123h179l7 254l146 14v-268h226v-123h-226v-161h218z" />
    <glyph glyph-name="Utilde" unicode="&#x168;" horiz-adv-x="1241" 
d="M949 1365l142 0.00195312v-891c0 -178.667 -43.833 -306.834 -131.5 -384.501s-202.5 -116.5 -344.5 -116.5c-158 0 -275 40 -351 120s-114 207 -114 381v891h171v-891c0 -106 12.333 -180.667 37 -224s62 -75.333 112 -96s102.333 -31 157 -31
c105.333 0 185.333 27.667 240 83s82 144.666 82 267.999v891zM906 1701l76.999 -72c-70.667 -67.333 -138 -101 -202 -101c-32.667 0 -75.667 11.667 -129 35c-58 25.333 -102.667 38 -134 38c-54 0 -99 -22 -135 -66l-84 58c58.667 85.333 133.334 128 224.001 128
c30.667 0 73.334 -11.333 128.001 -34c59.333 -24.667 102 -37 128 -37c43.333 0 85.666 17 126.999 51z" />
    <glyph glyph-name="utilde" unicode="&#x169;" horiz-adv-x="1109" 
d="M952 0h-141v193c-72 -146.667 -179.333 -220 -322 -220c-103.333 0 -184.5 34 -243.5 102s-88.5 164.667 -88.5 290v645h157v-645c0 -100 20.833 -168.833 62.5 -206.5s87.5 -56.5 137.5 -56.5c50.667 0 96.5 14.333 137.5 43s75.167 69.5 102.5 122.5
s41 110.833 41 173.5v569h157v-1010zM819 1380l76.999 -72c-70.667 -67.333 -138 -101 -202 -101c-32.667 0 -75.667 11.667 -129 35c-58 25.333 -102.667 38 -134 38c-54 0 -99 -22 -135 -66l-84 58c58.667 85.333 133.334 128 224.001 128
c30.667 0 73.334 -11.333 128.001 -34c59.333 -24.667 102 -37 128 -37c43.333 0 85.666 17 126.999 51z" />
    <glyph glyph-name="Umacron" unicode="&#x16a;" horiz-adv-x="1241" 
d="M949 1365l142 0.00195312v-891c0 -178.667 -43.833 -306.834 -131.5 -384.501s-202.5 -116.5 -344.5 -116.5c-158 0 -275 40 -351 120s-114 207 -114 381v891h171v-891c0 -106 12.333 -180.667 37 -224s62 -75.333 112 -96s102.333 -31 157 -31
c105.333 0 185.333 27.667 240 83s82 144.666 82 267.999v891zM937 1659v-109h-621v109h621z" />
    <glyph glyph-name="umacron" unicode="&#x16b;" horiz-adv-x="1109" 
d="M952 0h-141v193c-72 -146.667 -179.333 -220 -322 -220c-103.333 0 -184.5 34 -243.5 102s-88.5 164.667 -88.5 290v645h157v-645c0 -100 20.833 -168.833 62.5 -206.5s87.5 -56.5 137.5 -56.5c50.667 0 96.5 14.333 137.5 43s75.167 69.5 102.5 122.5
s41 110.833 41 173.5v569h157v-1010zM865 1345v-109h-621v109h621z" />
    <glyph glyph-name="Ubreve" unicode="&#x16c;" horiz-adv-x="1241" 
d="M949 1365l142 0.00195312v-891c0 -178.667 -43.833 -306.834 -131.5 -384.501s-202.5 -116.5 -344.5 -116.5c-158 0 -275 40 -351 120s-114 207 -114 381v891h171v-891c0 -106 12.333 -180.667 37 -224s62 -75.333 112 -96s102.333 -31 157 -31
c105.333 0 185.333 27.667 240 83s82 144.666 82 267.999v891zM321 1759h114c16.667 -90.667 77 -136 181 -136c108.667 0 171.667 45.333 189 136h114c-28.667 -170.667 -124 -256 -286 -256c-183.333 0 -287.333 85.333 -312 256z" />
    <glyph glyph-name="ubreve" unicode="&#x16d;" horiz-adv-x="1109" 
d="M952 0h-141v193c-72 -146.667 -179.333 -220 -322 -220c-103.333 0 -184.5 34 -243.5 102s-88.5 164.667 -88.5 290v645h157v-645c0 -100 20.833 -168.833 62.5 -206.5s87.5 -56.5 137.5 -56.5c50.667 0 96.5 14.333 137.5 43s75.167 69.5 102.5 122.5
s41 110.833 41 173.5v569h157v-1010zM255 1438h114c16.667 -90.667 77 -136 181 -136c108.667 0 171.667 45.333 189 136h114c-28.667 -170.667 -124 -256 -286 -256c-183.333 0 -287.333 85.333 -312 256z" />
    <glyph glyph-name="Uring" unicode="&#x16e;" horiz-adv-x="1241" 
d="M949 1365l142 0.00195312v-891c0 -178.667 -43.833 -306.834 -131.5 -384.501s-202.5 -116.5 -344.5 -116.5c-158 0 -275 40 -351 120s-114 207 -114 381v891h171v-891c0 -106 12.333 -180.667 37 -224s62 -75.333 112 -96s102.333 -31 157 -31
c105.333 0 185.333 27.667 240 83s82 144.666 82 267.999v891zM800 1634c0 -47.333 -16.834 -87.834 -50.501 -121.501s-74.167 -50.5 -121.5 -50.5s-88.333 17 -123 51s-52 74.667 -52 122c0 46.667 17.167 87.334 51.5 122.001s76.833 52 127.5 52
c44.667 0 83.834 -17.167 117.501 -51.5s50.5 -75.5 50.5 -123.5zM716.999 1634c0 25.333 -8.66602 46.999 -25.999 64.999s-37 27 -59 27c-28.667 0 -51.834 -9 -69.501 -27s-26.5 -39 -26.5 -63c0 -25.333 9 -47 27 -65s39.667 -27 65 -27
c24.667 0 45.667 8.83301 63 26.5s26 38.834 26 63.501z" />
    <glyph glyph-name="uring" unicode="&#x16f;" horiz-adv-x="1109" 
d="M952 0h-141v193c-72 -146.667 -179.333 -220 -322 -220c-103.333 0 -184.5 34 -243.5 102s-88.5 164.667 -88.5 290v645h157v-645c0 -100 20.833 -168.833 62.5 -206.5s87.5 -56.5 137.5 -56.5c50.667 0 96.5 14.333 137.5 43s75.167 69.5 102.5 122.5
s41 110.833 41 173.5v569h157v-1010zM728 1326c0 -47.333 -16.834 -87.834 -50.501 -121.501s-74.167 -50.5 -121.5 -50.5s-88.333 17 -123 51s-52 74.667 -52 122c0 46.667 17.167 87.334 51.5 122.001s76.833 52 127.5 52c44.667 0 83.834 -17.167 117.501 -51.5
s50.5 -75.5 50.5 -123.5zM644.999 1326c0 25.333 -8.66602 46.999 -25.999 64.999s-37 27 -59 27c-28.667 0 -51.834 -9 -69.501 -27s-26.5 -39 -26.5 -63c0 -25.333 9 -47 27 -65s39.667 -27 65 -27c24.667 0 45.667 8.83301 63 26.5s26 38.834 26 63.501z" />
    <glyph glyph-name="Uhungarumlaut" unicode="&#x170;" horiz-adv-x="1241" 
d="M949 1365l142 0.00195312v-891c0 -178.667 -43.833 -306.834 -131.5 -384.501s-202.5 -116.5 -344.5 -116.5c-158 0 -275 40 -351 120s-114 207 -114 381v891h171v-891c0 -106 12.333 -180.667 37 -224s62 -75.333 112 -96s102.333 -31 157 -31
c105.333 0 185.333 27.667 240 83s82 144.666 82 267.999v891zM739 1686l-322 -198l-51 78l303 231zM1066 1686l-322 -198l-50 78l303 231z" />
    <glyph glyph-name="uhungarumlaut" unicode="&#x171;" horiz-adv-x="1109" 
d="M952 0h-141v193c-72 -146.667 -179.333 -220 -322 -220c-103.333 0 -184.5 34 -243.5 102s-88.5 164.667 -88.5 290v645h157v-645c0 -100 20.833 -168.833 62.5 -206.5s87.5 -56.5 137.5 -56.5c50.667 0 96.5 14.333 137.5 43s75.167 69.5 102.5 122.5
s41 110.833 41 173.5v569h157v-1010zM674 1365l-322 -198l-51 78l303 231zM1001 1365l-322 -198l-50 78l303 231z" />
    <glyph glyph-name="Uogonek" unicode="&#x172;" horiz-adv-x="1241" 
d="M982 -233l18.999 -68.998c-44.667 -23.333 -95 -35 -151 -35c-61.333 0 -108.666 14 -141.999 42s-50 65.333 -50 112c0 75.333 44 135 132 179c-57.333 -15.333 -116 -23 -176 -23c-150.667 0 -265.667 38.667 -345 116s-119 205.666 -119 384.999v891h171v-891
c0 -106 12.333 -180.667 37 -224s62 -75.333 112 -96s102.333 -31 157 -31c105.333 0 185.333 27.667 240 83s82 144.666 82 267.999v891h142v-891c0 -111.333 -13.333 -195.333 -40 -252s-73.667 -118 -141 -184c-52 -51.333 -86.833 -89.833 -104.5 -115.5
s-26.5 -51.5 -26.5 -77.5c0 -61.333 38.667 -92 116 -92c28.667 0 57.667 4.66699 87 14z" />
    <glyph glyph-name="uogonek" unicode="&#x173;" horiz-adv-x="1109" 
d="M857 0h-45.999v193c-72 -146.667 -179.333 -220 -322 -220c-103.333 0 -184.5 34 -243.5 102s-88.5 164.667 -88.5 290v645h157v-645c0 -100 20.833 -168.833 62.5 -206.5s87.5 -56.5 137.5 -56.5c50.667 0 96.5 14.333 137.5 43s75.167 69.5 102.5 122.5
s41 110.833 41 173.5v569h157v-1010c-60.667 -40 -96.834 -69.667 -108.501 -89s-17.5 -38 -17.5 -56c0 -57.333 37.333 -86 112 -86c25.333 0 54 4.33301 86 13l19 -63c-44 -21.333 -93.333 -32 -148 -32c-60 0 -106.333 12.667 -139 38s-49 59.333 -49 102
c0 73.333 50 131 150 173z" />
    <glyph glyph-name="Wcircumflex" unicode="&#x174;" horiz-adv-x="1674" 
d="M1635 1365l-329 -1365h-171l-298 1059l-277 -1059h-175l-346 1365h177l273 -1106l290 1106h138l313 -1106l255 1106h150zM1182 1515l-141 -20l-191 134l-184 -134l-147 20l334 260z" />
    <glyph glyph-name="wcircumflex" unicode="&#x175;" horiz-adv-x="1360" 
d="M1321 1010l-291 -1010h-127l-226 750l-207 -750h-129l-303 1010h158l219 -753l210 753h115l227 -756l227 756h127zM1011 1194l-141 -20l-191 134l-184 -134l-147 20l334 260z" />
    <glyph glyph-name="Ycircumflex" unicode="&#x176;" horiz-adv-x="1045" 
d="M1065 1365l-457 -791v-574h-171v574l-457 791h201l363 -628l365 628h156zM868 1515l-141 -20l-191 134l-184 -134l-147 20l334 260z" />
    <glyph glyph-name="ycircumflex" unicode="&#x177;" horiz-adv-x="850" 
d="M850 1011l-404.999 -1128c-58.667 -162.667 -152.334 -244 -281.001 -244c-40.667 0 -85.667 7 -135 21v123c40.667 -9.33301 75.667 -14 105 -14c50 0 91.833 14.333 125.5 43s67.167 98 100.5 208l-349 991h160l270 -759l277 759h132zM766.001 1194l-141 -20l-191 134
l-184 -134l-147 20l334 260z" />
    <glyph glyph-name="Ydieresis" unicode="&#x178;" horiz-adv-x="1045" 
d="M1065 1365l-457 -791v-574h-171v574l-457 791h201l363 -628l365 628h156zM801 1625c0 -28.667 -10.5 -53.001 -31.5 -73.001s-45.833 -30 -74.5 -30s-53.5 10 -74.5 30s-31.5 44 -31.5 72c0 28.667 10.5 52.834 31.5 72.501s45.5 29.5 73.5 29.5
c29.333 0 54.5 -9.83301 75.5 -29.5s31.5 -43.5 31.5 -71.5zM479 1624c0 -28 -10.5 -52.001 -31.5 -72.001s-45.5 -30 -73.5 -30s-52.167 10 -72.5 30s-30.5 43.667 -30.5 71c0 28.667 10.167 52.834 30.5 72.501s43.5 29.5 69.5 29.5c32 0 58 -10 78 -30s30 -43.667 30 -71
z" />
    <glyph glyph-name="Zacute" unicode="&#x179;" horiz-adv-x="1066" 
d="M1019 146v-146h-963v146l741 1071h-707v139h907v-114l-750 -1096h772zM870 1677l-414 -189l-43 81l396 228z" />
    <glyph glyph-name="zacute" unicode="&#x17a;" horiz-adv-x="867" 
d="M812 121v-121h-744v121l537 766h-496v123h703v-85l-556 -804h556zM778 1356l-414 -189l-43 81l396 228z" />
    <glyph glyph-name="Zdotaccent" unicode="&#x17b;" horiz-adv-x="1066" 
d="M1019 146v-146h-963v146l741 1071h-707v139h907v-114l-750 -1096h772zM650 1628c0 -28.667 -10.5 -53.001 -31.5 -73.001s-45.833 -30 -74.5 -30s-53.5 10 -74.5 30s-31.5 44 -31.5 72c0 28.667 10.5 52.834 31.5 72.501s45.167 29.5 72.5 29.5
c30 0 55.5 -9.83301 76.5 -29.5s31.5 -43.5 31.5 -71.5z" />
    <glyph glyph-name="zdotaccent" unicode="&#x17c;" horiz-adv-x="867" 
d="M812 121v-121h-744v121l537 766h-496v123h703v-85l-556 -804h556zM564 1304c0 -28.667 -10.5 -53.001 -31.5 -73.001s-45.833 -30 -74.5 -30s-53.5 10 -74.5 30s-31.5 44 -31.5 72c0 28.667 10.5 52.834 31.5 72.501s45.167 29.5 72.5 29.5
c30 0 55.5 -9.83301 76.5 -29.5s31.5 -43.5 31.5 -71.5z" />
    <glyph glyph-name="Zcaron" unicode="&#x17d;" horiz-adv-x="1066" 
d="M1019 146v-146h-963v146l741 1071h-707v139h907v-114l-750 -1096h772zM213 1741l141 20l191 -133l184 133l147 -20l-334 -259z" />
    <glyph glyph-name="zcaron" unicode="&#x17e;" horiz-adv-x="867" 
d="M812 121v-121h-744v121l537 766h-496v123h703v-85l-556 -804h556zM129 1420l141 20l191 -133l184 133l147 -20l-334 -259z" />
    <glyph glyph-name="longs" unicode="&#x17f;" horiz-adv-x="1201" 
d="M629 0h-157v1010c0 145.333 27 245.5 81 300.5s131 82.5 231 82.5c42 0 90 -4.66699 144 -14v-125c-34 8.66699 -66.333 13 -97 13c-77.333 0 -130.333 -16.833 -159 -50.5s-43 -102.5 -43 -206.5v-1010z" />
    <glyph glyph-name="florin" unicode="&#x192;" horiz-adv-x="1201" 
d="M1005 1169l-23.999 -138.002h-246l-171 -970c-16 -89.333 -39.167 -157.166 -69.5 -203.499s-72.333 -84 -126 -113s-113.167 -43.5 -178.5 -43.5c-22 0 -52 1.33301 -90 4l22 123c34 -1.33301 52.333 -2 55 -2c52 0 94.667 10.833 128 32.5s56.166 48.834 68.499 81.501
s26.166 92.667 41.499 180l162 911h-187l25 138h187c21.333 140 70.333 236.667 147 290s158.334 80 245.001 80c21.333 0 46.333 -2.33301 75 -7l-22 -122c-78.667 0 -133.667 -6 -165 -18s-55.833 -32.333 -73.5 -61s-34.167 -82.667 -49.5 -162h246z" />
    <glyph glyph-name="Aringacute" unicode="&#x1fa;" horiz-adv-x="1097" 
d="M771 1834l-415 -175l-43 81l396 214zM449 1362c-53.333 33.333 -80 82.333 -80 147c0 52.667 18 96.5 54 131.5s78.667 52.5 128 52.5c50 0 92.167 -17.667 126.5 -53s51.5 -78.333 51.5 -129c0 -67.333 -27.333 -117 -82 -149l443 -1362h-175l-138 399h-505l-122 -399
h-143zM550 1613c-24.667 0 -46.1689 -9.83105 -64.502 -29.498s-27.5 -43.834 -27.5 -72.501c0 -24.667 8.83301 -46.667 26.5 -66s39.5 -29 65.5 -29c24.667 0 45.834 9.16699 63.501 27.5s26.5 41.166 26.5 68.499c0 26.667 -8.66699 50.167 -26 70.5
s-38.666 30.5 -63.999 30.5zM740.998 527.002l-210 656l-212 -656h422z" />
    <glyph glyph-name="aringacute" unicode="&#x1fb;" horiz-adv-x="1083" 
d="M948 0l-155.999 -0.000976562c-6 32 -12 92.667 -18 182c-69.333 -139.333 -187.333 -209 -354 -209c-113.333 0 -200.333 30 -261 90s-91 132 -91 216c0 102 43.333 185.833 130 251.5s234 98.5 442 98.5c28 0 72.667 -1.33301 134 -4
c0 80 -6.16699 137.833 -18.5 173.5s-38.5 64.167 -78.5 85.5s-92.667 32 -158 32c-159.333 0 -252 -60.667 -278 -182l-145 25c35.333 186 184 279 446 279c139.333 0 238.166 -30.833 296.499 -92.5s87.5 -168.5 87.5 -320.5v-429c0 -71.333 7.33301 -136.666 22 -195.999
zM774.001 504.999c-64 4 -112.667 5.99902 -146 5.99902c-124 0 -220.333 -20.333 -289 -61s-103 -100 -103 -178c0 -49.333 18.5 -91.333 55.5 -126s90.5 -52 160.5 -52c94.667 0 172.5 34.333 233.5 103s91.5 149.334 91.5 242.001c0 18.667 -1 40.667 -3 66z
M709.001 1292c0 -47.333 -16.834 -87.834 -50.501 -121.501s-74.167 -50.5 -121.5 -50.5s-88.333 17 -123 51s-52 74.667 -52 122c0 46.667 17.167 87.334 51.5 122.001s76.833 52 127.5 52c44.667 0 83.834 -17.167 117.501 -51.5s50.5 -75.5 50.5 -123.5zM626 1292
c0 25.333 -8.66602 46.999 -25.999 64.999s-37 27 -59 27c-28.667 0 -51.834 -9 -69.501 -27s-26.5 -39 -26.5 -63c0 -25.333 9 -47 27 -65s39.667 -27 65 -27c24.667 0 45.667 8.83301 63 26.5s26 38.834 26 63.501zM750.001 1657l-414 -189l-43 81l396 228z" />
    <glyph glyph-name="AEacute" unicode="&#x1fc;" horiz-adv-x="1856" 
d="M1788 150v-150h-939v422h-459l-252 -422h-165l813 1365h976v-150h-742v-434h600v-139h-600v-492h768zM849 554v662l-385 -662h385zM1505 1677l-414 -189l-43 81l396 228z" />
    <glyph glyph-name="aeacute" unicode="&#x1fd;" horiz-adv-x="1722" 
d="M1484 297l142.001 -26.999c-26.667 -88 -78.5 -159.5 -155.5 -214.5s-166.167 -82.5 -267.5 -82.5c-184.667 0 -321 85.333 -409 256c-70.667 -170.667 -192.334 -256 -365.001 -256c-122 0 -213.333 28.5 -274 85.5s-91 128.5 -91 214.5c0 106 44.167 191.333 132.5 256
s230.166 97 425.499 97c42 0 88.333 -2.33301 139 -7c1.33301 29.333 2 52.666 2 69.999c0 150.667 -85.333 226 -256 226c-76 0 -135.5 -17.167 -178.5 -51.5s-68.833 -74.5 -77.5 -120.5l-149 26c20.667 90.667 70.667 158.167 150 202.5s170.666 66.5 273.999 66.5
c162.667 0 279.667 -49 351 -147c84.667 98 194.334 147 329.001 147c121.333 0 223.333 -43.667 306 -131s126.334 -226 131.001 -416h-731c0 -144.667 30.5 -245.667 91.5 -303s130.833 -86 209.5 -86c126 0 216.333 65 271 195zM1472 608.001
c-2.66699 89.333 -27.498 162.833 -74.498 220.5s-111.5 86.5 -193.5 86.5c-80.667 0 -147.334 -29 -200.001 -87s-81.334 -131.333 -86.001 -220h554zM756.003 503.001c-37.333 6 -79.999 9 -127.999 9c-130.667 0 -228.834 -21.333 -294.501 -64s-98.5 -97.667 -98.5 -165
c0 -50.667 18 -93.5 54 -128.5s83.333 -52.5 142 -52.5c84.667 0 160.167 30.833 226.5 92.5s99.5 146.167 99.5 253.5c0 12 -0.333008 30.333 -1 55zM1178 1356l-414 -189l-43 81l396 228z" />
    <glyph glyph-name="Oslashacute" unicode="&#x1fe;" horiz-adv-x="1292" 
d="M63 -49l157 241.001c-90 133.333 -135 297.666 -135 492.999c0 198 50.5 365.5 151.5 502.5s238.5 205.5 412.5 205.5c121.333 0 230 -38 326 -114l97 140h146l-158 -233c97.333 -131.333 146 -296 146 -494c0 -189.333 -48.833 -356.5 -146.5 -501.5
s-238.167 -217.5 -421.5 -217.5c-130 0 -242 41.667 -336 125l-95 -147h-144zM876 1162c-60.667 60.667 -138.667 91 -234 91c-114 0 -205.5 -52 -274.5 -156s-103.5 -241.333 -103.5 -412c0 -142 22.667 -258.667 68 -350zM404 224.001
c61.333 -74.667 141.667 -112 241 -112c128 0 223.667 57 287 171s95 250.333 95 409c0 148.667 -24.333 269.667 -73 363zM889.001 1677l-414 -189l-43 81l396 228z" />
    <glyph glyph-name="oslashacute" unicode="&#x1ff;" horiz-adv-x="1064" 
d="M184 142c-70.667 98.667 -105.998 221.334 -105.998 368.001c0 159.333 43.667 287.166 131 383.499s195.666 144.5 324.999 144.5c99.333 0 185.666 -27.333 258.999 -82l90 120h140l-150 -200c74.667 -99.333 112 -222 112 -368
c0 -157.333 -43.167 -285.833 -129.5 -385.5s-198.5 -149.5 -336.5 -149.5c-105.333 0 -192 29 -260 87l-87 -115h-136zM286.002 279l418.999 559c-52 46.667 -110.667 70 -176 70c-77.333 0 -143.166 -31.667 -197.499 -95s-81.5 -165 -81.5 -305
c0 -90 12 -166.333 36 -229zM773.001 743l-425 -565c52.667 -50.667 114 -76 184 -76c79.333 0 146 33 200 99s81 168.667 81 308c0 97.333 -13.333 175.333 -40 234zM785.001 1356l-414 -189l-43 81l396 228z" />
    <glyph glyph-name="circumflex" unicode="&#x2c6;" horiz-adv-x="1024" 
d="M843 1194l-141 -20l-191 134l-184 -134l-147 20l334 260z" />
    <glyph glyph-name="caron" unicode="&#x2c7;" horiz-adv-x="1024" 
d="M180 1420l141 20l191 -133l184 133l147 -20l-334 -259z" />
    <glyph glyph-name="macron" unicode="&#x2c9;" horiz-adv-x="1024" 
d="M823 1345v-109h-621v109h621z" />
    <glyph glyph-name="breve" unicode="&#x2d8;" horiz-adv-x="1024" 
d="M213 1438h114c16.667 -90.667 77 -136 181 -136c108.667 0 171.667 45.333 189 136h114c-28.667 -170.667 -124 -256 -286 -256c-183.333 0 -287.333 85.333 -312 256z" />
    <glyph glyph-name="dotaccent" unicode="&#x2d9;" horiz-adv-x="1024" 
d="M618 1304c0 -28.667 -10.5 -53.001 -31.5 -73.001s-45.833 -30 -74.5 -30s-53.5 10 -74.5 30s-31.5 44 -31.5 72c0 28.667 10.5 52.834 31.5 72.501s45.167 29.5 72.5 29.5c30 0 55.5 -9.83301 76.5 -29.5s31.5 -43.5 31.5 -71.5z" />
    <glyph glyph-name="ring" unicode="&#x2da;" horiz-adv-x="1024" 
d="M686 1326c0 -47.333 -16.834 -87.834 -50.501 -121.501s-74.167 -50.5 -121.5 -50.5s-88.333 17 -123 51s-52 74.667 -52 122c0 46.667 17.167 87.334 51.5 122.001s76.833 52 127.5 52c44.667 0 83.834 -17.167 117.501 -51.5s50.5 -75.5 50.5 -123.5zM602.999 1326
c0 25.333 -8.66602 46.999 -25.999 64.999s-37 27 -59 27c-28.667 0 -51.834 -9 -69.501 -27s-26.5 -39 -26.5 -63c0 -25.333 9 -47 27 -65s39.667 -27 65 -27c24.667 0 45.667 8.83301 63 26.5s26 38.834 26 63.501z" />
    <glyph glyph-name="ogonek" unicode="&#x2db;" horiz-adv-x="1024" 
d="M909 0c-60 -39.333 -95.835 -68.5 -107.502 -87.5s-17.5 -37.833 -17.5 -56.5c0 -58 37.333 -87 112 -87c24.667 0 53.334 4.33301 86.001 13l18 -63c-43.333 -21.333 -92.666 -32 -147.999 -32c-62 0 -108.833 13 -140.5 39s-47.5 60 -47.5 102c0 72.667 50 130 150 172
h95z" />
    <glyph glyph-name="tilde" unicode="&#x2dc;" horiz-adv-x="1024" 
d="M777 1380l76.999 -72c-70.667 -67.333 -138 -101 -202 -101c-32.667 0 -75.667 11.667 -129 35c-58 25.333 -102.667 38 -134 38c-54 0 -99 -22 -135 -66l-84 58c58.667 85.333 133.334 128 224.001 128c30.667 0 73.334 -11.333 128.001 -34
c59.333 -24.667 102 -37 128 -37c43.333 0 85.666 17 126.999 51z" />
    <glyph glyph-name="hungarumlaut" unicode="&#x2dd;" horiz-adv-x="1024" 
d="M646 1365l-322 -198l-51 78l303 231zM973 1365l-322 -198l-50 78l303 231z" />
    <glyph glyph-name="tonos" unicode="&#x384;" horiz-adv-x="1024" 
d="M277 1365l-264 -294l-75 58l218 320z" />
    <glyph glyph-name="dieresistonos" unicode="&#x385;" horiz-adv-x="1024" 
d="M741 1622l-264 -199l-61 68l225 236zM777 1304c0 -28.667 -10.5 -53.001 -31.5 -73.001s-45.833 -30 -74.5 -30s-53.5 10 -74.5 30s-31.5 44 -31.5 72c0 28.667 10.5 52.834 31.5 72.501s45.5 29.5 73.5 29.5c29.333 0 54.5 -9.83301 75.5 -29.5s31.5 -43.5 31.5 -71.5z
M455 1303c0 -28 -10.5 -52.001 -31.5 -72.001s-45.5 -30 -73.5 -30s-52.167 10 -72.5 30s-30.5 43.667 -30.5 71c0 28.667 10.167 52.834 30.5 72.501s43.5 29.5 69.5 29.5c32 0 58 -10 78 -30s30 -43.667 30 -71z" />
    <glyph glyph-name="Alphatonos" unicode="&#x386;" horiz-adv-x="1111" 
d="M1090 0h-175l-138 399h-505l-122 -399h-143l443 1365h195zM741 527l-210 656l-212 -656h422zM320 1365l-264 -294l-75 58l218 320z" />
    <glyph glyph-name="anoteleia" unicode="&#x387;" horiz-adv-x="223" 
d="M223 631v-224h-223v224h223z" />
    <glyph glyph-name="Epsilontonos" unicode="&#x388;" horiz-adv-x="1122" 
d="M1054 150v-150h-883v1365h864v-150h-693v-434h550v-139h-550v-492h712zM104 1365l-264 -294l-75 58l218 320z" />
    <glyph glyph-name="Etatonos" unicode="&#x389;" horiz-adv-x="1316" 
d="M1146 0h-171v650h-633v-650h-171v1365h171v-565h633v565h171v-1365zM109 1365l-264 -294l-75 58l218 320z" />
    <glyph glyph-name="Iotatonos" unicode="&#x38a;" horiz-adv-x="512" 
d="M342 0h-171v1365h171v-1365zM89 1365l-264 -294l-75 58l218 320z" />
    <glyph glyph-name="Omicrontonos" unicode="&#x38c;" horiz-adv-x="1292" 
d="M642 -27c-175.333 0 -312 68.165 -410 204.498s-147 303.5 -147 501.5c0 206.667 51.333 377.334 154 512.001s238.667 202 408 202c168.667 0 304 -66.167 406 -198.5s153 -299.166 153 -500.499c0 -193.333 -49.5 -361.833 -148.5 -505.5s-237.5 -215.5 -415.5 -215.5z
M646 111.998c119.333 0 212.668 54.333 280.001 163s101 248.667 101 420c0 176 -34.833 313 -104.5 411s-162.167 147 -277.5 147c-116.667 0 -209.334 -53 -278.001 -159s-103 -244.667 -103 -416c0 -167.333 34.667 -303.5 104 -408.5s162 -157.5 278 -157.5z
M233.002 1365l-264 -294l-75 58l218 320z" />
    <glyph glyph-name="Upsilontonos" unicode="&#x38e;" horiz-adv-x="1045" 
d="M1065 1365l-457 -791v-574h-171v574l-457 791h201l363 -628l365 628h156zM-54 1365l-264 -294l-75 58l218 320z" />
    <glyph glyph-name="Omegatonos" unicode="&#x38f;" horiz-adv-x="1305" 
d="M58 0v150.001h326c-199.333 120 -299 316.667 -299 590c0 208 55 368.833 165 482.5s244 170.5 402 170.5s292 -56.833 402 -170.5s165 -274.5 165 -482.5c0 -273.333 -99.333 -470 -298 -590h326v-150h-501v150c196 126 294 323.667 294 593
c0 159.333 -36.167 284.166 -108.5 374.499s-165.5 135.5 -279.5 135.5c-114.667 0 -208 -45.5 -280 -136.5s-108 -215.5 -108 -373.5c0 -269.333 98.333 -467 295 -593v-150h-501zM226 1365l-264 -294l-75 58l218 320z" />
    <glyph glyph-name="iotadieresistonos" unicode="&#x390;" horiz-adv-x="457" 
d="M150 0v1010h157v-1010h-157zM458 1622l-264 -199l-61 68l225 236zM494 1304c0 -28.667 -10.5 -53.001 -31.5 -73.001s-45.833 -30 -74.5 -30s-53.5 10 -74.5 30s-31.5 44 -31.5 72c0 28.667 10.5 52.834 31.5 72.501s45.5 29.5 73.5 29.5
c29.333 0 54.5 -9.83301 75.5 -29.5s31.5 -43.5 31.5 -71.5zM172 1303c0 -28 -10.5 -52.001 -31.5 -72.001s-45.5 -30 -73.5 -30s-52.167 10 -72.5 30s-30.5 43.667 -30.5 71c0 28.667 10.167 52.834 30.5 72.501s43.5 29.5 69.5 29.5c32 0 58 -10 78 -30s30 -43.667 30 -71
z" />
    <glyph glyph-name="Alpha" unicode="&#x391;" horiz-adv-x="1097" 
d="M1090 0h-175l-138 399h-505l-122 -399h-143l443 1365h195zM741 527l-210 656l-212 -656h422z" />
    <glyph glyph-name="Beta" unicode="&#x392;" horiz-adv-x="1238" 
d="M171 0v1365h540c136 0 236.833 -33.333 302.5 -100s98.5 -144 98.5 -232c0 -154.667 -80.667 -257.334 -242 -308.001c96 -24.667 167.333 -68.667 214 -132s70 -135 70 -215c0 -107.333 -36.167 -197.166 -108.5 -269.499s-183.833 -108.5 -334.5 -108.5h-540zM336 780
l297.001 -0.000976562c123.333 0 205.666 23.5 246.999 70.5s62 102.167 62 165.5c0 62.667 -22.167 113.334 -66.5 152.001s-110.5 58 -198.5 58h-341v-446zM336.001 149.999l366 -0.000976562c89.333 0 158.333 21.667 207 65s73 99.666 73 168.999
c0 48.667 -11 93.834 -33 135.501s-53 73.834 -93 96.501s-99.667 34 -179 34h-341v-500z" />
    <glyph glyph-name="Gamma" unicode="&#x393;" horiz-adv-x="912" 
d="M171 0v1365h742v-150h-571v-1215h-171z" />
    <glyph glyph-name="Delta" unicode="&#x394;" horiz-adv-x="1199" 
d="M7 0l473 1365h229l483 -1365h-1185zM205 150h742l-360 1080h-20z" />
    <glyph glyph-name="Epsilon" unicode="&#x395;" horiz-adv-x="1122" 
d="M1054 150v-150h-883v1365h864v-150h-693v-434h550v-139h-550v-492h712z" />
    <glyph glyph-name="Zeta" unicode="&#x396;" horiz-adv-x="1066" 
d="M1019 146v-146h-963v146l741 1071h-707v139h907v-114l-750 -1096h772z" />
    <glyph glyph-name="Eta" unicode="&#x397;" horiz-adv-x="1316" 
d="M1146 0h-171v650h-633v-650h-171v1365h171v-565h633v565h171v-1365z" />
    <glyph glyph-name="Theta" unicode="&#x398;" horiz-adv-x="1292" 
d="M649 1393c175.333 0 312 -68.333 410 -205s147 -304 147 -502c0 -205.333 -51.333 -375.5 -154 -510.5s-238.667 -202.5 -408 -202.5c-168.667 0 -304 66 -406 198s-153 299 -153 501c0 131.333 23.167 252.333 69.5 363s110.833 198 193.5 262s183 96 301 96zM645 1253
c-108 0 -198.5 -49.668 -271.5 -149.001s-109.5 -243.666 -109.5 -432.999c0 -176 34.667 -313.167 104 -411.5s162.333 -147.5 279 -147.5s209.167 53 277.5 159s102.5 244.667 102.5 416c0 166.667 -34.5 302.667 -103.5 408s-161.833 158 -278.5 158zM838 778.999v-150
h-382v150h382z" />
    <glyph glyph-name="Iota" unicode="&#x399;" horiz-adv-x="512" 
d="M342 0h-171v1365h171v-1365z" />
    <glyph glyph-name="Kappa" unicode="&#x39a;" horiz-adv-x="1287" 
d="M1250 0h-187l-408 753l-313 -389v-364h-171v1365h171v-792l617 792h185l-370 -478z" />
    <glyph glyph-name="Lambda" unicode="&#x39b;" horiz-adv-x="1145" 
d="M162 0h-155l443 1365h216l472 -1365h-202l-389 1183h-16z" />
    <glyph glyph-name="Mu" unicode="&#x39c;" horiz-adv-x="1659" 
d="M1489 0h-166v1192l-444 -1192h-116l-447 1192v-1192h-145v1365h254l411 -1092l403 1092h250v-1365z" />
    <glyph glyph-name="Nu" unicode="&#x39d;" horiz-adv-x="1346" 
d="M1176 0h-166l-706 1190l2 -90c2 -34 3 -62.667 3 -86v-1014h-138v1365h214l660 -1113l-2 95c-1.33301 37.333 -2 70.333 -2 99v919h135v-1365z" />
    <glyph glyph-name="Xi" unicode="&#x39e;" horiz-adv-x="1039" 
d="M79 1215v150h882v-150h-882zM176 649v150h685v-150h-685zM79 0v150h882v-150h-882z" />
    <glyph glyph-name="Omicron" unicode="&#x39f;" horiz-adv-x="1292" 
d="M642 -27c-175.333 0 -312 68.165 -410 204.498s-147 303.5 -147 501.5c0 206.667 51.333 377.334 154 512.001s238.667 202 408 202c168.667 0 304 -66.167 406 -198.5s153 -299.166 153 -500.499c0 -193.333 -49.5 -361.833 -148.5 -505.5s-237.5 -215.5 -415.5 -215.5z
M646 111.998c119.333 0 212.668 54.333 280.001 163s101 248.667 101 420c0 176 -34.833 313 -104.5 411s-162.167 147 -277.5 147c-116.667 0 -209.334 -53 -278.001 -159s-103 -244.667 -103 -416c0 -167.333 34.667 -303.5 104 -408.5s162 -157.5 278 -157.5z" />
    <glyph glyph-name="Pi" unicode="&#x3a0;" horiz-adv-x="1274" 
d="M179 0v1365h916v-1365h-170v1215h-575v-1215h-171z" />
    <glyph glyph-name="Rho" unicode="&#x3a1;" horiz-adv-x="1145" 
d="M342 0l-171 -0.000976562v1365h484c151.333 0 263 -41.167 335 -123.5s108 -176.166 108 -281.499c0 -117.333 -39.167 -214.333 -117.5 -291s-180.833 -115 -307.5 -115h-331v-554zM342 695.999l314 0.000976562c80.667 0 145.667 24.167 195 72.5
s74 112.166 74 191.499c0 68 -22 128.667 -66 182s-107.667 80 -191 80h-326v-526z" />
    <glyph glyph-name="Sigma" unicode="&#x3a3;" horiz-adv-x="1001" 
d="M84 0v128l427 584l-406 525v128h816v-136h-609l399 -488l-437 -591h703v-150h-893z" />
    <glyph glyph-name="Tau" unicode="&#x3a4;" horiz-adv-x="994" 
d="M582 0h-170v1215h-391v150h953v-150h-392v-1215z" />
    <glyph glyph-name="Upsilon" unicode="&#x3a5;" horiz-adv-x="1045" 
d="M1065 1365l-457 -791v-574h-171v574l-457 791h201l363 -628l365 628h156z" />
    <glyph glyph-name="Phi" unicode="&#x3a6;" horiz-adv-x="1496" 
d="M669 126c-195.333 18 -338.666 76.666 -429.999 175.999s-137 224.333 -137 375c0 162.667 46.667 292.834 140 390.501s235.666 155.167 426.999 172.5v166h157v-166c195.333 -18 338.833 -76.667 430.5 -176s137.5 -224 137.5 -374
c0 -163.333 -46.833 -293.833 -140.5 -391.5s-236.167 -155.167 -427.5 -172.5v-167h-157v167zM826 251.999c259.333 33.333 389 179 389 437c0 249.333 -129.667 391 -389 425v-862zM669 1114c-258.667 -32 -388 -177.667 -388 -437c0 -249.333 129.333 -391 388 -425v862z
" />
    <glyph glyph-name="Chi" unicode="&#x3a7;" horiz-adv-x="1065" 
d="M1005 1365l-383 -625l438 -740h-193l-345 582l-358 -582h-159l437 706l-389 659h191l299 -504l306 504h156z" />
    <glyph glyph-name="Psi" unicode="&#x3a8;" horiz-adv-x="1559" 
d="M694 0l0.00292969 260.002c-156.667 11.333 -273.334 44.166 -350.001 98.499s-127.667 123.666 -153 207.999s-38 215.166 -38 392.499v406h171v-406c0 -149.333 6.66699 -256.166 20 -320.499s48.5 -118.833 105.5 -163.5s138.5 -70 244.5 -76v966h171v-966
c105.333 5.33301 185.666 29.5 240.999 72.5s90.666 96.5 105.999 160.5s23 173 23 327v406h171v-406c0 -174.667 -11.5 -304.167 -34.5 -388.5s-74.833 -154.333 -155.5 -210s-197.667 -89.167 -351 -100.5v-260h-171z" />
    <glyph glyph-name="Omega" unicode="&#x3a9;" horiz-adv-x="1305" 
d="M58 0v150.001h326c-199.333 120 -299 316.667 -299 590c0 208 55 368.833 165 482.5s244 170.5 402 170.5s292 -56.833 402 -170.5s165 -274.5 165 -482.5c0 -273.333 -99.333 -470 -298 -590h326v-150h-501v150c196 126 294 323.667 294 593
c0 159.333 -36.167 284.166 -108.5 374.499s-165.5 135.5 -279.5 135.5c-114.667 0 -208 -45.5 -280 -136.5s-108 -215.5 -108 -373.5c0 -269.333 98.333 -467 295 -593v-150h-501z" />
    <glyph glyph-name="Iotadieresis" unicode="&#x3aa;" horiz-adv-x="512" 
d="M342 0h-171v1365h171v-1365zM543 1625c0 -28.667 -10.5 -53.001 -31.5 -73.001s-45.833 -30 -74.5 -30s-53.5 10 -74.5 30s-31.5 44 -31.5 72c0 28.667 10.5 52.834 31.5 72.501s45.5 29.5 73.5 29.5c29.333 0 54.5 -9.83301 75.5 -29.5s31.5 -43.5 31.5 -71.5zM221 1624
c0 -28 -10.5 -52.001 -31.5 -72.001s-45.5 -30 -73.5 -30s-52.167 10 -72.5 30s-30.5 43.667 -30.5 71c0 28.667 10.167 52.834 30.5 72.501s43.5 29.5 69.5 29.5c32 0 58 -10 78 -30s30 -43.667 30 -71z" />
    <glyph glyph-name="Upsilondieresis" unicode="&#x3ab;" horiz-adv-x="1045" 
d="M1065 1365l-457 -791v-574h-171v574l-457 791h201l363 -628l365 628h156zM801 1625c0 -28.667 -10.5 -53.001 -31.5 -73.001s-45.833 -30 -74.5 -30s-53.5 10 -74.5 30s-31.5 44 -31.5 72c0 28.667 10.5 52.834 31.5 72.501s45.5 29.5 73.5 29.5
c29.333 0 54.5 -9.83301 75.5 -29.5s31.5 -43.5 31.5 -71.5zM479 1624c0 -28 -10.5 -52.001 -31.5 -72.001s-45.5 -30 -73.5 -30s-52.167 10 -72.5 30s-30.5 43.667 -30.5 71c0 28.667 10.167 52.834 30.5 72.501s43.5 29.5 69.5 29.5c32 0 58 -10 78 -30s30 -43.667 30 -71
z" />
    <glyph glyph-name="alphatonos" unicode="&#x3ac;" horiz-adv-x="1193" 
d="M1146 0l-172.001 0.000976562l-124 341c-85.333 -245.333 -209.666 -368 -372.999 -368c-117.333 0 -213 50 -287 150s-111 225 -111 375c0 165.333 39.833 296.666 119.5 393.999s180.5 146 302.5 146c152.667 0 267.667 -105.333 345 -316l99 288h156l-170 -479z
M792.999 531.001c-45.333 130 -89.833 225.333 -133.5 286s-96.167 91 -157.5 91c-68 0 -126.833 -35.167 -176.5 -105.5s-74.5 -171.5 -74.5 -303.5c0 -119.333 24.333 -215.333 73 -288s107.667 -109 177 -109c56 0 105.833 30 149.5 90s91.167 173 142.5 339z
M833.999 1356l-414 -189l-43 81l396 228z" />
    <glyph glyph-name="epsilontonos" unicode="&#x3ad;" horiz-adv-x="909" 
d="M564 593l0.000976562 -131c-88.667 0 -149.667 -3.33301 -183 -10s-61.833 -23.167 -85.5 -49.5s-35.5 -62.5 -35.5 -108.5c0 -61.333 20 -108.666 60 -141.999s89 -50 147 -50c138 0 226.667 74.667 266 224l148 -26c-21.333 -92 -67.5 -169.5 -138.5 -232.5
s-168.167 -94.5 -291.5 -94.5c-120 0 -210.5 31.167 -271.5 93.5s-91.5 135.5 -91.5 219.5c0 126 71 209 213 249c-124.667 51.333 -187 129 -187 233c0 75.333 30.667 139.166 92 191.499s150.333 78.5 267 78.5c110 0 196.833 -27.5 260.5 -82.5
s102.167 -122.5 115.5 -202.5l-146 -27c-26.667 121.333 -103.334 182 -230.001 182c-124.667 0 -187 -51.333 -187 -154c0 -52.667 18.667 -92.667 56 -120s111.333 -41 222 -41zM733.001 1356l-414 -189l-43 81l396 228z" />
    <glyph glyph-name="etatonos" unicode="&#x3ae;" horiz-adv-x="1090" 
d="M946 -341l-157 0.000976562v977c0 107.333 -19 178.666 -57 213.999s-83.333 53 -136 53c-84.667 0 -154 -32.667 -208 -98s-81 -149 -81 -251v-554h-157v1010h146v-186c82 142.667 192 214 330 214c79.333 0 143.5 -18.5 192.5 -55.5s82.5 -82.167 100.5 -135.5
s27 -141 27 -263v-925zM817 1356l-414 -189l-43 81l396 228z" />
    <glyph glyph-name="iotatonos" unicode="&#x3af;" horiz-adv-x="457" 
d="M151 0v1010h157v-1010h-157zM478 1356l-414 -189l-43 81l396 228z" />
    <glyph glyph-name="upsilondieresistonos" unicode="&#x3b0;" horiz-adv-x="1039" 
d="M293 1010l-0.000976562 -638.997c0 -72 5.33301 -124.5 16 -157.5s34.167 -59.833 70.5 -80.5s82.833 -31 139.5 -31c54.667 0 100.334 10 137.001 30s60.667 46.333 72 79s17 86 17 160v639h157v-639c0 -106.667 -12.5 -185.334 -37.5 -236.001
s-64.667 -90.334 -119 -119.001s-127.5 -43 -219.5 -43c-82.667 0 -153.5 11.167 -212.5 33.5s-103.333 60.666 -133 114.999s-44.5 137.5 -44.5 249.5v639h157zM747.999 1622l-264 -199l-61 68l225 236zM783.999 1304c0 -28.667 -10.5 -53.001 -31.5 -73.001
s-45.833 -30 -74.5 -30s-53.5 10 -74.5 30s-31.5 44 -31.5 72c0 28.667 10.5 52.834 31.5 72.501s45.5 29.5 73.5 29.5c29.333 0 54.5 -9.83301 75.5 -29.5s31.5 -43.5 31.5 -71.5zM461.999 1303c0 -28 -10.5 -52.001 -31.5 -72.001s-45.5 -30 -73.5 -30
s-52.167 10 -72.5 30s-30.5 43.667 -30.5 71c0 28.667 10.167 52.834 30.5 72.501s43.5 29.5 69.5 29.5c32 0 58 -10 78 -30s30 -43.667 30 -71z" />
    <glyph glyph-name="alpha" unicode="&#x3b1;" horiz-adv-x="1193" 
d="M1146 0l-172.001 0.000976562l-124 341c-85.333 -245.333 -209.666 -368 -372.999 -368c-117.333 0 -213 50 -287 150s-111 225 -111 375c0 165.333 39.833 296.666 119.5 393.999s180.5 146 302.5 146c152.667 0 267.667 -105.333 345 -316l99 288h156l-170 -479z
M792.999 531.001c-45.333 130 -89.833 225.333 -133.5 286s-96.167 91 -157.5 91c-68 0 -126.833 -35.167 -176.5 -105.5s-74.5 -171.5 -74.5 -303.5c0 -119.333 24.333 -215.333 73 -288s107.667 -109 177 -109c56 0 105.833 30 149.5 90s91.167 173 142.5 339z" />
    <glyph glyph-name="beta" unicode="&#x3b2;" horiz-adv-x="1106" 
d="M164 -341l-0.000976562 1284c0 118 11 206 33 264s61.167 103.5 117.5 136.5s130.833 49.5 223.5 49.5c126 0 223 -29.833 291 -89.5s102 -136.5 102 -230.5c0 -134.667 -68.667 -233.667 -206 -297c194.667 -55.333 292 -181 292 -377
c0 -122.667 -38.167 -224.334 -114.5 -305.001s-178.833 -121 -307.5 -121c-125.333 0 -216.666 40 -273.999 120v-434h-157zM320.999 203.001c57.333 -71.333 132.666 -106.999 225.999 -106.999c91.333 0 163.833 29 217.5 87s80.5 133 80.5 225
c0 87.333 -24.5 158.166 -73.5 212.499s-128.5 81.5 -238.5 81.5v122c156.667 2 235 78.667 235 230c0 66.667 -19.5 120.167 -58.5 160.5s-96.5 60.5 -172.5 60.5c-56.667 0 -100.667 -11.333 -132 -34s-53.166 -53 -65.499 -91s-18.5 -104.333 -18.5 -199v-748z" />
    <glyph glyph-name="gamma" unicode="&#x3b3;" horiz-adv-x="875" 
d="M358 -341v373l-358 978h178l268 -783l264 783h151l-346 -978v-373h-157z" />
    <glyph glyph-name="delta" unicode="&#x3b4;" horiz-adv-x="1049" 
d="M850 1365l-0.00195312 -123h-443l185 -142c146.667 -112 244.834 -207.167 294.501 -285.5s74.5 -182.5 74.5 -312.5c0 -163.333 -38.5 -292.333 -115.5 -387s-181.833 -142 -314.5 -142c-134.667 0 -242 45.167 -322 135.5s-120 212.5 -120 366.5
c0 116.667 19.833 211.167 59.5 283.5s90.334 125.5 152.001 159.5s136.5 52 224.5 54l-330 270v123h655zM524.998 892c-75.333 0 -138.168 -31.6689 -188.501 -95.002s-75.5 -162 -75.5 -296c0 -141.333 25.333 -243.166 76 -305.499s113.667 -93.5 189 -93.5
c79.333 0 143 33 191 99s72 165.333 72 298c0 142.667 -25.667 243.834 -77 303.501s-113.666 89.5 -186.999 89.5z" />
    <glyph glyph-name="epsilon" unicode="&#x3b5;" horiz-adv-x="909" 
d="M564 593l0.000976562 -131c-88.667 0 -149.667 -3.33301 -183 -10s-61.833 -23.167 -85.5 -49.5s-35.5 -62.5 -35.5 -108.5c0 -61.333 20 -108.666 60 -141.999s89 -50 147 -50c138 0 226.667 74.667 266 224l148 -26c-21.333 -92 -67.5 -169.5 -138.5 -232.5
s-168.167 -94.5 -291.5 -94.5c-120 0 -210.5 31.167 -271.5 93.5s-91.5 135.5 -91.5 219.5c0 126 71 209 213 249c-124.667 51.333 -187 129 -187 233c0 75.333 30.667 139.166 92 191.499s150.333 78.5 267 78.5c110 0 196.833 -27.5 260.5 -82.5
s102.167 -122.5 115.5 -202.5l-146 -27c-26.667 121.333 -103.334 182 -230.001 182c-124.667 0 -187 -51.333 -187 -154c0 -52.667 18.667 -92.667 56 -120s111.333 -41 222 -41z" />
    <glyph glyph-name="zeta" unicode="&#x3b6;" horiz-adv-x="741" 
d="M123 1242l0.000976562 123h567v-92c-286.667 -286.667 -430 -574 -430 -862c0 -66.667 8.5 -119.667 25.5 -159s39.667 -66 68 -80s77.5 -23 147.5 -27c83.333 -5.33301 138 -24.833 164 -58.5s39 -76.167 39 -127.5c0 -83.333 -27.333 -188 -82 -314l-150 27
c50.667 110 76 191 76 243c0 30 -9.83301 50.667 -29.5 62s-55.834 18 -108.501 20c-86.667 4 -151.5 22.667 -194.5 56s-75 80.833 -96 142.5s-31.5 128.167 -31.5 199.5c0 160.667 46.5 319 139.5 475s189.5 280 289.5 372h-394z" />
    <glyph glyph-name="eta" unicode="&#x3b7;" horiz-adv-x="1090" 
d="M946 -341l-157 0.000976562v977c0 107.333 -19 178.666 -57 213.999s-83.333 53 -136 53c-84.667 0 -154 -32.667 -208 -98s-81 -149 -81 -251v-554h-157v1010h146v-186c82 142.667 192 214 330 214c79.333 0 143.5 -18.5 192.5 -55.5s82.5 -82.167 100.5 -135.5
s27 -141 27 -263v-925z" />
    <glyph glyph-name="theta" unicode="&#x3b8;" horiz-adv-x="1073" 
d="M536 1393c135.333 0 242.167 -58.999 320.5 -176.999s117.5 -295.667 117.5 -533c0 -238.667 -39.333 -416.667 -118 -534s-185.334 -176 -320.001 -176c-87.333 0 -165.166 26.667 -233.499 80s-119.333 134 -153 242s-50.5 237.333 -50.5 388
c0 170 19.167 306.667 57.5 410s90.5 179.166 156.5 227.499s140.333 72.5 223 72.5zM262.001 771.001h549.001c-9.33301 190 -39.833 320.833 -91.5 392.5s-112.834 107.5 -183.501 107.5c-70 0 -130.833 -35.833 -182.5 -107.5s-82.167 -202.5 -91.5 -392.5z
M262.002 656.001c0.666992 -195.333 26.332 -337.833 76.999 -427.5s116.334 -134.5 197.001 -134.5c74.667 0 138 39.667 190 119s80.333 227 85 443h-549z" />
    <glyph glyph-name="iota" unicode="&#x3b9;" horiz-adv-x="457" 
d="M150 0v1010h157v-1010h-157z" />
    <glyph glyph-name="kappa" unicode="&#x3ba;" horiz-adv-x="986" 
d="M586 672l366 -672h-185l-291 556l-169 -177v-379h-157v1010h157v-331c0 -46.667 -2.33301 -96.667 -7 -150c25.333 32 58.333 70 99 114l335 367h174z" />
    <glyph glyph-name="lambda" unicode="&#x3bb;" horiz-adv-x="846" 
d="M4 0l337 941l-149 424h165l482 -1365h-169l-262 764l-258 -764h-146z" />
    <glyph glyph-name="mu" unicode="&#x3bc;" horiz-adv-x="1095" 
d="M150 -341v1351h157v-566c0 -74 7 -132 21 -174s39.833 -78.833 77.5 -110.5s83.167 -47.5 136.5 -47.5c164 0 246 114.667 246 344v554h157v-1010h-143v158c-59.333 -123.333 -144.333 -185 -255 -185c-106 0 -186 52.667 -240 158v-472h-157z" />
    <glyph glyph-name="nu" unicode="&#x3bd;" horiz-adv-x="922" 
d="M897 1010l-349 -1010h-163l-361 1010h174l281 -821l278 821h140z" />
    <glyph glyph-name="xi" unicode="&#x3be;" horiz-adv-x="840" 
d="M615 -328c37.333 96.667 56.002 173 56.002 229c0 37.333 -11.167 62.5 -33.5 75.5s-68.5 21.167 -138.5 24.5c-90 4.66699 -163.833 18.667 -221.5 42s-105.334 63.5 -143.001 120.5s-56.5 129.167 -56.5 216.5c0 199.333 101.333 320.666 304 363.999
c-154 37.333 -231 117 -231 239c0 62.667 23 118.5 69 167.5s107 83.5 183 103.5h-268v111h675v-116h-116c-134 0 -231 -23 -291 -69s-90 -103.667 -90 -173c0 -140 106 -210 318 -210h58v-121h-58c-86.667 0 -156 -8.5 -208 -25.5s-93.833 -48.167 -125.5 -93.5
s-47.5 -101 -47.5 -167c0 -62.667 17.333 -116.167 52 -160.5s102 -69.166 202 -74.499c93.333 -4 158.666 -10.167 195.999 -18.5s68.833 -28.5 94.5 -60.5s38.5 -77.667 38.5 -137c0 -90.667 -21.333 -188.667 -64 -294z" />
    <glyph glyph-name="omicron" unicode="&#x3bf;" horiz-adv-x="1064" 
d="M519 -27c-138.667 0 -246.832 51.333 -324.499 154s-116.5 230 -116.5 382c0 160.667 43.667 289 131 385s196 144 326 144c139.333 0 249.166 -50.5 329.499 -151.5s120.5 -227.167 120.5 -378.5c0 -157.333 -43.333 -285.833 -130 -385.5s-198.667 -149.5 -336 -149.5z
M531.002 102c80 0 147 33 201 99s81 168.667 81 308c0 140 -28.333 241.5 -85 304.5s-123 94.5 -199 94.5c-78 0 -144 -31.833 -198 -95.5s-81 -164.5 -81 -302.5c0 -146 27 -250.5 81 -313.5s120.667 -94.5 200 -94.5z" />
    <glyph glyph-name="pi" unicode="&#x3c0;" horiz-adv-x="1094" 
d="M188 0v887h-126v123h972v-123h-127v-887h-157v887h-405v-887h-157z" />
    <glyph glyph-name="rho" unicode="&#x3c1;" horiz-adv-x="1084" 
d="M123 -341l0.000976562 712.001c0 161.333 10.167 283 30.5 365s66.166 152.833 137.499 212.5s160.666 89.5 267.999 89.5c138.667 0 247.834 -47.5 327.501 -142.5s119.5 -223.167 119.5 -384.5c0 -160.667 -38.167 -287.834 -114.5 -381.501
s-173.5 -140.5 -291.5 -140.5c-144 0 -250.667 73 -320 219v-549h-157zM557.001 908.001c-176.667 0 -264.999 -127.333 -264.999 -382c0 -139.333 25.667 -241.833 77 -307.5s117.333 -98.5 198 -98.5c81.333 0 146.166 33.5 194.499 100.5s72.5 165.167 72.5 294.5
c0 262 -92.333 393 -277 393z" />
    <glyph glyph-name="sigma1" unicode="&#x3c2;" horiz-adv-x="925" 
d="M656 -328c37.333 71.333 55.998 147.336 55.998 228.003c0 41.333 -7.83301 70 -23.5 86s-49.5 27.667 -101.5 35c-130.667 18 -229.834 45.5 -297.501 82.5s-119.667 91.667 -156 164s-54.5 159.166 -54.5 260.499c0 151.333 36.333 274.166 109 368.499
s175 141.5 307 141.5c214.667 0 342.334 -117.667 383.001 -353l-151 -27c-24 166.667 -100.667 250 -230 250c-76 0 -137.5 -30.5 -184.5 -91.5s-70.5 -154.5 -70.5 -280.5c0 -114.667 25.5 -200.834 76.5 -258.501s149.833 -96.5 296.5 -116.5
c76.667 -10.667 130.334 -22.5 161.001 -35.5s55.334 -35.333 74.001 -67s28 -75.5 28 -131.5c0 -85.333 -22.667 -179.333 -68 -282z" />
    <glyph glyph-name="sigma" unicode="&#x3c3;" horiz-adv-x="1044" 
d="M1018 1010l-0.000976562 -122.001h-254c124.667 -96 187 -228.667 187 -398c0 -164 -40.667 -291.167 -122 -381.5s-186.666 -135.5 -315.999 -135.5c-132 0 -237.5 46.833 -316.5 140.5s-118.5 219.167 -118.5 376.5c0 162.667 40.5 292.334 121.5 389.001
s189.833 145 326.5 145c36 0 74.333 -4.66699 115 -14h377zM514.999 893.999c-74 0 -136.667 -31.168 -188 -93.501s-77 -162.166 -77 -299.499c0 -140 26.5 -241.5 79.5 -304.5s115.5 -94.5 187.5 -94.5c73.333 0 135.333 32 186 96s76 164.333 76 301
c0 143.333 -25.5 245 -76.5 305s-113.5 90 -187.5 90z" />
    <glyph glyph-name="tau" unicode="&#x3c4;" horiz-adv-x="828" 
d="M333 0v887h-303v123h763v-123h-303v-887h-157z" />
    <glyph glyph-name="upsilon" unicode="&#x3c5;" horiz-adv-x="1039" 
d="M293 1010l-0.000976562 -638.997c0 -72 5.33301 -124.5 16 -157.5s34.167 -59.833 70.5 -80.5s82.833 -31 139.5 -31c54.667 0 100.334 10 137.001 30s60.667 46.333 72 79s17 86 17 160v639h157v-639c0 -106.667 -12.5 -185.334 -37.5 -236.001
s-64.667 -90.334 -119 -119.001s-127.5 -43 -219.5 -43c-82.667 0 -153.5 11.167 -212.5 33.5s-103.333 60.666 -133 114.999s-44.5 137.5 -44.5 249.5v639h157z" />
    <glyph glyph-name="phi" unicode="&#x3c6;" horiz-adv-x="1283" 
d="M567 -341v314.001c-162.667 15.333 -283 72 -361 170s-117 220.667 -117 368c0 222 88.333 375.667 265 461l63 -121c-109.333 -62.667 -164 -176.334 -164 -341.001c0 -243.333 104.667 -381.333 314 -414v932c29.333 6.66699 60.333 10 93 10
c168.667 0 300 -51 394 -153s141 -229.667 141 -383c0 -141.333 -41.833 -262.333 -125.5 -363s-201.167 -156 -352.5 -166v-314h-150zM717 96.001c209.333 28 314 167.333 314 418c0 126.667 -29.167 224.667 -87.5 294s-133.833 106.333 -226.5 111v-823z" />
    <glyph glyph-name="chi" unicode="&#x3c7;" horiz-adv-x="917" 
d="M359 391l-316 619h177l252 -501l259 501h153l-340 -641l361 -710h-179l-285 609l-304 -609h-160z" />
    <glyph glyph-name="psi" unicode="&#x3c8;" horiz-adv-x="1393" 
d="M618 -341l-0.000976562 314.001c-112.667 3.33301 -204.667 22.833 -276 58.5s-121.166 85 -149.499 148s-42.5 157.167 -42.5 282.5v548h157v-548c0 -115.333 11 -193.5 33 -234.5s56 -71.833 102 -92.5s104.667 -31.334 176 -32.001v907h157v-907
c72 0.666992 132.5 12.5 181.5 35.5s82.833 56.5 101.5 100.5s28 118.333 28 223v548h157v-548c0 -115.333 -12.167 -205 -36.5 -269s-72 -115.833 -143 -155.5s-167.167 -61.167 -288.5 -64.5v-314h-157z" />
    <glyph glyph-name="omega" unicode="&#x3c9;" horiz-adv-x="1377" 
d="M767 760l-0.000976562 -364.997c0 -129.333 14 -210.5 42 -243.5s60.667 -49.5 98 -49.5c61.333 0 111.5 28.667 150.5 86s58.5 150.666 58.5 279.999c0 190 -53.667 353.333 -161 490l111 80c148.667 -157.333 223 -341.333 223 -552
c0 -176 -37.167 -305.5 -111.5 -388.5s-161.833 -124.5 -262.5 -124.5c-102 0 -177.333 57.333 -226 172c-49.333 -114.667 -124.666 -172 -225.999 -172c-104.667 0 -193.167 43 -265.5 129s-108.5 211.667 -108.5 377c0 219.333 74.333 405.666 223 558.999l111 -80
c-108 -136.667 -162 -300 -162 -490c0 -126.667 19.5 -219.334 58.5 -278.001s89.5 -88 151.5 -88c37.333 0 69.833 16.5 97.5 49.5s41.5 114.167 41.5 243.5v365h157z" />
    <glyph glyph-name="iotadieresis" unicode="&#x3ca;" horiz-adv-x="457" 
d="M150 0v1010h157v-1010h-157zM494 1304c0 -28.667 -10.5 -53.001 -31.5 -73.001s-45.833 -30 -74.5 -30s-53.5 10 -74.5 30s-31.5 44 -31.5 72c0 28.667 10.5 52.834 31.5 72.501s45.5 29.5 73.5 29.5c29.333 0 54.5 -9.83301 75.5 -29.5s31.5 -43.5 31.5 -71.5zM172 1303
c0 -28 -10.5 -52.001 -31.5 -72.001s-45.5 -30 -73.5 -30s-52.167 10 -72.5 30s-30.5 43.667 -30.5 71c0 28.667 10.167 52.834 30.5 72.501s43.5 29.5 69.5 29.5c32 0 58 -10 78 -30s30 -43.667 30 -71z" />
    <glyph glyph-name="upsilondieresis" unicode="&#x3cb;" horiz-adv-x="1039" 
d="M293 1010l-0.000976562 -638.997c0 -72 5.33301 -124.5 16 -157.5s34.167 -59.833 70.5 -80.5s82.833 -31 139.5 -31c54.667 0 100.334 10 137.001 30s60.667 46.333 72 79s17 86 17 160v639h157v-639c0 -106.667 -12.5 -185.334 -37.5 -236.001
s-64.667 -90.334 -119 -119.001s-127.5 -43 -219.5 -43c-82.667 0 -153.5 11.167 -212.5 33.5s-103.333 60.666 -133 114.999s-44.5 137.5 -44.5 249.5v639h157zM783.999 1304c0 -28.667 -10.5 -53.001 -31.5 -73.001s-45.833 -30 -74.5 -30s-53.5 10 -74.5 30
s-31.5 44 -31.5 72c0 28.667 10.5 52.834 31.5 72.501s45.5 29.5 73.5 29.5c29.333 0 54.5 -9.83301 75.5 -29.5s31.5 -43.5 31.5 -71.5zM461.999 1303c0 -28 -10.5 -52.001 -31.5 -72.001s-45.5 -30 -73.5 -30s-52.167 10 -72.5 30s-30.5 43.667 -30.5 71
c0 28.667 10.167 52.834 30.5 72.501s43.5 29.5 69.5 29.5c32 0 58 -10 78 -30s30 -43.667 30 -71z" />
    <glyph glyph-name="omicrontonos" unicode="&#x3cc;" horiz-adv-x="1064" 
d="M519 -27c-138.667 0 -246.832 51.333 -324.499 154s-116.5 230 -116.5 382c0 160.667 43.667 289 131 385s196 144 326 144c139.333 0 249.166 -50.5 329.499 -151.5s120.5 -227.167 120.5 -378.5c0 -157.333 -43.333 -285.833 -130 -385.5s-198.667 -149.5 -336 -149.5z
M531.002 102c80 0 147 33 201 99s81 168.667 81 308c0 140 -28.333 241.5 -85 304.5s-123 94.5 -199 94.5c-78 0 -144 -31.833 -198 -95.5s-81 -164.5 -81 -302.5c0 -146 27 -250.5 81 -313.5s120.667 -94.5 200 -94.5zM780.002 1356l-414 -189l-43 81l396 228z" />
    <glyph glyph-name="upsilontonos" unicode="&#x3cd;" horiz-adv-x="1039" 
d="M293 1010l-0.000976562 -638.997c0 -72 5.33301 -124.5 16 -157.5s34.167 -59.833 70.5 -80.5s82.833 -31 139.5 -31c54.667 0 100.334 10 137.001 30s60.667 46.333 72 79s17 86 17 160v639h157v-639c0 -106.667 -12.5 -185.334 -37.5 -236.001
s-64.667 -90.334 -119 -119.001s-127.5 -43 -219.5 -43c-82.667 0 -153.5 11.167 -212.5 33.5s-103.333 60.666 -133 114.999s-44.5 137.5 -44.5 249.5v639h157zM767.999 1356l-414 -189l-43 81l396 228z" />
    <glyph glyph-name="omegatonos" unicode="&#x3ce;" horiz-adv-x="1377" 
d="M767 760l-0.000976562 -364.997c0 -129.333 14 -210.5 42 -243.5s60.667 -49.5 98 -49.5c61.333 0 111.5 28.667 150.5 86s58.5 150.666 58.5 279.999c0 190 -53.667 353.333 -161 490l111 80c148.667 -157.333 223 -341.333 223 -552
c0 -176 -37.167 -305.5 -111.5 -388.5s-161.833 -124.5 -262.5 -124.5c-102 0 -177.333 57.333 -226 172c-49.333 -114.667 -124.666 -172 -225.999 -172c-104.667 0 -193.167 43 -265.5 129s-108.5 211.667 -108.5 377c0 219.333 74.333 405.666 223 558.999l111 -80
c-108 -136.667 -162 -300 -162 -490c0 -126.667 19.5 -219.334 58.5 -278.001s89.5 -88 151.5 -88c37.333 0 69.833 16.5 97.5 49.5s41.5 114.167 41.5 243.5v365h157zM937.999 1356l-414 -189l-43 81l396 228z" />
    <glyph glyph-name="afii10023" unicode="&#x401;" horiz-adv-x="1095" 
d="M1054 150v-150h-883v1365h864v-150h-693v-434h550v-139h-550v-492h712zM881 1625c0 -28.667 -10.5 -53.001 -31.5 -73.001s-45.833 -30 -74.5 -30s-53.5 10 -74.5 30s-31.5 44 -31.5 72c0 28.667 10.5 52.834 31.5 72.501s45.5 29.5 73.5 29.5
c29.333 0 54.5 -9.83301 75.5 -29.5s31.5 -43.5 31.5 -71.5zM559 1624c0 -28 -10.5 -52.001 -31.5 -72.001s-45.5 -30 -73.5 -30s-52.167 10 -72.5 30s-30.5 43.667 -30.5 71c0 28.667 10.167 52.834 30.5 72.501s43.5 29.5 69.5 29.5c32 0 58 -10 78 -30s30 -43.667 30 -71
z" />
    <glyph glyph-name="afii10051" unicode="&#x402;" horiz-adv-x="1256" 
d="M233 0l-0.000976562 1215h-233v150h944v-150h-541v-509c82.667 128.667 200.334 193 353.001 193c132.667 0 231 -36.5 295 -109.5s96 -229.833 96 -470.5c0 -276 -36.333 -457.167 -109 -543.5s-181.667 -129.833 -327 -130.5l-11 147c106.667 0 179.5 32 218.5 96
s58.5 191.667 58.5 383c0 199.333 -17.167 330.833 -51.5 394.5s-98.833 95.5 -193.5 95.5c-105.333 0 -186.5 -29.167 -243.5 -87.5s-85.5 -140.5 -85.5 -246.5v-427h-170z" />
    <glyph glyph-name="afii10052" unicode="&#x403;" horiz-adv-x="872" 
d="M171 0v1365h701v-150h-530v-1215h-171zM786 1677l-414 -189l-43 81l396 228z" />
    <glyph glyph-name="afii10053" unicode="&#x404;" horiz-adv-x="1206" 
d="M801 786l0.000976562 -150h-527c1.33301 -157.333 36.833 -283.166 106.5 -377.499s163.5 -141.5 281.5 -141.5c165.333 0 279 92 341 276l162 -34c-80 -257.333 -249.333 -386 -508 -386c-193.333 0 -337 72.5 -431 217.5s-141 313.167 -141 504.5
c0 203.333 49.167 370.5 147.5 501.5s233.833 196.5 406.5 196.5c259.333 0 428 -122.333 506 -367l-165 -33c-58.667 170 -170 255 -334 255c-112.667 0 -200.834 -44.333 -264.501 -133s-99.5 -198.334 -107.5 -329.001h527z" />
    <glyph glyph-name="afii10054" unicode="&#x405;" horiz-adv-x="1166" 
d="M21 363l154.002 35c62 -186 196.333 -279 403 -279c108 0 189.333 22.833 244 68.5s82 106.834 82 183.501c0 58 -20.833 104.667 -62.5 140s-89.834 59.666 -144.501 72.999l-273 68c-70.667 18 -128.5 39.833 -173.5 65.5s-83.167 65.167 -114.5 118.5
s-47 114.333 -47 183c0 114 43 204.833 129 272.5s196.333 101.5 331 101.5c248 0 411 -112.333 489 -337l-155 -46c-18 80 -60.333 140.5 -127 181.5s-137.667 61.5 -213 61.5c-74.667 0 -141.167 -19.667 -199.5 -59s-87.5 -95 -87.5 -167
c0 -100.667 74 -168.667 222 -204l255 -61c233.333 -56 350 -181.667 350 -377c0 -118 -43.833 -216.167 -131.5 -294.5s-211.167 -117.5 -370.5 -117.5c-282.667 0 -469.334 130 -560.001 390z" />
    <glyph glyph-name="afii10055" unicode="&#x406;" horiz-adv-x="512" 
d="M342 0h-171v1365h171v-1365z" />
    <glyph glyph-name="afii10056" unicode="&#x407;" horiz-adv-x="512" 
d="M342 0h-171v1365h171v-1365zM543 1625c0 -28.667 -10.5 -53.001 -31.5 -73.001s-45.833 -30 -74.5 -30s-53.5 10 -74.5 30s-31.5 44 -31.5 72c0 28.667 10.5 52.834 31.5 72.501s45.5 29.5 73.5 29.5c29.333 0 54.5 -9.83301 75.5 -29.5s31.5 -43.5 31.5 -71.5zM221 1624
c0 -28 -10.5 -52.001 -31.5 -72.001s-45.5 -30 -73.5 -30s-52.167 10 -72.5 30s-30.5 43.667 -30.5 71c0 28.667 10.167 52.834 30.5 72.501s43.5 29.5 69.5 29.5c32 0 58 -10 78 -30s30 -43.667 30 -71z" />
    <glyph glyph-name="afii10057" unicode="&#x408;" horiz-adv-x="765" 
d="M608 1365l0.000976562 -948.001c0 -165.333 -37.333 -280.666 -112 -345.999s-173.667 -98 -297 -98c-66 0 -132.333 9 -199 27v140c65.333 -13.333 124.666 -20 177.999 -20c76 0 132 11.333 168 34s60.167 52 72.5 88s18.5 94.333 18.5 175v948h171z" />
    <glyph glyph-name="afii10058" unicode="&#x409;" horiz-adv-x="1629" 
d="M837 821h229.999c150.667 0 256.334 -13.667 317.001 -41s110 -73.166 148 -137.499s57 -142.5 57 -234.5c0 -130.667 -37.167 -231.334 -111.5 -302.001s-185.833 -106 -334.5 -106h-289l-263 1183h-53l-369 -1183h-162l450 1365h243zM1005 150h131
c100 0 171.667 22.333 215 67s65 109 65 193c0 173.333 -93.333 260 -280 260h-262zM1042 0z" />
    <glyph glyph-name="afii10059" unicode="&#x40a;" horiz-adv-x="1869" 
d="M1071 800l237 0.000976562c143.333 0 247 -11.833 311 -35.5s115 -67.334 153 -131.001s57 -142.834 57 -237.501c0 -121.333 -36.667 -217.666 -110 -288.999s-185 -107 -335 -107h-484v650h-558v-650h-171v1365h171v-565h558v565h171v-565zM1071 150.001h306
c187.333 0 281 86.333 281 259c0 160.667 -93.667 241 -281 241h-306v-500z" />
    <glyph glyph-name="afii10060" unicode="&#x40b;" horiz-adv-x="1270" 
d="M403 1215v-495c92 120 211.333 180 358 180c106.667 0 197.667 -32.667 273 -98s113 -182 113 -350v-452h-171v466c0 195.333 -82.333 293 -247 293c-138 0 -246.667 -55.333 -326 -166v-593h-170v1215h-233v150h951v-150h-548z" />
    <glyph glyph-name="afii10061" unicode="&#x40c;" horiz-adv-x="1236" 
d="M1250 0h-187l-408 753l-313 -389v-364h-171v1365h171v-792l617 792h185l-370 -478zM949 1684l-414 -189l-43 81l396 228z" />
    <glyph glyph-name="afii10062" unicode="&#x40e;" horiz-adv-x="1048" 
d="M476 386l-469 978.998h186l370 -779l311 779h167l-436 -1044c-63.333 -151.333 -122 -242.666 -176 -273.999s-123.667 -47 -209 -47h-38v150h63c56 0 97 10.333 123 31s54 68.334 84 143.001zM213 1759h114c16.667 -90.667 77 -136 181 -136
c108.667 0 171.667 45.333 189 136h114c-28.667 -170.667 -124 -256 -286 -256c-183.333 0 -287.333 85.333 -312 256z" />
    <glyph glyph-name="afii10145" unicode="&#x40f;" horiz-adv-x="1316" 
d="M355 150h606v1215h171v-1365h-393l-20 -287h-132l-20 287h-383v1365h171v-1215z" />
    <glyph glyph-name="afii10017" unicode="&#x410;" horiz-adv-x="1097" 
d="M1090 0h-175l-138 399h-505l-122 -399h-143l443 1365h195zM741 527l-210 656l-212 -656h422z" />
    <glyph glyph-name="afii10018" unicode="&#x411;" horiz-adv-x="1184" 
d="M171 0v1365h786v-150h-621v-415h243c128 0 225.5 -10.167 292.5 -30.5s121.833 -64 164.5 -131s64 -149.833 64 -248.5c0 -116.667 -36.667 -210.834 -110 -282.501s-185 -107.5 -335 -107.5h-484zM336 150.001h312c186.667 0 280 84.333 280 253
c0 83.333 -23 145.333 -69 186s-124.667 61 -236 61h-287v-500z" />
    <glyph glyph-name="afii10019" unicode="&#x412;" horiz-adv-x="1238" 
d="M171 0v1365h540c136 0 236.833 -33.333 302.5 -100s98.5 -144 98.5 -232c0 -154.667 -80.667 -257.334 -242 -308.001c96 -24.667 167.333 -68.667 214 -132s70 -135 70 -215c0 -107.333 -36.167 -197.166 -108.5 -269.499s-183.833 -108.5 -334.5 -108.5h-540zM336 780
l297.001 -0.000976562c123.333 0 205.666 23.5 246.999 70.5s62 102.167 62 165.5c0 62.667 -22.167 113.334 -66.5 152.001s-110.5 58 -198.5 58h-341v-446zM336.001 149.999l366 -0.000976562c89.333 0 158.333 21.667 207 65s73 99.666 73 168.999
c0 48.667 -11 93.834 -33 135.501s-53 73.834 -93 96.501s-99.667 34 -179 34h-341v-500z" />
    <glyph glyph-name="afii10020" unicode="&#x413;" horiz-adv-x="872" 
d="M171 0v1365h701v-150h-530v-1215h-171z" />
    <glyph glyph-name="afii10021" unicode="&#x414;" horiz-adv-x="1253" 
d="M86 150l394 1215h283l403 -1215h80v-437h-136l-21 287h-925l-20 -287h-137v437h79zM246 150h735l-333 1080h-71z" />
    <glyph glyph-name="afii10022" unicode="&#x415;" horiz-adv-x="1122" 
d="M1054 150v-150h-883v1365h864v-150h-693v-434h550v-139h-550v-492h712z" />
    <glyph glyph-name="afii10024" unicode="&#x416;" horiz-adv-x="1597" 
d="M1082 784l508 -784h-203l-437 680l-88 -29v-651h-157v651l-88 29l-437 -680h-173l474 734l-441 631h203l412 -581l50 -17v598h157v-598l50 17l412 581h181z" />
    <glyph glyph-name="afii10025" unicode="&#x417;" horiz-adv-x="1114" 
d="M16 381l154.997 37c25.333 -109.333 68.833 -187.666 130.5 -234.999s145.5 -71 251.5 -71c100.667 0 177 25.333 229 76s78 115 78 193c0 171.333 -97 257 -291 257h-129v147h118c78.667 0 142.334 20.667 191.001 62s73 99 73 173c0 70.667 -25.667 127.167 -77 169.5
s-118.666 63.5 -201.999 63.5c-184 0 -292.667 -87.333 -326 -262l-165 19c56.667 255.333 219 383 487 383c142 0 254.5 -34 337.5 -102s124.5 -155 124.5 -261c0 -156.667 -88 -259 -264 -307c201.333 -34 302 -144.333 302 -331c0 -114 -41.5 -212.333 -124.5 -295
s-208.5 -124 -376.5 -124c-145.333 0 -262.666 35.667 -351.999 107s-146 171.666 -170 300.999z" />
    <glyph glyph-name="afii10026" unicode="&#x418;" horiz-adv-x="1334" 
d="M342 114v-114h-171v1365h171v-882c0 -58 -2.33301 -117.333 -7 -178c47.333 85.333 103.333 172.333 168 261l490 666v133h171v-1365h-171v795c0 49.333 2.33301 131.333 7 246c-38.667 -74 -95 -161 -169 -261z" />
    <glyph glyph-name="afii10027" unicode="&#x419;" horiz-adv-x="1334" 
d="M342 114v-114h-171v1365h171v-882c0 -58 -2.33301 -117.333 -7 -178c47.333 85.333 103.333 172.333 168 261l490 666v133h171v-1365h-171v795c0 49.333 2.33301 131.333 7 246c-38.667 -74 -95 -161 -169 -261zM368 1759h114c16.667 -90.667 77 -136 181 -136
c108.667 0 171.667 45.333 189 136h114c-28.667 -170.667 -124 -256 -286 -256c-183.333 0 -287.333 85.333 -312 256z" />
    <glyph glyph-name="afii10028" unicode="&#x41a;" horiz-adv-x="1287" 
d="M1250 0h-187l-408 753l-313 -389v-364h-171v1365h171v-792l617 792h185l-370 -478z" />
    <glyph glyph-name="afii10029" unicode="&#x41b;" horiz-adv-x="1145" 
d="M169 0h-162l450 1365h243l438 -1365h-189l-358 1183h-53z" />
    <glyph glyph-name="afii10030" unicode="&#x41c;" horiz-adv-x="1659" 
d="M1489 0h-166v1192l-444 -1192h-116l-447 1192v-1192h-145v1365h254l411 -1092l403 1092h250v-1365z" />
    <glyph glyph-name="afii10031" unicode="&#x41d;" horiz-adv-x="1316" 
d="M1146 0h-171v650h-633v-650h-171v1365h171v-565h633v565h171v-1365z" />
    <glyph glyph-name="afii10032" unicode="&#x41e;" horiz-adv-x="1292" 
d="M642 -27c-175.333 0 -312 68.165 -410 204.498s-147 303.5 -147 501.5c0 206.667 51.333 377.334 154 512.001s238.667 202 408 202c168.667 0 304 -66.167 406 -198.5s153 -299.166 153 -500.499c0 -193.333 -49.5 -361.833 -148.5 -505.5s-237.5 -215.5 -415.5 -215.5z
M646 111.998c119.333 0 212.668 54.333 280.001 163s101 248.667 101 420c0 176 -34.833 313 -104.5 411s-162.167 147 -277.5 147c-116.667 0 -209.334 -53 -278.001 -159s-103 -244.667 -103 -416c0 -167.333 34.667 -303.5 104 -408.5s162 -157.5 278 -157.5z" />
    <glyph glyph-name="afii10033" unicode="&#x41f;" horiz-adv-x="1289" 
d="M171 0v1365h947v-1365h-170v1215h-606v-1215h-171z" />
    <glyph glyph-name="afii10034" unicode="&#x420;" horiz-adv-x="1145" 
d="M342 0l-171 -0.000976562v1365h484c151.333 0 263 -41.167 335 -123.5s108 -176.166 108 -281.499c0 -117.333 -39.167 -214.333 -117.5 -291s-180.833 -115 -307.5 -115h-331v-554zM342 695.999l314 0.000976562c80.667 0 145.667 24.167 195 72.5
s74 112.166 74 191.499c0 68 -22 128.667 -66 182s-107.667 80 -191 80h-326v-526z" />
    <glyph glyph-name="afii10035" unicode="&#x421;" horiz-adv-x="1186" 
d="M989 459l156 -34.999c-74.667 -300.667 -243.334 -451 -506.001 -451c-172.667 0 -308.167 69.667 -406.5 209s-147.5 310.666 -147.5 513.999c0 210 51.333 378.667 154 506s240.334 191 413.001 191c256 0 420.333 -146.333 493 -439l-161 -32
c-58.667 217.333 -169.667 326 -333 326c-120.667 0 -214.167 -50.5 -280.5 -151.5s-99.5 -242.833 -99.5 -425.5c0 -167.333 34 -301.5 102 -402.5s158 -151.5 270 -151.5c174 0 289.333 114 346 342z" />
    <glyph glyph-name="afii10036" unicode="&#x422;" horiz-adv-x="994" 
d="M582 0h-170v1215h-391v150h953v-150h-392v-1215z" />
    <glyph glyph-name="afii10037" unicode="&#x423;" horiz-adv-x="1048" 
d="M476 386l-469 978.998h186l370 -779l311 779h167l-436 -1044c-63.333 -151.333 -122 -242.666 -176 -273.999s-123.667 -47 -209 -47h-38v150h63c56 0 97 10.333 123 31s54 68.334 84 143.001z" />
    <glyph glyph-name="afii10038" unicode="&#x424;" horiz-adv-x="1496" 
d="M669 126c-195.333 18 -338.666 76.666 -429.999 175.999s-137 224.333 -137 375c0 162.667 46.667 292.834 140 390.501s235.666 155.167 426.999 172.5v166h157v-166c195.333 -18 338.833 -76.667 430.5 -176s137.5 -224 137.5 -374
c0 -163.333 -46.833 -293.833 -140.5 -391.5s-236.167 -155.167 -427.5 -172.5v-167h-157v167zM826 251.999c259.333 33.333 389 179 389 437c0 249.333 -129.667 391 -389 425v-862zM669 1114c-258.667 -32 -388 -177.667 -388 -437c0 -249.333 129.333 -391 388 -425v862z
" />
    <glyph glyph-name="afii10039" unicode="&#x425;" horiz-adv-x="1065" 
d="M1005 1365l-383 -625l438 -740h-193l-345 582l-358 -582h-159l437 706l-389 659h191l299 -504l306 504h156z" />
    <glyph glyph-name="afii10040" unicode="&#x426;" horiz-adv-x="1323" 
d="M184 0v1365h171v-1215h613v1215h171v-1215h170v-437h-136l-21 287h-968z" />
    <glyph glyph-name="afii10041" unicode="&#x427;" horiz-adv-x="1211" 
d="M869 0v646c-96 -120.667 -218.667 -181 -368 -181c-128 0 -227.167 37.333 -297.5 112s-105.5 186.667 -105.5 336v452h171v-466c0 -108 22.667 -183.833 68 -227.5s109.333 -65.5 192 -65.5c144 0 257.333 55.333 340 166v593h171v-1365h-171z" />
    <glyph glyph-name="afii10042" unicode="&#x428;" horiz-adv-x="1851" 
d="M184 0v1365h171v-1215h485v1215h171v-1215h485v1215h171v-1365h-1483z" />
    <glyph glyph-name="afii10043" unicode="&#x429;" horiz-adv-x="1865" 
d="M1667 150h184v-437h-136l-21 287h-1510v1365h171v-1215h485v1215h171v-1215h485v1215h171v-1215z" />
    <glyph glyph-name="afii10044" unicode="&#x42a;" horiz-adv-x="1278" 
d="M323 1215h-364.001v150h534v-544h224c133.333 0 232.333 -10.667 297 -32s118.334 -66 161.001 -134s64 -151 64 -249c0 -129.333 -37.167 -229.333 -111.5 -300s-185.833 -106 -334.5 -106h-470v1215zM492.999 150h293c100 0 171.667 22.333 215 67s65 109 65 193
c0 173.333 -93.333 260 -280 260h-293v-520z" />
    <glyph glyph-name="afii10045" unicode="&#x42b;" horiz-adv-x="1652" 
d="M1294 0v1365h171v-1365h-171zM187 0v1365h171v-544h223c150.667 0 256.5 -13.667 317.5 -41s110.333 -73.166 148 -137.499s56.5 -142.5 56.5 -234.5c0 -130.667 -37.167 -231.334 -111.5 -302.001s-185.833 -106 -334.5 -106h-470zM358 150h292
c100.667 0 172.667 22.333 216 67s65 109 65 193c0 173.333 -93.667 260 -281 260h-292v-520z" />
    <glyph glyph-name="afii10046" unicode="&#x42c;" horiz-adv-x="1126" 
d="M171 0v1365h171v-544h223c150.667 0 256.5 -13.667 317.5 -41s110.333 -73.166 148 -137.499s56.5 -142.5 56.5 -234.5c0 -130.667 -37.167 -231.334 -111.5 -302.001s-185.833 -106 -334.5 -106h-470zM342 150h292c100.667 0 172.667 22.333 216 67s65 109 65 193
c0 173.333 -93.667 260 -281 260h-292v-520z" />
    <glyph glyph-name="afii10047" unicode="&#x42d;" horiz-adv-x="1206" 
d="M405 786l-0.000976562 -150h527c-1.33301 -157.333 -36.833 -283.166 -106.5 -377.499s-163.5 -141.5 -281.5 -141.5c-165.333 0 -279 92 -341 276l-162 -34c80 -257.333 249.333 -386 508 -386c193.333 0 337 72.5 431 217.5s141 313.167 141 504.5
c0 203.333 -49.167 370.5 -147.5 501.5s-233.833 196.5 -406.5 196.5c-259.333 0 -428 -122.333 -506 -367l165 -33c58.667 170 170 255 334 255c112.667 0 200.834 -44.333 264.501 -133s99.5 -198.334 107.5 -329.001h-527z" />
    <glyph glyph-name="afii10048" unicode="&#x42e;" horiz-adv-x="1810" 
d="M605 650l-263 0.000976562v-650h-171v1365h171v-565h267c22 176.667 82 319.667 180 429s223.333 164 376 164c163.333 0 297.5 -63.833 402.5 -191.5s157.5 -296.834 157.5 -507.501c0 -196 -50 -365.167 -150 -507.5s-236.333 -213.5 -409 -213.5
c-175.333 0 -312.333 65.5 -411 196.5s-148.667 291.167 -150 480.5zM1163 1253c-116 0 -208.332 -52.832 -276.999 -158.499s-103 -246.5 -103 -422.5c0 -162 34.5 -295.833 103.5 -401.5s161.833 -158.5 278.5 -158.5c119.333 0 212.666 54.5 279.999 163.5
s101 248.833 101 419.5c0 183.333 -35.833 322.166 -107.5 416.499s-163.5 141.5 -275.5 141.5z" />
    <glyph glyph-name="afii10049" unicode="&#x42f;" horiz-adv-x="1235" 
d="M904 591l-391 -0.00195312l-266 -591h-179l282 632c-90 28.667 -154.833 76.334 -194.5 143.001s-59.5 136.334 -59.5 209.001c0 106 38.333 196 115 270s181.667 111 315 111h538v-1365h-160v591zM904 1215h-378c-78.667 0 -141.5 -20.667 -188.5 -62
s-70.5 -97 -70.5 -167c0 -69.333 22.667 -129.333 68 -180s116 -76 212 -76h357v485z" />
    <glyph glyph-name="afii10065" unicode="&#x430;" horiz-adv-x="1083" 
d="M948 0l-155.999 -0.000976562c-6 32 -12 92.667 -18 182c-69.333 -139.333 -187.333 -209 -354 -209c-113.333 0 -200.333 30 -261 90s-91 132 -91 216c0 102 43.333 185.833 130 251.5s234 98.5 442 98.5c28 0 72.667 -1.33301 134 -4
c0 80 -6.16699 137.833 -18.5 173.5s-38.5 64.167 -78.5 85.5s-92.667 32 -158 32c-159.333 0 -252 -60.667 -278 -182l-145 25c35.333 186 184 279 446 279c139.333 0 238.166 -30.833 296.499 -92.5s87.5 -168.5 87.5 -320.5v-429c0 -71.333 7.33301 -136.666 22 -195.999
zM774.001 504.999c-64 4 -112.667 5.99902 -146 5.99902c-124 0 -220.333 -20.333 -289 -61s-103 -100 -103 -178c0 -49.333 18.5 -91.333 55.5 -126s90.5 -52 160.5 -52c94.667 0 172.5 34.333 233.5 103s91.5 149.334 91.5 242.001c0 18.667 -1 40.667 -3 66z" />
    <glyph glyph-name="afii10066" unicode="&#x431;" horiz-adv-x="1085" 
d="M705 1456l171 -0.00195312c-4.66699 -64.667 -25.5 -112.334 -62.5 -143.001s-105.167 -55 -204.5 -73c-74.667 -13.333 -130 -30 -166 -50s-67.333 -55 -94 -105s-46.334 -118.333 -59.001 -205c70 105.333 163.667 158 281 158c118 0 218.333 -44.5 301 -133.5
s124 -222.167 124 -399.5c0 -172.667 -40 -304.5 -120 -395.5s-187.333 -136.5 -322 -136.5c-84 0 -157.833 17.333 -221.5 52s-117.334 93.334 -161.001 176.001s-65.5 203.667 -65.5 363c0 130.667 10.833 248.834 32.5 354.501s52.834 188.167 93.501 247.5
s85.167 101 133.5 125s112.166 43 191.499 57c54.667 10 91.834 21.833 111.501 35.5s31.834 37.834 36.501 72.501zM551 907.998c-80 0 -146.833 -34 -200.5 -102s-80.5 -168.333 -80.5 -301c0 -129.333 26.5 -228.833 79.5 -298.5s120.167 -104.5 201.5 -104.5
c80.667 0 146.5 34.833 197.5 104.5s76.5 169.167 76.5 298.5c0 134 -26 234.667 -78 302s-117.333 101 -196 101z" />
    <glyph glyph-name="afii10067" unicode="&#x432;" horiz-adv-x="1073" 
d="M164 0v1010h471c206.667 0 310 -81.333 310 -244c0 -109.333 -57.667 -185 -173 -227c142 -40 213 -126.333 213 -259c0 -83.333 -24.5 -150.833 -73.5 -202.5s-116.833 -77.5 -203.5 -77.5h-544zM321 590h314c99.333 0 149 51.333 149 154
c0 95.333 -49.667 143 -149 143h-314v-297zM321 123h314c118.667 0 178 57 178 171c0 118 -59.333 177 -178 177h-314v-348z" />
    <glyph glyph-name="afii10068" unicode="&#x433;" horiz-adv-x="737" 
d="M150 0v1010h586v-123h-429v-887h-157z" />
    <glyph glyph-name="afii10069" unicode="&#x434;" horiz-adv-x="982" 
d="M96 123l291 887h233l267 -887h71v-355h-117l-20 232h-660l-21 -232h-116v355h72zM242 123h483l-209 737h-45z" />
    <glyph glyph-name="afii10070" unicode="&#x435;" horiz-adv-x="1066" 
d="M824 301l145.999 -30c-26.667 -86 -78.667 -157.167 -156 -213.5s-168.333 -84.5 -273 -84.5c-138 0 -249.667 48.5 -335 145.5s-128 224.167 -128 381.5c0 160.667 44.333 290.5 133 389.5s200 148.5 334 148.5c132 0 238.167 -45.667 318.5 -137s121.5 -228 123.5 -410
h-734c0 -152.667 32 -255.667 96 -309s131.667 -80 203 -80c128.667 0 219.334 66.333 272.001 199zM814.999 608c-1.33301 56.667 -10.668 107 -28.001 151s-46.666 81.5 -87.999 112.5s-91 46.5 -149 46.5c-78 0 -144.167 -28 -198.5 -84s-84.833 -131.333 -91.5 -226h555
z" />
    <glyph glyph-name="afii10072" unicode="&#x436;" horiz-adv-x="1306" 
d="M909 585l373 -585h-186l-308 485l-66 -31v-454h-148v454l-65 31l-322 -485h-163l369 542l-322 468h180l289 -432l34 -15v447h148v-447l34 15l289 432h158z" />
    <glyph glyph-name="afii10073" unicode="&#x437;" horiz-adv-x="894" 
d="M340 462v131.003c98 0 168.833 12.167 212.5 36.5s65.5 67.166 65.5 128.499c0 46 -15.833 83.667 -47.5 113s-75.5 44 -131.5 44c-124 0 -198.667 -63 -224 -189l-148 27c42 190 166.333 285 373 285c109.333 0 195 -25.833 257 -77.5s93 -115.834 93 -192.501
c0 -104 -62.333 -181.667 -187 -233c142 -40 213 -123 213 -249c0 -86.667 -32.667 -160.5 -98 -221.5s-154 -91.5 -266 -91.5c-224 0 -362.333 109 -415 327l148 26c35.333 -154 118 -231 248 -231c68.667 0 121 18.667 157 56s54 84 54 140
c0 46.667 -12.167 83.667 -36.5 111s-55 44.166 -92 50.499s-95.5 9.5 -175.5 9.5z" />
    <glyph glyph-name="afii10074" unicode="&#x438;" horiz-adv-x="1090" 
d="M307 96v-95.999h-157v1010h157v-531c0 -74 -2.33301 -151.333 -7 -232c43.333 69.333 87 132.666 131 189.999l352 464v109h157v-1010h-157v509c0 94 2.33301 171.333 7 232c-22.667 -41.333 -66.667 -104.333 -132 -189z" />
    <glyph glyph-name="afii10075" unicode="&#x439;" horiz-adv-x="1090" 
d="M307 96v-95.999h-157v1010h157v-531c0 -74 -2.33301 -151.333 -7 -232c43.333 69.333 87 132.666 131 189.999l352 464v109h157v-1010h-157v509c0 94 2.33301 171.333 7 232c-22.667 -41.333 -66.667 -104.333 -132 -189zM240 1425h114c16.667 -90.667 77 -136 181 -136
c108.667 0 171.667 45.333 189 136h114c-28.667 -170.667 -124 -256 -286 -256c-183.333 0 -287.333 85.333 -312 256z" />
    </font>
</defs>
</svg>
